<svg xmlns="http://www.w3.org/2000/svg" viewBox="0 0 191.21 180.18"><defs><style>.cls-1{fill:#fac811;stroke:#fac811;}.cls-1,.cls-2,.cls-3,.cls-4,.cls-5{stroke-width:0.5px;}.cls-2{fill:#fff7a2;stroke:#fff7a2;}.cls-3{fill:#fffefd;stroke:#fffefd;}.cls-4{fill:#f34f22;stroke:#f34f22;}.cls-5{fill:#f44f22;stroke:#f44f22;}</style></defs><g id="Layer_2" data-name="Layer 2"><g id="Layer_1-2" data-name="Layer 1"><path class="cls-1" d="M32.35,31.71C39.54,16.08,53.91,3,71.3.44,82.62-.79,94,4,101.78,12.16,114,25,121.55,41.34,130.77,56.31c5.76,10.61,16,19,17.42,31.68-5.2,9.62-10.34,19.27-15.6,28.86C119.37,127,104.26,134.11,89,140.43,75.9,145.77,63,151.62,49.22,155c-6.82,1.86-14,1.55-20.94,1.37C18,155.69,9.34,148,5.43,138.74s-6-19.19-4.87-29.09C.84,102.16,4.21,95,8.93,89.32,16.62,80.88,28,76.52,39.29,76c1.74-.15,3.48-.49,5.22-.79-5.15-2.82-10.2-6.41-12.9-11.79-5.51-9.76-3.7-21.86.74-31.67M67.48,21.54c-1.36.32-2.29,1.46-3.31,2.32A23.22,23.22,0,0,0,51.82,44.72c-.4,12.49,11,24,23.54,23.57A23.55,23.55,0,0,0,96.58,56c3-5.22,2.8-11.56,2.08-17.33a22.91,22.91,0,0,0-12.09-15c-1.25-2.18-3.94-2.3-6.1-2.85-4.31-1-8.77-.32-13,.73M34.63,94.17c-9.23,3.32-16,12.58-15.9,22.47-.21,12.47,10.88,24.21,23.55,23.68a23.14,23.14,0,0,0,18.91-8.68c7.61-9.26,6.64-24.43-2.35-32.46C52.5,93.14,42.84,91.58,34.63,94.17Z"/><path class="cls-2" d="M67.48,21.54c4.22-1.05,8.68-1.76,13-.73,2.16.55,4.85.67,6.1,2.85a37,37,0,0,0-22.4.2C65.19,23,66.12,21.86,67.48,21.54Z"/><path class="cls-3" d="M64.17,23.86a37,37,0,0,1,22.4-.2,22.91,22.91,0,0,1,12.09,15c.72,5.77.94,12.11-2.08,17.33A23.55,23.55,0,0,1,75.36,68.29c-12.52.48-23.94-11.08-23.54-23.57A23.22,23.22,0,0,1,64.17,23.86m8.75,4.64A16.63,16.63,0,0,0,60.69,38c-3.7,8.31.59,19.27,9.5,22,9.61,3.92,21.35-3.92,21.67-14.22C93,35.67,82.84,26.49,72.92,28.5Z"/><path class="cls-4" d="M177.05,34.34c1.87-3.48,4.32-7,8.27-8.25,3.1,1.1,7.21,3.72,5,7.53q-33.2,67.74-66.52,135.45c-2.52,4.63-5.91,9.9-11.52,10.86A8.2,8.2,0,0,1,105,175c-1-3.68.49-7.39,2.1-10.64,8.51-15.83,17.13-31.61,25.5-47.51,5.26-9.59,10.4-19.24,15.6-28.86C157.85,70.13,167.53,52.28,177.05,34.34Z"/><path class="cls-5" d="M72.92,28.5c9.92-2,20,7.17,18.94,17.25C91.54,56.05,79.8,63.89,70.19,60c-8.91-2.7-13.2-13.66-9.5-22A16.63,16.63,0,0,1,72.92,28.5Z"/><path class="cls-3" d="M34.63,94.17c8.21-2.59,17.87-1,24.21,5,9,8,10,23.2,2.35,32.46a23.14,23.14,0,0,1-18.91,8.68c-12.67.53-23.76-11.21-23.55-23.68-.11-9.89,6.67-19.15,15.9-22.47m5.24,6.36a16.7,16.7,0,0,0-12.24,9.6c-3.7,8.39.82,19.29,9.76,22,9.58,3.75,21.18-4,21.44-14.3C60,107.66,49.81,98.51,39.87,100.53Z"/><path class="cls-4" d="M39.87,100.53c9.94-2,20.1,7.13,19,17.26-.26,10.26-11.86,18-21.44,14.3-8.94-2.67-13.46-13.57-9.76-22A16.7,16.7,0,0,1,39.87,100.53Z"/></g></g></svg>