<svg xmlns="http://www.w3.org/2000/svg" viewBox="0 0 124.2 217.48"><defs><style>.cls-1{fill:#ef8142;stroke:#ef8142;}.cls-1,.cls-2{stroke-width:0.5px;}.cls-2{fill:#48723e;stroke:#48723e;}</style></defs><g id="Layer_2" data-name="Layer 2"><g id="Layer_1-2" data-name="Layer 1"><path class="cls-1" d="M8.17,17.15C9.8,8.77,16.62.55,25.65.32,38.8-.86,49.67,13,48.18,25.44c-1.63,8.24-7.6,14.71-13.36,20.46l-1.76,1.78c-8.17-3-16.74-6.7-22.14-13.8C7.19,29.15,7.58,22.77,8.17,17.15Z"/><path class="cls-2" d="M33.06,47.68l1.76-1.78a241,241,0,0,1,17,57.33c3.91,24.5,3.83,50.13-4,73.89C61.26,160.33,77.21,145.71,93.7,132l2.62.58c-15.47,13.52-31,27.14-44.16,43a42.83,42.83,0,0,0-9.47,17.29H40.5c-6.42,10.26-15.2,19.89-26.74,24.26-.15-1.44.2-2.73,1.71-3.13,12.8-6.71,22.3-18.64,27.66-31.89-.19-8-2.71-15.73-4.94-23.34a378.76,378.76,0,0,0-16.83-43.16l1.93-1.48c9,20.19,17.68,40.84,21.8,62.66,7.55-20.19,8-42.37,5.71-63.58A237,237,0,0,0,33.06,47.68Z"/><path class="cls-1" d="M6,107.73C-4.66,99.29.42,79.15,13.74,76.62c13.1-2.36,24.88,13.71,18.87,25.5a41.28,41.28,0,0,1-9.32,12l-1.93,1.48C15.81,114.56,10.4,111.38,6,107.73Z"/><path class="cls-1" d="M90.17,110.45c3.25-11.06,18.72-17.41,28.1-9.91,8.54,7,6.86,21.29-1,28.08-6,4.32-13.84,4.28-20.9,3.95L93.7,132C91.11,125.16,88.63,117.81,90.17,110.45Z"/></g></g></svg>