<svg xmlns="http://www.w3.org/2000/svg" viewBox="0 0 239.49 281.77"><defs><style>.cls-1{fill:#294772;stroke:#294772;}.cls-1,.cls-10,.cls-11,.cls-12,.cls-13,.cls-14,.cls-15,.cls-16,.cls-17,.cls-18,.cls-19,.cls-2,.cls-20,.cls-21,.cls-22,.cls-23,.cls-24,.cls-3,.cls-4,.cls-5,.cls-6,.cls-7,.cls-8,.cls-9{stroke-width:0.5px;}.cls-2{fill:#fbcd05;stroke:#fbcd05;}.cls-3{fill:#637b25;stroke:#637b25;}.cls-4{fill:#a659a9;stroke:#a659a9;}.cls-5{fill:#094c76;stroke:#094c76;}.cls-6{fill:#094b76;stroke:#094b76;}.cls-7{fill:#30475d;stroke:#30475d;}.cls-8{fill:#ca83bb;stroke:#ca83bb;}.cls-9{fill:#dccd3b;stroke:#dccd3b;}.cls-10{fill:#d4c642;stroke:#d4c642;}.cls-11{fill:#fad105;stroke:#fad105;}.cls-12{fill:#375a3d;stroke:#375a3d;}.cls-13{fill:#daa168;stroke:#daa168;}.cls-14{fill:#e7d353;stroke:#e7d353;}.cls-15{fill:#345836;stroke:#345836;}.cls-16{fill:#dac744;stroke:#dac744;}.cls-17{fill:#3c5d41;stroke:#3c5d41;}.cls-18{fill:#cec43f;stroke:#cec43f;}.cls-19{fill:#d9cd51;stroke:#d9cd51;}.cls-20{fill:#ccc33f;stroke:#ccc33f;}.cls-21{fill:#355a40;stroke:#355a40;}.cls-22{fill:#ccc346;stroke:#ccc346;}.cls-23{fill:#0a4b76;stroke:#0a4b76;}.cls-24{fill:#c6bf40;stroke:#c6bf40;}</style></defs><g id="Layer_2" data-name="Layer 2"><g id="Layer_1-2" data-name="Layer 1"><path class="cls-1" d="M35.12,6.65A8.85,8.85,0,0,1,47.07,1c3.69,1.35,5.27,5.32,5.62,9A41.77,41.77,0,0,1,71.83,36.73q-2.51.08-5,.21c-2.5-9-8-17.5-16.24-22.28-2.08,1.84-4.61,3.5-7.52,3.23C37.66,17.77,33.43,11.84,35.12,6.65Z"/><path class="cls-1" d="M4.81,15.47c2-5.1,9-7,13.27-3.67,3.16,2.09,4,6.11,3.49,9.65A43.64,43.64,0,0,1,38.14,45,17.82,17.82,0,0,1,33,48.21l.64-1c.78,0,3.55-1.22,1.53-1.8l-1.8,1A39.13,39.13,0,0,0,19,25.76C16.48,27,13.7,28.4,10.86,27.5,5.66,26.49,2.57,20.25,4.81,15.47Z"/><path class="cls-2" d="M66.88,36.94q2.45-.13,5-.21a65.31,65.31,0,0,1,45.79,20.42,64.8,64.8,0,0,1,18.14,46.5c.13,16.36-6.89,32.22-17.73,44.29-.85.64-1.7,1.28-2.53,1.93-1.65-.11-2.39.64-2.23,2.26a58.1,58.1,0,0,1-12.66,8.72c-5.27.58-9.84,3.57-15,4.47C77.2,167,68.48,168.62,60,166.81c-3-.61-6.08-1-9.13-1.39C23.7,158.08,3,130.56,4.44,102.28c4.53,3.07,11.24,3,15.26-.91,4.63-4,4.21-12.36-.86-15.76-3.2-2.57-7.51-2.82-11.38-2.06.75-6.49,4.39-12.27,7.81-17.71A63.89,63.89,0,0,1,33,48.21,17.82,17.82,0,0,0,38.14,45a59.75,59.75,0,0,1,28.74-8.05m3.48,53.78c-1.88,5,1.33,10.62,6,12.73,2.69,1.47,5.87.81,8.8.71,4-2,7.91-5.51,7.45-10.37C93,88.6,88.54,85,84.16,83.26c-5.56-.89-12,1.85-13.8,7.46M35,116.66c3,6.7,10.89,11,18.12,9.25,4.74-1.26,9.16-4.43,11.18-9l-3.08-1.83c-2.54,3.76-6.38,7.22-11.18,7.27-4.42.26-8.19-2.61-10.85-5.85C38.06,115.15,36.24,116.45,35,116.66Z"/><path class="cls-3" d="M33.38,46.4l1.8-1c2,.58-.75,1.78-1.53,1.8Z"/><path class="cls-4" d="M172.81,77.32c5.69-2.07,12.1-3.16,18-1.27,5.47,1.89,8.58,7.39,10.05,12.67,3.56,12.89.22,26.89-7,37.92A55.15,55.15,0,0,0,178,133.58c-11.56,7.15-22.82,15-32.34,24.77l-1.29-.69c-2.22-1.49-4.44-3.08-7.06-3.74a180.59,180.59,0,0,1,6.32-43.55A47.26,47.26,0,0,1,172.81,77.32Z"/><path class="cls-5" d="M7.46,83.55c3.87-.76,8.18-.51,11.38,2.06,5.07,3.4,5.49,11.81.86,15.76-4,3.94-10.73,4-15.26.91-2.79-2.35-4.66-6-4.08-9.68C.64,88.43,4.07,85.49,7.46,83.55Z"/><path class="cls-6" d="M70.36,90.72c1.82-5.61,8.24-8.35,13.8-7.46C88.54,85,93,88.6,92.61,93.79c.46,4.86-3.47,8.41-7.45,10.37-2.93.1-6.11.76-8.8-.71C71.69,101.34,68.48,95.75,70.36,90.72Z"/><path class="cls-7" d="M35,116.66c1.29-.21,3.11-1.51,4.19-.15,2.66,3.24,6.43,6.11,10.85,5.85,4.8,0,8.64-3.51,11.18-7.27l3.08,1.83c-2,4.56-6.44,7.73-11.18,9C45.84,127.65,37.94,123.36,35,116.66Z"/><path class="cls-8" d="M193.87,126.64a46.64,46.64,0,0,1,33.76,4.46c4.72,2.73,9.26,6.56,11.05,11.88,1.71,5.75-.73,11.74-3.8,16.57-8.49,12.62-23.62,20.25-38.76,20.31-12.09-.15-24-2.45-35.76-5.19-1.05-1.53-2.14-3-3.15-4.57l-.85-1.3a31.61,31.61,0,0,0-10.69-10.45c9.52-9.76,20.78-17.62,32.34-24.77A55.15,55.15,0,0,1,193.87,126.64Z"/><path class="cls-5" d="M115.5,149.87c.83-.65,1.68-1.29,2.53-1.93a62.44,62.44,0,0,1,17.44,5.42c-1.79,1.26-3.54,2.56-5.35,3.79l-1.53.66c-4.94.3-9.13,3-13.55,4.92a23,23,0,0,0-6.22,3.92l-.1,0c-2.78.17-5.67.84-7.14,3.47-8.64,3.83-17.12,8-25.86,11.58,1.34-4.63,2.55-9.42,5.23-13.49.13-.22.4-.64.54-.85a56,56,0,0,0,19.12-6.55,58.1,58.1,0,0,0,12.66-8.72A3.08,3.08,0,0,0,115.5,149.87Z"/><path class="cls-9" d="M113.27,152.13c-.16-1.62.58-2.37,2.23-2.26A3.08,3.08,0,0,1,113.27,152.13Z"/><path class="cls-3" d="M130.12,157.15c1.81-1.23,3.56-2.53,5.35-3.79l1.85.56c2.62.66,4.84,2.25,7.06,3.74l-1.64-.31-.07,0c-1.74-1.07-3.29-3.08-5.49-2.9C134.75,155.15,132.46,156.22,130.12,157.15Z"/><path class="cls-10" d="M130.12,157.15c2.34-.93,4.63-2,7.06-2.72,2.2-.18,3.75,1.83,5.49,2.9-2-.39-3.88-.86-5.78-1.39-16,6.51-31.41,14.21-47.19,21.16C85.32,179,81,181,76.76,183.2c-2.2,6.57-3.81,14.09-.31,20.53,19.51-8.66,38.87-17.66,58.33-26.46,4.16-1.83,8.15-4.31,12.78-4.78-23.75,11.5-48,22-72,33-1.56-2.67-1.13-5.83-1.24-8.76.09-5-.38-10.21,1.37-15,8.74-3.57,17.22-7.75,25.86-11.58a48.5,48.5,0,0,0,7.14-3.47l.1,0a180,180,0,0,0,19.77-8.84Z"/><path class="cls-11" d="M89.7,177.1c15.78-6.95,31.23-14.65,47.19-21.16,1.9.53,3.82,1,5.78,1.39l.07,0c3,3.89,7.41,6.22,10.85,9.65-1.12,2.17-3.22,3.52-5,5.1l-1,.39c-4.63.47-8.62,2.95-12.78,4.78-19.46,8.8-38.82,17.8-58.33,26.46-3.5-6.44-1.89-14,.31-20.53C81,181,85.32,179,89.7,177.1Z"/><path class="cls-12" d="M115,162.73c4.42-1.88,8.61-4.62,13.55-4.92a180,180,0,0,1-19.77,8.84A23,23,0,0,1,115,162.73Z"/><path class="cls-13" d="M142.74,157.35l1.64.31,1.29.69a31.61,31.61,0,0,1,10.69,10.45l-.55.22c-.76-.68-1.5-1.36-2.22-2C150.15,163.57,145.72,161.24,142.74,157.35Z"/><path class="cls-14" d="M85.57,165.32c5.2-.9,9.77-3.89,15-4.47a56,56,0,0,1-19.12,6.55c-.14.21-.41.63-.54.85-6.29.43-12.6,1.17-18.87.1-3.78-.64-8-.72-11.21-2.93,3.05.37,6.11.78,9.13,1.39C68.48,168.62,77.2,167,85.57,165.32Z"/><path class="cls-15" d="M101.58,170.16c1.47-2.63,4.36-3.3,7.14-3.47A48.5,48.5,0,0,1,101.58,170.16Z"/><path class="cls-16" d="M153.59,167c.72.66,1.46,1.34,2.22,2-2.4,1-4.77,2.15-7.22,3.08C150.37,170.52,152.47,169.17,153.59,167Z"/><path class="cls-17" d="M155.81,169l.55-.22.85,1.3c-16.94,7-33.36,15.13-50.11,22.52-10.52,5-21.27,9.44-31.7,14.57a9.8,9.8,0,0,1,.19-1.66c24-11,48.22-21.54,72-33l1-.39C151,171.17,153.41,170.07,155.81,169Z"/><path class="cls-5" d="M107.1,192.62c16.75-7.39,33.17-15.56,50.11-22.52,1,1.53,2.1,3,3.15,4.57a58.09,58.09,0,0,1,5.51,10.58c-4.15,2.07-8.41,3.89-12.62,5.83-23.84,10.38-47.39,21.44-71.12,32.07a74.12,74.12,0,0,1-6.73-16C85.83,202.06,96.58,197.58,107.1,192.62Z"/><path class="cls-11" d="M165.87,185.25l.15-.08c.59,3.12,2.13,6.08,2.21,9.28-.64,3.64.14,7.26.42,10.9-1.63,1.84-4,2.75-6.16,3.75-6.77,2.84-13.37,6.06-20.09,9-2.31,1.09-5,1.88-6.41,4.18l-1.21.57a11.53,11.53,0,0,0-5.41,1.1c-8.27,3.81-16.55,7.59-24.87,11.26a10.42,10.42,0,0,0-3.79,3c-1.12.62-2.24,1.24-3.34,1.87-4.8-4.79-9.85-9.38-13.87-14.88,3.15-2.85,7.13-4.41,11-6.09,18.56-8.45,37.19-16.76,55.72-25.28a6.93,6.93,0,0,0,3.06-2.74C157.46,189.14,161.72,187.32,165.87,185.25Z"/><path class="cls-18" d="M82.13,223.15c23.73-10.63,47.28-21.69,71.12-32.07a6.93,6.93,0,0,1-3.06,2.74c-18.53,8.52-37.16,16.83-55.72,25.28-3.84,1.68-7.82,3.24-11,6.09C83,224.5,82.56,223.81,82.13,223.15Z"/><path class="cls-19" d="M168.23,194.45c2.11,3.92,1.2,8.57,1.54,12.85-11.38,4.74-22.38,10.33-33.78,15,1.42-2.3,4.1-3.09,6.41-4.18,6.72-2.94,13.32-6.16,20.09-9,2.17-1,4.53-1.91,6.16-3.75C168.37,201.71,167.59,198.09,168.23,194.45Z"/><path class="cls-5" d="M136,222.28c11.4-4.65,22.4-10.24,33.78-15,.09,7.37.07,14.74-.37,22.11l-.65-1.45c-19.13,8.31-38.68,15.63-57.87,23.78-4.52-3.88-9.15-7.61-13.51-11.67,1.1-.63,2.22-1.25,3.34-1.87,11.55-4.64,22.86-9.92,34.07-15.35Z"/><path class="cls-20" d="M129.37,224a11.53,11.53,0,0,1,5.41-1.1c-11.21,5.43-22.52,10.71-34.07,15.35a10.42,10.42,0,0,1,3.79-3C112.82,231.54,121.1,227.76,129.37,224Z"/><path class="cls-21" d="M110.88,251.74c19.19-8.15,38.74-15.47,57.87-23.78l.65,1.45c-15.45,6.18-31,12.21-46.2,18.88-3.43,1.21-6.72,2.77-10.12,4.05Z"/><path class="cls-22" d="M123.2,248.29c15.24-6.67,30.75-12.7,46.2-18.88a44.76,44.76,0,0,1-1.18,10.29c-.11-2.71-.32-5.4-.46-8.09-9.69,3.24-19,7.51-28.51,11.22C133.94,244.76,129,247.94,123.2,248.29Z"/><path class="cls-11" d="M139.25,242.83c9.51-3.71,18.82-8,28.51-11.22.14,2.69.35,5.38.46,8.09-.28,4.76-1.36,9.42-2.06,14.14-1.89.66-3.77,1.35-5.63,2-6,.34-11.16,3.69-16.7,5.62-3,1.41-6.9,1.81-8.86,4.85l-2,.83c-5-3-9.74-6.43-14.51-9.78-2-1.46-4.28-2.77-5.39-5.06,3.4-1.28,6.69-2.84,10.12-4.05C129,247.94,133.94,244.76,139.25,242.83Z"/><path class="cls-23" d="M160.53,255.88c1.86-.69,3.74-1.38,5.63-2a226.24,226.24,0,0,1-6.92,27.59A216.14,216.14,0,0,1,133,267.18l2-.83C143.57,263.08,152.18,259.77,160.53,255.88Z"/><path class="cls-24" d="M143.83,261.5c5.54-1.93,10.69-5.28,16.7-5.62-8.35,3.89-17,7.2-25.56,10.47C136.93,263.31,140.79,262.91,143.83,261.5Z"/></g></g></svg>