<svg xmlns="http://www.w3.org/2000/svg" viewBox="0 0 143.8 528.81"><defs><style>.cls-1{fill:#5bc1c6;stroke:#5bc1c6;stroke-width:0.5px;}</style></defs><g id="Layer_2" data-name="Layer 2"><g id="Layer_1-2" data-name="Layer 1"><g id="Layer_2-2" data-name="Layer 2"><g id="Layer_1-2-2" data-name="Layer 1-2"><path class="cls-1" d="M81.71.25C71.59.34,62.43,7.62,58.93,17c-3.69,10-4.4,20.67-5.41,31.15-6.67-5.79-14-11.06-22.11-14.48-7.5-3.32-16.63-3.35-23.91.67A45.75,45.75,0,0,0,.33,39.45C5.85,48.15,12.86,55.83,20,63.23c9.51,9.85,21.57,17.55,35.09,20.19a21.26,21.26,0,0,0,12.62-1.75C74.17,80,78.28,74,81.28,68.41A59.07,59.07,0,0,0,88.11,41,160.75,160.75,0,0,0,81.71.25Z"/><path class="cls-1" d="M107.93,64c0-2.27-2.72-1.34-4.09-1.34A26.67,26.67,0,0,0,82.8,78c-4.17,9.2-6.41,19.16-8.12,29.08-7-7.42-14.8-14.44-24.26-18.5-8.87-3.75-20.21-2.19-27.22,4.48.64,3.67,3.51,6.51,5.23,9.73,8.82,13.36,18.71,27,33.18,34.63,5.66,3,11.89,6,18.44,5.15,4.65-.94,9.74-1.55,13.26-5,7.65-7,12.63-16.69,15.08-26.72C111.52,95.4,110.56,79.42,107.93,64Z"/><path class="cls-1" d="M127.73,130.73A26.76,26.76,0,0,0,102,142c-5.72,8.64-8.9,18.65-12.14,28.42-6.76-7.62-13.31-15.92-22.53-20.71a27,27,0,0,0-27.1,1.48c.51,4.27,3.2,7.91,4.88,11.8,5.61,10.85,11.82,21.64,20.57,30.28,5.37,4.86,11.33,9.24,18.06,12,5.24,2.25,11.12,1.3,16.5.22,7.32-2.7,12.4-9.12,16.73-15.33,5.58-7.95,8.1-17.55,9.55-27A146,146,0,0,0,127.73,130.73Z"/><path class="cls-1" d="M139.34,196.47a26.45,26.45,0,0,0-23.12,4.91c-4.9,3.88-8.09,9.39-11.19,14.74a127.75,127.75,0,0,0-7.57,15.95c-5.72-8.55-11.57-17.44-20.26-23.27a27.08,27.08,0,0,0-27.6-1.08c5.14,15.34,10.89,30.92,21,43.73,6,6.77,13,13.4,21.92,16.09,5.87.52,12.36,1.12,17.5-2.36a54.1,54.1,0,0,0,19.55-22.33C136.07,228.31,138.51,212.27,139.34,196.47Z"/><path class="cls-1" d="M143.55,266.43c-7.11-1.8-15.18-2.07-21.73,1.76-6.78,3.6-11.25,10.09-15.61,16.2-3,4.13-5.34,8.66-8.17,12.91-4.1-8.82-9-17.56-16-24.3a27.35,27.35,0,0,0-28.57-5.33c3.42,15.86,7.4,32,16.07,45.93,4.54,6.57,9.92,12.8,16.79,17,4,2.52,8.85,2.51,13.37,3,7.82-.48,14.36-5.59,20-10.59,10.77-9.6,15.95-23.57,20-37C141.33,279.57,143.4,273.13,143.55,266.43Z"/><path class="cls-1" d="M66.23,331.75c-5-2-10.49-1.48-15.74-1.07,0,8.87,1.65,17.64,3.22,26.32,2.11,10,5.09,20,10.88,28.43,3.84,5.6,8.16,11.41,14.44,14.4,5,1.53,10.35,3.35,15.53,1.72,7.08-2,13.35-6.17,18.93-10.82,9.33-8.24,15.07-19.61,20-30.84a128.94,128.94,0,0,0,6-16.9c1.21-2.67-2-3.22-3.77-3.84-8.19-2.83-17.55-.86-24.35,4.38-7.64,6-13.63,13.8-19.63,21.4l-1.15-.33c-2.75-8.09-6-16.12-11.16-23C76,337.24,71.58,333.46,66.23,331.75Z"/><path class="cls-1" d="M64.42,399.46c-5.79-7-15.17-9.85-24-9.11-1.07,9.19-.23,18.43.41,27.61,1,10.37,3.06,20.86,8.15,30.05,3.8,7.16,9,14.81,17.36,16.75,5.86,2.78,12.53,1.16,18.24-1.15a56,56,0,0,0,21.58-15.26c9.54-11.12,16.57-24.17,22.28-37.61-6.15-4.53-14.27-5.53-21.6-3.92-7.22,1.83-13,6.92-18.45,11.67-4.15,3.57-7.84,7.63-11.63,11.58C74.43,419.32,71.57,408.1,64.42,399.46Z"/><path class="cls-1" d="M48,463A27.22,27.22,0,0,0,23.4,448.83C21,465.71,19,483.21,23,500c2.57,8.5,5.66,17.63,12.71,23.48,4.49,2.37,9.06,5.56,14.4,5,10.48-.69,20.63-5.14,28.9-11.58,12.42-10.4,22-23.89,29.74-38a26.44,26.44,0,0,0-19.85-6.36c-8,.77-14.8,5.58-21.27,10-4.39,3-8.16,6.74-12.54,9.72C54.23,482.26,52.6,472.05,48,463Z"/></g></g></g></g></svg>