<svg xmlns="http://www.w3.org/2000/svg" viewBox="0 0 204.55 230.48"><defs><style>.cls-1{fill:#9b2c92;stroke:#9b2c92;}.cls-1,.cls-10,.cls-2,.cls-3,.cls-4,.cls-5,.cls-6,.cls-7,.cls-8,.cls-9{stroke-width:0.5px;}.cls-2{fill:#992d91;stroke:#992d91;}.cls-3{fill:#ee5476;stroke:#ee5476;}.cls-4{fill:#9a2c91;stroke:#9a2c91;}.cls-5{fill:#b93578;stroke:#b93578;}.cls-6{fill:#9b2c91;stroke:#9b2c91;}.cls-7{fill:#992d90;stroke:#992d90;}.cls-8{fill:#992e90;stroke:#992e90;}.cls-9{fill:#982e8f;stroke:#982e8f;}.cls-10{fill:#992e91;stroke:#992e91;}</style></defs><g id="Layer_2" data-name="Layer 2"><g id="Layer_1-2" data-name="Layer 1"><path class="cls-1" d="M61.12,4.07c1.08-4.61,8.18-5.2,10.1-.92,1.77,3.09-.41,6.49-3.19,8,0,6.81-.19,13.61-.15,20.42A33.74,33.74,0,0,1,97.64,54.51C73.55,54.27,50.17,66.67,36,86c-8.59-11.24-8.22-27.62-.27-39.1-5.63-4.22-11.47-8.16-17.24-12.19-2.65,1.7-6.69,2-8.57-1-2.86-3.73.92-9.6,5.51-8.46,3.54.46,4.79,4.24,4.42,7.36,5.84,4,11.63,8.17,17.49,12.2A37,37,0,0,1,65.53,31.51c-.21-6.74.24-13.46,0-20.19C62.55,10.3,60,7.32,61.12,4.07Z"/><path class="cls-2" d="M155.52,52.61c1.9,1,3.78,2,5.63,3.08-3.65,6.23-7,12.65-10.63,18.86-1.59-1.42-3.21-2.78-4.87-4C148.92,64.52,152.29,58.61,155.52,52.61Z"/><path class="cls-3" d="M97.64,54.51c17.22-.36,34.26,5.75,48,16,1.66,1.27,3.28,2.63,4.87,4a81.85,81.85,0,0,1,15.43,19c1.07,1.79,1.83,3.88,3.6,5.18a18.65,18.65,0,0,0,1.75,5.93A77.66,77.66,0,0,1,177,140c-.18,2.1-.46,4.19-.73,6.3a77.94,77.94,0,0,1-20.14,41.53,76.69,76.69,0,0,1-42.62,23,79.27,79.27,0,0,1-45.11-5.71c-2.22-1.09-4.33-2.35-6.46-3.54-11.64-6.09-21.29-15.71-28.24-26.78-1.12-1.79-2.28-3.53-3.42-5.26-4.11-9.39-7.82-19.13-8.56-29.45q-.29-3-.51-6l-1.66-.35,1.55-.57A81.84,81.84,0,0,1,36,86c14.16-19.34,37.54-31.74,61.63-31.5M99.79,64.6c-4.17,1.09-7.87,5.1-8,9.51C91,79.82,96.27,85,101.71,85.67c6.79,1,13.3-5.82,11.79-12.57a11,11,0,0,0-13.71-8.5m-30.18,5c-1.87.58-.13,2.92.27,4.07q27.71,53.78,55.41,107.56c.51.74,2,3.56,2.77,1.59-.13-2.42-1.86-4.36-2.84-6.46Q98.49,124.1,71.55,72c-.69-.68-.86-2.74-1.94-2.44m68,17.9a16.63,16.63,0,0,0-11.74,11c-2.09,6.94.86,15.26,7.22,18.94,6.07,3.78,14.3,2.6,19.82-1.68a17.55,17.55,0,0,0,4.9-14.53c-.77-9.44-11.11-16.52-20.2-13.73M48.81,90.69c-7.56,1.79-9.77,13-4.05,18,5.2,5.55,15.35,2.78,18-4,.9-3.69.6-8-2.14-10.81-2.79-3.49-7.66-4.15-11.77-3.16m-1.06,42.84c-3,1-6,2.5-7.75,5.31-6.51,7.78-3.51,21.79,6.36,25.25,9.81,4.77,22.79-2.91,22.8-13.94,1.53-11.15-11-20.73-21.41-16.62m91.9,8.8a13.66,13.66,0,0,0-9.14,10.77c-1.72,7.9,4.79,16.31,13,16.4,7.89.86,15.58-6.41,14.74-14.4.5-9.14-10.24-16.18-18.55-12.77M88.74,168.45A13.75,13.75,0,0,0,79.85,182c0,7.84,7.71,14.53,15.49,13.42,7.45-.48,13.46-7.9,12.45-15.29C107.39,171.21,96.93,164.91,88.74,168.45Z"/><path class="cls-4" d="M99.79,64.6a11,11,0,0,1,13.71,8.5c1.51,6.75-5,13.58-11.79,12.57C96.27,85,91,79.82,91.84,74.11,91.92,69.7,95.62,65.69,99.79,64.6Z"/><path class="cls-5" d="M69.61,69.56c1.08-.3,1.25,1.76,1.94,2.44q26.83,52.16,53.67,104.32c1,2.1,2.71,4,2.84,6.46-.81,2-2.26-.85-2.77-1.59Q97.46,127.48,69.88,73.63C69.48,72.48,67.74,70.14,69.61,69.56Z"/><path class="cls-1" d="M137.6,87.46c9.09-2.79,19.43,4.29,20.2,13.73a17.55,17.55,0,0,1-4.9,14.53c-5.52,4.28-13.75,5.46-19.82,1.68-6.36-3.68-9.31-12-7.22-18.94A16.63,16.63,0,0,1,137.6,87.46Z"/><path class="cls-6" d="M48.81,90.69c4.11-1,9-.33,11.77,3.16,2.74,2.86,3,7.12,2.14,10.81-2.61,6.82-12.76,9.59-18,4C39,103.74,41.25,92.48,48.81,90.69Z"/><path class="cls-7" d="M169.55,98.73c7.16-2.59,14.45-4.82,21.74-7,.59,1.94,1.2,3.86,1.86,5.81-7.23,2.55-14.6,4.67-21.85,7.14A18.65,18.65,0,0,1,169.55,98.73Z"/><path class="cls-8" d="M.82,131.43c6.22.74,12.51,1.12,18.68,2.31l1.66.35q.22,3,.51,6c-7-.79-14-1.44-21-2.46C-.41,136.05.88,133.38.82,131.43Z"/><path class="cls-1" d="M47.75,133.53c10.4-4.11,22.94,5.47,21.41,16.62,0,11-13,18.71-22.8,13.94-9.87-3.46-12.87-17.47-6.36-25.25C41.7,136,44.71,134.5,47.75,133.53Z"/><path class="cls-9" d="M176.22,146.28c.27-2.11.55-4.2.73-6.3,9.11,2.54,18.16,5.28,27.3,7.76-.54,2-1.08,4-1.58,6C193.8,151.45,185,148.8,176.22,146.28Z"/><path class="cls-6" d="M139.65,142.33c8.31-3.41,19,3.63,18.55,12.77.84,8-6.85,15.26-14.74,14.4-8.16-.09-14.67-8.5-13-16.4A13.66,13.66,0,0,1,139.65,142.33Z"/><path class="cls-1" d="M88.74,168.45c8.19-3.54,18.65,2.76,19.05,11.72,1,7.39-5,14.81-12.45,15.29-7.78,1.11-15.54-5.58-15.49-13.42A13.75,13.75,0,0,1,88.74,168.45Z"/><path class="cls-10" d="M11.94,183.06C18,178.54,24,173.9,30.23,169.51c1.14,1.73,2.3,3.47,3.42,5.26-6,4.39-11.95,9-18,13.34Z"/><path class="cls-10" d="M61.89,201.55c2.13,1.19,4.24,2.45,6.46,3.54-3.06,8.33-5.86,16.75-9,25.07-2-.71-3.92-1.44-5.85-2.15,2.67-7.6,5.33-15.19,8.07-22.75A6,6,0,0,0,61.89,201.55Z"/></g></g></svg>