<svg xmlns="http://www.w3.org/2000/svg" viewBox="0 0 109.41 561.8"><defs><style>.cls-1{fill:#ec569d;stroke:#ec569d;stroke-width:0.5px;}</style></defs><g id="Layer_2" data-name="Layer 2"><g id="Layer_1-2" data-name="Layer 1"><path class="cls-1" d="M.51,2C9.06-.5,18.58-.53,26.75,3.3,32.92,6,37.89,10.81,42.09,16a97.48,97.48,0,0,1,11,16c.61.81,1,2.6,2.34,1.77a108.23,108.23,0,0,1,14.6-20.62A36.84,36.84,0,0,1,86.77,1.81c7.14-2.29,14.88-1.86,22.07,0-.34,6.76-2.66,13.21-4.48,19.67-4,12.29-9,24.68-17.63,34.49-7.11,7.41-15.36,14.77-25.68,17-6.32.25-13,1-18.86-2.08A65.61,65.61,0,0,1,12.11,39.1,147.28,147.28,0,0,1,.51,2Z"/><path class="cls-1" d="M.29,68.69a35.18,35.18,0,0,1,27,1.23c7.44,3.48,12.89,9.9,17.85,16.24,3.7,4.67,6.6,9.87,9.77,14.91,5.35-9.31,11.38-18.41,19.34-25.71a35.28,35.28,0,0,1,34.56-6.94c.37,4.15-1.6,8.3-2.35,12.41C101.67,97.65,95.34,115.19,82,127.15c-6,5.46-12.9,10.63-21,12.26A68.72,68.72,0,0,1,48,139.29c-8.2-2-15.12-7.27-21.15-12.94C15.93,116.34,10,102.29,5.48,88.48,3.35,82,1.82,75.33.29,68.69Z"/><path class="cls-1" d="M.38,138.84C10.8,135.29,22.9,136.57,32,143c10,7.26,16.57,18,22.91,28.33,5.42-9.35,11.51-18.47,19.54-25.81,9.22-8.37,22.76-10.5,34.51-6.95-.47,6.81-2.74,13.33-4.62,19.86C99.38,174,92.17,189.77,79,200.09c-5.29,4.31-11.21,8.35-18,9.62-6.21.08-12.84,1-18.55-2a64.78,64.78,0,0,1-24.1-21C8.87,172.35,3.8,155.57.38,138.84Z"/><path class="cls-1" d="M.51,205c9-2.5,19.07-2.45,27.49,2,9.47,4.83,15.8,13.82,21.71,22.35,2,2.51,2.74,6.18,5.69,7.8a94.9,94.9,0,0,1,19.24-25.5c9.24-8.26,22.74-10.18,34.41-6.65-1.07,8.51-3.77,16.72-6.45,24.84-4.17,11.46-9.4,23-18.19,31.66-5.34,5.21-11.23,10.06-18.15,13-5.4,2.47-11.52,1.94-17.26,1.64-8.63-1.61-15.82-7.25-22.11-13.06-10.71-9.75-16.59-23.43-21.09-36.9C3.64,219.27,1.52,212.26.51,205Z"/><path class="cls-1" d="M.36,275.66a35.2,35.2,0,0,1,31.26,3.8c10.12,7.31,16.9,18.13,23.27,28.64,5.44-9.54,11.65-18.85,19.9-26.19,9.2-8.14,22.55-10.08,34.14-6.63-.5,6.83-2.77,13.37-4.65,19.92-4,12.29-9,24.69-17.78,34.42-7,7.33-15.16,14.51-25.3,16.79-6.28.24-13,1-18.79-2-9.22-4.45-17-11.55-23.2-19.63C9.15,310.2,4,292.85.36,275.66Z"/><path class="cls-1" d="M.4,349.8c9.07-3,19.39-2.61,27.89,1.91,7.33,3.71,12.58,10.26,17.5,16.63a112.59,112.59,0,0,1,8.28,12.86c.53,1.48,1.76-.16,2.07-.89a95.79,95.79,0,0,1,18.21-23.8c9.26-8.34,23.06-10.83,34.77-6.71-3.44,17.82-9,35.84-19.77,50.68-7.36,8.77-16.42,17.16-27.78,20.07-6.64.32-13.78,1.13-19.85-2.21a65.7,65.7,0,0,1-23.39-20.58C8.89,383.35,3.79,366.55.4,349.8Z"/><path class="cls-1" d="M.48,420c10.82-3.3,23.37-2.08,32.48,5,9.39,7.29,15.7,17.61,21.94,27.54,5.49-9.33,11.52-18.54,19.62-25.82,8.83-8,21.83-10.3,33.12-7.07,2,.11,1.23,2.26,1,3.59-3.31,14.58-7.81,29.11-15.52,42-4.61,7.81-11.26,14.22-18.57,19.5-5.68,4-12.47,7.25-19.61,6.37-6.45.81-12.66-1.61-18-5.05A66.55,66.55,0,0,1,14.12,461.1,145.86,145.86,0,0,1,.48,420Z"/><path class="cls-1" d="M.31,490.61a34.69,34.69,0,0,1,32,4.18c7.44,5.56,13.06,13.17,18.08,20.88,1.54,2.15,2.34,5,4.55,6.57,2.86-3.28,4.46-7.5,7.18-10.92,5.6-7.59,11.63-15.54,20.45-19.57,8.19-4,17.78-4.07,26.41-1.53-1.06,8.92-3.93,17.53-6.8,26-3.82,10.12-8.37,20.3-15.77,28.35-7,7.31-15.23,14.47-25.4,16.71-6.12.24-12.64,1-18.31-1.88C33.81,555.27,26.34,548.5,20.19,541,9.36,526.22,4.25,508.23.31,490.61Z"/></g></g></svg>