<svg xmlns="http://www.w3.org/2000/svg" viewBox="0 0 220.6 170.91"><defs><style>.cls-1{fill:#a862aa;stroke:#a862aa;}.cls-1,.cls-2,.cls-3,.cls-4,.cls-5,.cls-6{stroke-width:0.5px;}.cls-2{fill:#fffefe;stroke:#fffefe;}.cls-3{fill:#f44f22;stroke:#f44f22;}.cls-4{fill:#fffefd;stroke:#fffefd;}.cls-5{fill:#f9c811;stroke:#f9c811;}.cls-6{fill:#d47056;stroke:#d47056;}</style></defs><g id="Layer_2" data-name="Layer 2"><g id="Layer_1-2" data-name="Layer 1"><path class="cls-1" d="M73,13.37C84.75,3.65,100.55-1.43,115.78.75a35.16,35.16,0,0,1,24.94,16.48c5.2,8.64,6.6,18.88,7.58,28.74,1.55,17,.23,34.31,3.26,51.21a67.87,67.87,0,0,1,.52,11.4c-14.05,9.08-27.87,18.52-42,27.48-6.1-.28-12.2.05-18.3-.25-11.6-.52-23.13-1.9-34.67-3.07-13.37-1.61-27.12-3.3-39.32-9.38-7.46-3.66-14-9.92-16.31-18.11-2.93-10.57-.22-21.76,3.75-31.69,4.35-10.7,13.09-20.18,24.59-23,12-3.32,24.54.26,35.2,5.89-2.79-5.07-5.83-10.33-5.82-16.3C58.69,29.51,65.08,19.92,73,13.37m27.31,7.48a23.8,23.8,0,1,0,22,4.87,23.84,23.84,0,0,0-22-4.87M36.23,68.76a23.83,23.83,0,0,0-13.09,35.05,23.49,23.49,0,0,0,20.7,11.38c11.26.24,21.68-8.88,23.18-20A23.82,23.82,0,0,0,36.23,68.76Z"/><path class="cls-2" d="M100.28,20.85A23.82,23.82,0,1,1,84.12,36.41a24,24,0,0,1,16.16-15.56m2.08,7.21A16.51,16.51,0,0,0,90.45,44.23c.13,8.12,7.16,15.63,15.39,15.75a16.28,16.28,0,0,0,16.35-10.82c2.82-7.23-.76-16.11-7.57-19.69C111,27.29,106.43,27.18,102.36,28.06Z"/><path class="cls-3" d="M102.36,28.06c4.07-.88,8.59-.77,12.26,1.41,6.81,3.58,10.39,12.46,7.57,19.69A16.28,16.28,0,0,1,105.84,60c-8.23-.12-15.26-7.63-15.39-15.75A16.51,16.51,0,0,1,102.36,28.06Z"/><path class="cls-4" d="M36.23,68.76A23.82,23.82,0,0,1,67,95.19c-1.5,11.12-11.92,20.24-23.18,20a23.49,23.49,0,0,1-20.7-11.38,23.83,23.83,0,0,1,13.09-35M30.75,81.47c-3.12,3.39-3.94,8.41-3.3,12.86a16.29,16.29,0,0,0,30.06,5.46c4.22-6.89,2.34-17-4.47-21.51C46.51,72.74,35.47,74.37,30.75,81.47Z"/><path class="cls-5" d="M207.63,72a12,12,0,0,1,9.87-2.2c2.8,1.92,4.34,6.88.75,8.85L95.67,166c-4.1,2.63-8.81,5.34-13.87,4.57-4.72-.78-7.25-7-4.61-10.94,1.43-2.52,3.83-4.24,6.17-5.84,8.86-6,17.9-11.66,26.72-17.69,14.13-9,28-18.4,42-27.48C170.58,96.38,189.14,84.25,207.63,72Z"/><path class="cls-6" d="M30.75,81.47c4.72-7.1,15.76-8.73,22.29-3.19C48.45,77,43.59,76,38.83,77,35.86,77.88,33.38,79.87,30.75,81.47Z"/><path class="cls-3" d="M30.75,81.47c2.63-1.6,5.11-3.59,8.08-4.51C43.59,76,48.45,77,53,78.28c6.81,4.53,8.69,14.62,4.47,21.51a16.29,16.29,0,0,1-30.06-5.46C26.81,89.88,27.63,84.86,30.75,81.47Z"/></g></g></svg>