<svg xmlns="http://www.w3.org/2000/svg" viewBox="0 0 147.47 205.95"><defs><style>.cls-1{fill:#8ec7b6;stroke:#8ec7b6;}.cls-1,.cls-2{stroke-width:0.5px;}.cls-2{fill:#45753b;stroke:#45753b;}</style></defs><g id="Layer_2" data-name="Layer 2"><g id="Layer_1-2" data-name="Layer 1"><path class="cls-1" d="M107.07,15.28a24.37,24.37,0,0,1,23.3-15,18,18,0,0,1,16.32,14.18c1.71,8.2-.69,17.63-7.08,23.27-8,5.83-18.46,5.66-27.89,5.18-.33-.85-.64-1.68-.94-2.49C107.7,32.52,104.74,23.77,107.07,15.28Z"/><path class="cls-2" d="M110.78,40.42c.3.81.61,1.64.94,2.49-23.54,22-43.44,48.57-55.2,78.75-4.13,11-7.31,22.59-8,34.41,12.74-18.17,28.91-33.55,45.18-48.5.29.82.6,1.66.92,2.53-14.32,12.85-28.19,26.37-40,41.61-2.36,3.43-5.34,6.69-6.47,10.77-.16,14.82,4.08,30.16,14.06,41.43-.58.53-1.14,1.09-1.69,1.67-8.08-9-12.53-20.78-14.18-32.67l-2.29-1.16c1.54-5.88.71-12.19-1-18-5.53-20-14.2-38.91-23.07-57.59l2-1c9.32,19,18,38.43,23.58,58.87,2-7,2.42-14.46,4.73-21.43C61,96.79,83.87,65.79,110.78,40.42Z"/><path class="cls-1" d="M.46,77.61c-1.31-8.77,3.64-19.18,12.93-21,13.37-2.75,25.61,14,19,25.94C29.74,87.3,26.53,92,22.08,95.17l-2,1c-2.79-2.64-6.72-3.36-9.86-5.42C5.38,88,.83,83.5.46,77.61Z"/><path class="cls-1" d="M90.91,86.92c3.89-10,17.46-16,26.83-9.73s8.25,21.07.63,28.32c-6.65,5.24-15.7,4.89-23.7,4.59-.32-.87-.63-1.71-.92-2.53C91.31,101.06,88.87,93.86,90.91,86.92Z"/></g></g></svg>