<svg xmlns="http://www.w3.org/2000/svg" viewBox="0 0 293.83 564.78"><defs><style>.cls-1{fill:#f26b2b;stroke:#f26b2b;}.cls-1,.cls-2,.cls-3,.cls-4,.cls-5,.cls-6,.cls-7{stroke-width:0.5px;}.cls-2{fill:#fff;stroke:#fff;}.cls-3{fill:#f5bf05;stroke:#f5bf05;}.cls-4{fill:#fffffe;stroke:#fffffe;}.cls-5{fill:#f1d976;stroke:#f1d976;}.cls-6{fill:#637b25;stroke:#637b25;}.cls-7{fill:#98aa54;stroke:#98aa54;}</style></defs><g id="Layer_2" data-name="Layer 2"><g id="Layer_1-2" data-name="Layer 1"><path class="cls-1" d="M146.83.84c.77-1.33,2.21-.12,2.75.76q13.33,18.32,26.77,36.58c3.27-.65,6.26-2.17,9.32-3.46l31.65-13.31a26.85,26.85,0,0,1,4.11-1.15c1.64,15.84,3.5,31.66,5.13,47.5,11.4,2.08,23,2.92,34.47,4.67,4.55.72,9.29.61,13.69,2.15-6.69,14.55-13,29.29-19.5,43.92,9.12,7,18.35,14,27.52,20.95,3.56,2.9,7.56,5.29,10.72,8.68-12.69,9.55-25.59,18.84-38.4,28.23,3.37,10.64,8.5,20.67,12.58,31.07,1.67,4.72,4.55,9.09,5.22,14.13-15.83,1.57-31.64,3.34-47.44,5.13-2.37,15.8-4.25,31.7-6.15,47.58-3.94-.71-7.45-2.68-11.07-4.23L174.77,255.3c-10,12.74-19.49,25.82-29.51,38.52-10.58-13.08-21-26.26-31.53-39.41-14.14,5.84-27.69,13-41.82,18.89-2-15.91-3.46-31.88-5.33-47.81-16-2.66-32.21-3.87-48.2-6.56,6.66-14.71,13.27-29.46,19.47-44.36C25.28,165.08,12.63,155.68.27,145.93c.06-.34.17-1,.22-1.36,12.46-9.29,25-18.43,37.6-27.58-.67-3.59-2.39-6.82-3.74-10.16-4.35-10.32-8.63-20.67-13-31a25.61,25.61,0,0,1-1.23-4.06C36,70.23,51.83,68.25,67.73,66.72c1.85-11.09,2.93-22.29,4.48-33.43.74-4.94.85-10,2.26-14.83C89,25.22,103.76,31.45,118.4,38,128.06,25.73,137.21,13.1,146.83.84m-.21,50.79c-6.31,7.87-12.12,16.14-18.44,24C118.51,71.57,109,67,99.32,63.1,97.84,73.51,96.59,84,95.26,94.42c-10.41,1-20.79,2.39-31.22,3.33,3.36,10,8,19.42,11.9,29.16-8.06,6.37-16.62,12.09-24.73,18.38a2.49,2.49,0,0,0,1.37,2.23c7.69,5.78,15.34,11.64,23,17.42-4.1,9.72-8.66,19.24-12.57,29,10.38,1.52,20.8,2.74,31.23,4,1.28,10.38,2.28,20.79,3.42,31.19,9.12-3.08,17.49-8.12,26.45-11.65,1.25-.67,2,.94,2.73,1.65,5.88,7.56,11.83,15.08,18,22.45.75,1.16,2.18-.15,2.66-.93,5.71-7.73,11.67-15.27,17.37-23,9.79,3.94,19.22,8.79,29.12,12.48,1.33-10.39,2.68-20.78,3.91-31.18,10.34-1.22,20.71-2.25,31.06-3.4-2.8-10.1-8.22-19.32-11.47-29.26,8-6.71,17.19-12,24.9-19-7.37-5.83-14.92-11.42-22.4-17.09-.91-.77-2.42-1.63-1.74-3.07,3.43-9.52,8.69-18.37,11.68-28-10.41-.9-20.72-2.56-31.09-3.75-1.1-10.38-2.3-20.75-3.36-31.13-10.08,3-19.34,8.32-29.32,11.59-5.83-7.44-11.22-15.24-16.85-22.84C148.68,52.19,147.67,50.54,146.62,51.63Z"/><path class="cls-2" d="M146.62,51.63c1-1.09,2.06.56,2.68,1.31,5.63,7.6,11,15.4,16.85,22.84,10-3.27,19.24-8.58,29.32-11.59,1.06,10.38,2.26,20.75,3.36,31.13,10.37,1.19,20.68,2.85,31.09,3.75-3,9.67-8.25,18.52-11.68,28-.68,1.44.83,2.3,1.74,3.07,7.48,5.67,15,11.26,22.4,17.09-7.71,7-16.94,12.3-24.9,19,3.25,9.94,8.67,19.16,11.47,29.26-10.35,1.15-20.72,2.18-31.06,3.4-1.23,10.4-2.58,20.79-3.91,31.18-9.9-3.69-19.33-8.54-29.12-12.48-5.7,7.73-11.66,15.27-17.37,23-.48.78-1.91,2.09-2.66.93-6.12-7.37-12.07-14.89-18-22.45-.75-.71-1.48-2.32-2.73-1.65-9,3.53-17.33,8.57-26.45,11.65-1.14-10.4-2.14-20.81-3.42-31.19-10.43-1.22-20.85-2.44-31.23-4,3.91-9.79,8.47-19.31,12.57-29-7.7-5.78-15.35-11.64-23-17.42a2.49,2.49,0,0,1-1.37-2.23c8.11-6.29,16.67-12,24.73-18.38C72,117.17,67.4,107.7,64,97.75c10.43-.94,20.81-2.3,31.22-3.33C96.59,84,97.84,73.51,99.32,63.1,109,67,118.51,71.57,128.18,75.63c6.32-7.86,12.13-16.13,18.44-24m.19,35.95c-3.39,4.39-6.66,8.86-10.07,13.23-1,1.86-3.33,1-4.86.53-4.79-2-9.39-4.49-14.34-6.1-1.75,6.33-1.12,13.07-3.12,19.32a148.61,148.61,0,0,0-18.37,2.1c1.32,6.25,4.71,11.8,6.78,17.81-5.07,4-10.42,7.66-15.57,11.57,4.92,4.25,10.35,7.84,15.32,12-2.15,6-5.48,11.58-7.41,17.7,5.53,1.38,11.31,1.39,17,2.21,3.79.74,1.83,5.58,3.13,8.24.34,3.66.51,7.35,1.16,11,6.18-1,11.1-5.42,17.17-6.82,3.48,4.59,7.21,9,10.69,13.61.54,1.1,1.95.68,2.95,1,3.19-5.09,7.3-9.5,10.72-14.43,6,2.39,11.67,5.41,17.74,7.59,1.33-6.36,1.67-12.87,2.65-19.28a31.92,31.92,0,0,0,7.72-.88,95.65,95.65,0,0,0,11.79-1.36c-2.63-5.79-5.06-11.68-7.4-17.6,3.07-3.41,7.43-5.37,10.92-8.34l.17-.25c1.34-.62,2.71-1.24,4.09-1.85-.05-.88-.07-1.75-.06-2.62-3.48-2-6-5.56-10-6.48-1.57-1.91-5.14-3-4.14-6,1.77-5.52,5.11-10.45,6.64-16.07-6.46-.9-13-1.54-19.37-2.75-.16-6.42-1.57-12.75-1.35-19.18-6.31,2.2-12.4,5-18.55,7.56-3.45-4.42-6.6-9-9.92-13.56C148.15,88.83,147.81,87.64,146.81,87.58Z"/><path class="cls-3" d="M146.81,87.58c1,.06,1.34,1.25,2,1.86,3.32,4.51,6.47,9.14,9.92,13.56,6.15-2.61,12.24-5.36,18.55-7.56-.22,6.43,1.19,12.76,1.35,19.18,6.4,1.21,12.91,1.85,19.37,2.75-1.53,5.62-4.87,10.55-6.64,16.07-1,3.05,2.57,4.12,4.14,6a83.18,83.18,0,0,0,8.49,7.4c-.88,1.17-1.67,2.36-2.5,3.55l-.17.25c-3.49,3-7.85,4.93-10.92,8.34,2.34,5.92,4.77,11.81,7.4,17.6A95.65,95.65,0,0,1,186.05,178a31.92,31.92,0,0,1-7.72.88c-1,6.41-1.32,12.92-2.65,19.28-6.07-2.18-11.77-5.2-17.74-7.59-3.42,4.93-7.53,9.34-10.72,14.43-1-.29-2.41.13-2.95-1-3.48-4.61-7.21-9-10.69-13.61-6.07,1.4-11,5.81-17.17,6.82-.65-3.63-.82-7.32-1.16-11-1.3-2.66.66-7.5-3.13-8.24-5.64-.82-11.42-.83-17-2.21,1.93-6.12,5.26-11.66,7.41-17.7-5-4.2-10.4-7.79-15.32-12,5.15-3.91,10.5-7.55,15.57-11.57-2.07-6-5.46-11.56-6.78-17.81a148.61,148.61,0,0,1,18.37-2.1c2-6.25,1.37-13,3.12-19.32,4.95,1.61,9.55,4.1,14.34,6.1,1.53.5,3.87,1.33,4.86-.53,3.41-4.37,6.68-8.84,10.07-13.23m-6.46,37a21.08,21.08,0,0,0-14.6,15.58,31.54,31.54,0,0,0,.06,10A21.68,21.68,0,0,0,140,165.34c6.6,1.24,14.24,1.17,19.57-3.52,7.5-5.59,10.22-16.3,6.66-24.88C162.53,127,150.41,121.22,140.35,124.61Z"/><path class="cls-4" d="M140.35,124.61c10.06-3.39,22.18,2.39,25.91,12.33,3.56,8.58.84,19.29-6.66,24.88-5.33,4.69-13,4.76-19.57,3.52a21.68,21.68,0,0,1-14.22-15.12,31.54,31.54,0,0,1-.06-10A21.08,21.08,0,0,1,140.35,124.61Z"/><path class="cls-5" d="M195.54,139.47c4,.92,6.54,4.52,10,6.48,0,.87,0,1.74.06,2.62-1.38.61-2.75,1.23-4.09,1.85.83-1.19,1.62-2.38,2.5-3.55A83.18,83.18,0,0,1,195.54,139.47Z"/><path class="cls-6" d="M138.23,305.13c5,.05,10.09.13,15.14.13q0,129.63,0,259.26c-5.06,0-10.11.05-15.16,0Q138.25,434.79,138.23,305.13Z"/><path class="cls-7" d="M182.74,349.84c11-3.38,22.81-1.61,33.82,1a69,69,0,0,1,2.7,29.52A24.57,24.57,0,0,1,209,397c-7.78,6-18.28,8.86-27.88,6.26A23.4,23.4,0,0,1,165,388.06c-2.7-8.22-1.14-17.41,3.06-24.84C171.33,357.37,176.12,351.87,182.74,349.84Z"/><path class="cls-7" d="M95.43,415.82c6.72-.76,14.06-.77,20,2.95,8.86,5.81,15.17,15.71,15.9,26.37.37,7.89-3.06,16.12-9.61,20.73-7.79,5.8-18.51,6.18-27.43,3-6.54-2.38-13.08-6.26-16.23-12.73-4.87-9.88-5-21.26-4.18-32a2.78,2.78,0,0,1,2.23-2.92A84.2,84.2,0,0,1,95.43,415.82Z"/></g></g></svg>