<svg xmlns="http://www.w3.org/2000/svg" viewBox="0 0 144.67 528.78"><defs><style>.cls-1{fill:#a152a1;stroke:#a152a1;stroke-width:0.5px;}</style></defs><g id="Layer_2" data-name="Layer 2"><g id="Layer_1-2" data-name="Layer 1"><path class="cls-1" d="M58.91,17.78C62.23,8,71.67.31,82.14.25a169.48,169.48,0,0,1,6,33c.77,9.54.23,19.45-3.45,28.4C82,68.54,78.39,75.74,72,80a52.05,52.05,0,0,1-10.62,3.64c-9.59.38-18.7-3.83-26.81-8.54C20.83,65.83,9.89,52.94.33,39.53c5-4.5,11.19-8,18.05-8.3,8.21-.6,15.89,3.14,22.68,7.34A87.86,87.86,0,0,1,53.9,48.29C54.55,38,55.69,27.62,58.91,17.78Z"/><path class="cls-1" d="M83.48,77.41A26.79,26.79,0,0,1,108.17,62.5a147.1,147.1,0,0,1,2.43,35.79c-.54,9.35-2.54,18.8-7.35,26.94-3.55,6.11-7.84,12.59-14.6,15.42-4.66,1.16-9.49,2.89-14.31,1.65-7.81-1.78-14.88-5.88-21.26-10.6-12.81-10.44-21.94-24.51-30.36-38.55,7.57-6.25,18.43-8.48,27.64-4.72,9.69,4,17.66,11.21,24.78,18.75C76.71,97,79.15,86.8,83.48,77.41Z"/><path class="cls-1" d="M101.91,142.79a27.2,27.2,0,0,1,26.34-12.13,144.59,144.59,0,0,1-1.08,31.8c-1.46,9.79-4,19.71-9.81,27.9-4.34,6.19-9.5,12.54-16.82,15.19-5.29.91-11,2-16.11-.19-14-5.6-24.65-17.15-32.16-29.93A177.66,177.66,0,0,1,40,151.27c7.68-4.63,17.47-6.13,25.83-2.43,10.22,4.58,17.5,13.5,24.53,21.87C93.2,161.05,96.65,151.43,101.91,142.79Z"/><path class="cls-1" d="M112.1,206a26.8,26.8,0,0,1,27.38-9.57c.81.75.28,2,.4,3a160.51,160.51,0,0,1-5,30.34c-2.42,8.68-5.87,17.3-11.84,24.19-5,5.88-11,11.73-18.63,13.72-5.25.29-10.9.93-15.71-1.7-12-6.23-21-17-27-29a171.55,171.55,0,0,1-11.8-29.62c8.6-3.9,19.17-4.13,27.26,1.16,8.9,5.88,15.15,14.83,20.69,23.78A113.12,113.12,0,0,1,112.1,206Z"/><path class="cls-1" d="M116.41,272.44a27.72,27.72,0,0,1,28-5.91c-.65,7.2-2.68,14.18-4.59,21.13-3.44,10.93-7.62,22-15.2,30.8-5.59,6-12,11.67-19.94,14.28-4.31,1.51-8.83.13-13.2-.22-6.64-1.87-11.73-7-16.22-12-7.26-8-11.64-18-15-28.09a163,163,0,0,1-6.3-25.16c8.65-2.49,18.59-2,25.94,3.63,8.74,6.73,14.15,16.75,18.73,26.58C103.72,288.64,109.11,279.72,116.41,272.44Z"/><path class="cls-1" d="M50.62,330.83c9.2-1.88,19.43.39,26.1,7.23,7.33,7.77,11.47,17.93,14.68,28,6.39-8.35,12.93-16.86,21.42-23.19,8-5.79,18.82-6.24,27.64-2.18-1.06,7-4.1,13.48-6.67,20-4.95,11-10.65,22.21-19.95,30.21-5.91,4.87-12.54,9.27-20.11,11-4.76,1.13-9.51-.67-14-1.9-6.33-2.9-10.7-8.68-14.56-14.25-6-8.63-9-18.88-11.14-29.06A185.58,185.58,0,0,1,50.62,330.83Z"/><path class="cls-1" d="M40.47,390.44C50,389.39,60.09,393,65.9,400.8c6.24,8.62,9.25,19.14,11.15,29.49a126.47,126.47,0,0,1,20-18.46c5.54-4,12.44-6.45,19.36-5.72,4.48.27,8.64,2.17,12.54,4.3-2.77,7.88-6.86,15.23-11.08,22.41-5.31,8.67-11.42,17.14-19.56,23.38-6.48,4.59-13.76,8.45-21.66,9.78-5.43,1.12-10.58-1.39-15.43-3.42-5.88-3.85-9.6-10.1-12.75-16.19-4.51-8.67-6.33-18.41-7.3-28A201.33,201.33,0,0,1,40.47,390.44Z"/><path class="cls-1" d="M23.53,448.9c9.91-.34,19.9,5,24.57,13.84,4.84,9.15,6.51,19.62,7.15,29.85,7.79-6.47,15.71-13,24.85-17.5,9.37-4.55,21.42-3.22,29.13,4-7.43,13.08-16.18,25.63-27.38,35.78a57.08,57.08,0,0,1-24.39,12.7c-4.36.92-9.07,1.65-13.35.13-4.34-2.1-9.26-3.76-12-8-10.7-14.7-12.16-33.76-10.75-51.33C21.76,461.82,22.64,455.35,23.53,448.9Z"/></g></g></svg>