<svg xmlns="http://www.w3.org/2000/svg" viewBox="0 0 229.55 492.15"><defs><style>.cls-1{fill:#577253;stroke:#577253;stroke-width:0.5px;}</style></defs><g id="Layer_2" data-name="Layer 2"><g id="Layer_1-2" data-name="Layer 1"><g id="Layer_2-2" data-name="Layer 2"><g id="Layer_1-2-2" data-name="Layer 1-2"><path class="cls-1" d="M206.3,19.57c7-7.12,13.64-15.14,23-19.18-.78,22.32.72,46.84-12.67,66.12-7,11.71-22.37,14.36-29.37,26.05-5,8.37-7,18.2-11.44,26.94-13.05,27-30,53.25-33.71,83.65,4.74-1.1,9.2-4.41,9.89-9.53,1.18-7.66,1.8-15.88,6.82-22.27,16.21-23,43.88-33.56,69.92-41-5.75,22.15-17.46,44.3-37.59,56.42-9.2,6-21.27,4.7-30.39,10.94C154.27,202,148.93,208,141.63,211c-11.14,36.5-13.56,75.09-24.7,111.54,9.88-4.12,13.42-14.83,17.58-23.75,4.87-11.18,15.69-18.23,26.63-22.65,14.89-6,30.65-9.19,46.19-13.34-6.56,21.53-21.17,41.68-42.16,51-15.32,7.45-34.39,5.47-48.21,16.32-11.48,11.57-14.43,28.34-19.64,43.17-6.7,23.35-24.69,41.16-33.92,63.33,12.26-1.53,19.93-12,27.59-20.7,8.59-10.2,22-15.11,35-15.77,14-.66,28,.78,41.89-.61-3.61,12.78-15.14,21.21-26,27.78-19.92,11.16-44.44,18.16-66.73,10.39-5.4.08-9.78,4.05-14.19,6.7-16.78,11-28.4,27.66-42.28,41.77C13.33,490,6.26,490,.16,491.91c21.07-18.27,37.41-41,55.08-62.38,11.89-14.76,22.11-31.74,25.2-50.66.17-7.42-9.19-6-13.94-8-9.41-3.84-15.32-13.08-19.37-22-8.26-20.35-9-42.91-7.66-64.5C66.41,295,82.38,324.85,81.26,353c-.48,7.4-.14,15.08,3.71,21.64,11-13,14.25-30.43,19.18-46.32,4.44-17,13-33,14.82-50.68,1.26-12,.31-25.73-8.51-34.88-5.56-5.91-14.49-5.36-21-9.57-9.72-6.13-15.06-16.86-18.39-27.43-4.49-14.49-7-29.46-10.73-44.15,13.55,1.19,26,8.15,35.77,17.3,10.42,9.79,18,23.15,18.83,37.63,1.54,10.93,0,23.45,7.16,32.64,6.36-15.89,5.7-33.49,11.4-49.58,4.17-12.85,9.44-27.13,3.91-40.4-5.07-13.59-21.16-18.2-27.14-31.14a63,63,0,0,1-4.4-21.82c-.57-16.38,6.64-31.67,7.66-47.88,5.35,1.18,8.74,5.74,12.55,9.28a57.2,57.2,0,0,1,17,32.54c2.78,19.47-4.09,39.18.62,58.52,4.7-4.6,6-11.17,9-16.86C160.14,127,169.49,113,177.78,98.52c1.7-3.33,5.06-6.68,3.83-10.73A61.39,61.39,0,0,1,185,48.84C189.93,37.73,197.78,28.2,206.3,19.57Z"/></g></g></g></g></svg>