<svg xmlns="http://www.w3.org/2000/svg" viewBox="0 0 325.5 522.55"><defs><style>.cls-1{fill:#9b2c92;stroke:#9b2c92;}.cls-1,.cls-2,.cls-3,.cls-4,.cls-5,.cls-6,.cls-7{stroke-width:0.5px;}.cls-2{fill:#ca83bb;stroke:#ca83bb;}.cls-3{fill:#c983bb;stroke:#c983bb;}.cls-4{fill:#52bac3;stroke:#52bac3;}.cls-5{fill:#9a2c92;stroke:#9a2c92;}.cls-6{fill:#5bc1c6;stroke:#5bc1c6;}.cls-7{fill:#49bec8;stroke:#49bec8;}</style></defs><g id="Layer_2" data-name="Layer 2"><g id="Layer_1-2" data-name="Layer 1"><path class="cls-1" d="M152.51,2.8c8.73-4.28,20-3.13,27.42,3.21a25.71,25.71,0,0,1,8,28.24c-3.12,9.58-12.42,16.52-22.41,17.25-1.19,0-2.38,0-3.55,0a26,26,0,0,1-18.07-9.36A25.67,25.67,0,0,1,152.51,2.8Z"/><path class="cls-2" d="M54.93,34.19a23.33,23.33,0,1,1,31.9,33.15,24.8,24.8,0,0,1-13.44,4.08l-1.71.08c-5.76-.91-11.43-3.38-15.31-7.86C49,55.8,48.41,42.72,54.93,34.19Z"/><path class="cls-3" d="M245.93,26.22a23.32,23.32,0,0,1,30.73,27.93c-2.36,9.47-11.21,16.32-20.77,17.34l-1.82-.08A23.89,23.89,0,0,1,238.13,65a23.31,23.31,0,0,1,7.8-38.74Z"/><path class="cls-4" d="M162,51.5c1.17,0,2.36,0,3.55,0,.21,60.9-.19,121.81.19,182.7a24.46,24.46,0,0,0,6.93-2l.93,1.1.62.75c12.9-2.85,23.76-11.32,32.49-20.91,12.23-13.73,20.91-30.23,27.68-47.22,11.83-30.11,17.43-62.3,19.69-94.46l1.82.08c-2.12,36.41-9.26,73-24.4,106.32-8.25,17.55-18.77,34.68-34.14,46.87-3.45,2.92-7.54,4.91-11.09,7.68,18.07-2,35.47-8.6,51.26-17.47,32.92-18.68,58.12-51.88,63.89-89.66h2c-4.73,31.74-23,60.67-48.23,80.22-22.4,17.54-50.11,28-78.41,30.35-3.62.56-7.22,1.25-10.87,1.66,2,43.61,9.3,86.92,20.39,129.12a648.07,648.07,0,0,0,61.85,152.27c1.49,1.77-1.63,2.27-2.51,3.27A649.59,649.59,0,0,1,161.88,237.5c-5-.53-10-1.72-15-2.11-32.76-3.45-64.45-18-87.64-41.54-18.37-18.49-31.42-42.68-35.11-68.6H25.8c2.2,10.13,4.73,20.27,9.11,29.74,14.87,33.41,44.79,59.05,79.14,70.92,8.75,2.92,17.73,5.81,27,6.16a89.67,89.67,0,0,1-24-20.12c-11.19-13.36-19.39-29-25.78-45.13a290.32,290.32,0,0,1-16.37-62.6c-1.46-10.85-3.07-21.79-3.23-32.73l1.71-.08c2.74,38.63,10.23,77.64,27.79,112.45,8.85,17.09,20.39,33.66,37,44,4.85,2.68,9.92,5.59,15.58,5.95a62.09,62.09,0,0,1-18.4-24c-10.35-22.48-14.65-47.22-17-71.7.07-4.21-1.47-8.55-.5-12.66l1-.14c1.39,22.23,4.32,44.5,10.91,65.84,3.72,11.43,8.21,22.89,15.67,32.44,4.06,5.07,9.34,10,16.11,10.67.1-56,0-112,.05-168C161.68,61.3,161.42,56.38,162,51.5Z"/><path class="cls-1" d="M108.91,80.28a23.3,23.3,0,0,1,31.35,27.27c-2.24,9.79-11.42,17.09-21.35,17.72l-1,.14c-5.34-.36-10.75-1.9-14.9-5.4a23.31,23.31,0,0,1,5.93-39.73Z"/><path class="cls-1" d="M293.71,80.08a23.33,23.33,0,0,1,30.61,28.44c-2.59,9.27-11.38,16-20.9,16.72h-2a23.73,23.73,0,0,1-14.8-5.79,23.32,23.32,0,0,1,7.1-39.36Z"/><path class="cls-1" d="M10.36,82.68A23.32,23.32,0,0,1,39.52,118.9c-3.71,3.59-8.7,5.53-13.72,6.36H24.13c-11.09.34-21.7-8.08-23.47-19.1A23.39,23.39,0,0,1,10.36,82.68Z"/><path class="cls-5" d="M186.69,92.17a23.32,23.32,0,1,1,36.44,27.38c-3.7,3.27-8.48,4.92-13.25,5.81l-1.41-.08c-6.95-.06-14-2.89-18.41-8.34A23.58,23.58,0,0,1,186.69,92.17Z"/><path class="cls-6" d="M208.47,125.28l1.41.08a277.77,277.77,0,0,1-3.7,36c-3.13,18-7.57,36-16,52.26-4.08,7.55-9.08,15.15-16.62,19.61l-.93-1.1c11.36-7.66,17.36-20.62,22.16-33C203.47,175.52,207,150.32,208.47,125.28Z"/><path class="cls-7" d="M199,263.34a47.91,47.91,0,0,1,39.43-5.62c3.59,1.26,7.34,2.94,9.7,6.06,2.34,3.82-.44,8.15-2.46,11.45a61.06,61.06,0,0,1-30.49,22.44c-13.29,4.18-27.78.17-39.41-6.77A73,73,0,0,1,199,263.34Z"/><path class="cls-7" d="M90.17,265.51c5.49-5.88,14.08-7,21.7-7.54,10.47.16,21.23,2.93,29.53,9.58A75.74,75.74,0,0,1,162,293.16c-12.36,7.55-28.22,11.38-42.13,5.89-11.09-4.46-21.23-11.89-28-21.82C89.86,273.86,86.94,269.06,90.17,265.51Z"/><path class="cls-7" d="M203,338.39c7.34-12.23,20.64-20.4,34.74-22.07,5.52-.75,11.62-.5,16.5,2.46,3.54,2.22,2.82,7.08,1.81,10.51a60.22,60.22,0,0,1-23,31.15c-11.7,8-26.92,8.1-40.25,4.83C194.23,355.72,198.12,346.64,203,338.39Z"/><path class="cls-7" d="M111.66,327.17c1.77-3.8,6.4-4.63,10.12-5.23,12-1.11,24.19,3.3,33.5,10.8,11.24,9.57,16.91,23.92,20.32,37.92-12.86,3.85-27.76,3.44-39.43-3.71a62.15,62.15,0,0,1-22.35-26.78C112.24,336.09,110.47,331.58,111.66,327.17Z"/></g></g></svg>