<svg xmlns="http://www.w3.org/2000/svg" viewBox="0 0 332.17 522.8"><defs><style>.cls-1{fill:#eb2c8c;stroke:#eb2c8c;}.cls-1,.cls-2,.cls-3,.cls-4,.cls-5{stroke-width:0.5px;}.cls-2{fill:#f190bd;stroke:#f190bd;}.cls-3{fill:#50bac3;stroke:#50bac3;}.cls-4{fill:#67b3b9;stroke:#67b3b9;}.cls-5{fill:#49bec8;stroke:#49bec8;}</style></defs><g id="Layer_2" data-name="Layer 2"><g id="Layer_1-2" data-name="Layer 1"><path class="cls-1" d="M133,10.72C133.73,5.43,138.09.66,143.58.36,152.26-.34,160,5,165.82,10.94c5-4.08,10.06-8.64,16.56-10.11,5.38-1.51,12.1-.16,15,5,3.79,7,1.84,15.51-1.44,22.28-5.4,10.84-15.42,20.73-28,21.93-1.16.07-2.33.06-3.49,0-10-.74-18.4-7.36-24.16-15.14C135.29,28,131.71,19.42,133,10.72Z"/><path class="cls-2" d="M53.15,16.16c3.77-1.69,8.06-.39,11.47,1.54,3.77,2.08,6.48,5.49,9.71,8.25,4.06-4.64,8.86-9.3,15.16-10.45,4.93-1,9.94,2.44,11.22,7.21,2.72,8.94-.39,18.5-4.68,26.42-4.49,7.51-11.25,15.36-20.6,16l-2.09-.06c-6.83.09-12.47-4.56-16.66-9.5-6.7-8.29-11.21-19-9.84-29.85C47.4,21.86,49.32,17.68,53.15,16.16Z"/><path class="cls-2" d="M231.16,25.39c.62-4.84,4.1-9.79,9.34-10,7.56-.21,13.13,5.6,18,10.58,4.55-4.93,9.9-10.22,17-10.6,4.87-.24,8.76,3.9,9.81,8.38,1.93,8.29-.52,16.93-4.41,24.29-4.59,8.24-12,17-22.22,17.12l-1.82,0c-7-.47-12.79-5.48-16.92-10.83C233.81,46.11,229.74,35.72,231.16,25.39Z"/><path class="cls-3" d="M164.47,50.11c1.16,0,2.33,0,3.49,0,.18,61.7-.13,123.41.16,185.11,9.76-1.6,16.27-10.05,21.06-18,9.42-16.43,14.13-35.06,17.51-53.55,2.24-11.89,3-24,4.22-36-1.79-.16-3.57-.32-5.35-.51a54.46,54.46,0,0,0,8.94,0l-2.39.5c-1.28,25.35-5.21,50.85-14.19,74.68-4.8,12.28-11.22,24.83-22.53,32.31,4.1-.07,7.89-1.76,11.52-3.5a72.39,72.39,0,0,0,20.56-15.56c12.69-13.63,21.69-30.25,28.66-47.4,12.39-31.32,18.52-64.87,20.29-98.42.13-1.55.3-3.1.46-4.65l1.82,0c-1.46,31.06-6.18,62.15-16.23,91.65-5.57,16.33-12.78,32.21-22.54,46.49-6.22,8.89-13.4,17.27-22.24,23.66-2.87,2.15-6.12,3.76-8.85,6.11,15.91-1.71,31.3-7.2,45.54-14.41,27.62-14.22,50.64-38,62.24-67,3.26-7.79,5.28-16,7.06-24.25l1.8-.06c-4.79,30.32-22.11,58-45.87,77.16-22.33,18.25-50.31,29.17-79,31.89-4.11.68-8.42.83-12.36,2.15A652.67,652.67,0,0,1,88.23,516.39c-1.24,2.05-2,4.5-3.81,6.14-1.55-.25-3.58-1.44-2.26-3.2,48.24-85.83,77-182.77,82.11-281.15-8.71-1.28-17.52-2-26.15-3.8,2.39-.12,4.78-.39,7.17-.62-.59-1.06-1.17-2.12-1.79-3.16,4.37,1.45,8.49,4,13.22,4.06-12-8.06-18.48-21.62-23.41-34.73-8.34-23.25-12-48-13.35-72.53l1.22,0c2.29,28.39,6.13,57.36,18.36,83.39,5.22,10.32,12.2,22,24.42,24.54.45-55.87.06-111.76.19-167.63C164.29,61.82,163.81,55.94,164.47,50.11Z"/><path class="cls-4" d="M73.34,65.06l2.09.06c1.63,33.29,7,66.65,18.67,98,6.34,16.79,14.51,33.09,25.89,47.06,5.91,7.12,12.69,13.68,20.69,18.41a11.42,11.42,0,0,1,2.82,2c.62,1,1.2,2.1,1.79,3.16-2.39.23-4.78.5-7.17.62-20.39-3.3-39.91-11.65-56.95-23.3-28-19.24-49.15-49.53-54.43-83.4l-3.1-.5h.26a59.21,59.21,0,0,0,8.63-.14l-3.89.72c5.73,32.47,25.43,61.69,52.28,80.55,18.41,12.92,39.89,21.93,62.26,24.73-2.72-2.37-6-3.94-8.85-6.13-11.31-8.35-20.08-19.66-27.27-31.63C89.9,166.15,81.13,132.85,76.44,99.58,74.84,88.13,74,76.6,73.34,65.06Z"/><path class="cls-1" d="M.3,89.7C.69,84.78,3.21,78.91,8.63,78c8-1.17,14.5,4.92,19.19,10.58,4.54-5.25,10.31-11,17.79-10.71,4.79-.12,8.31,4.24,9.24,8.58C56.6,95,54,103.69,50,111.1c-3.93,6.89-9.62,13.5-17.42,16a59.21,59.21,0,0,1-8.63.14c-6.42-1.49-11.41-6.36-15.25-11.48C3.32,108.2-.22,99,.3,89.7Z"/><path class="cls-1" d="M99.87,78.23c8.22-1.84,15.28,4.46,20,10.38,4.56-5.14,10.19-10.85,17.59-10.71,5.1-.26,8.79,4.47,9.59,9.1,1.85,9.8-1.95,19.84-7.36,27.91-4.41,6-10.56,12.38-18.56,12.47l-1.22,0c-5.63.48-10.74-2.72-14.6-6.51A43.54,43.54,0,0,1,92.3,91.7C92.39,86.44,94.27,80,99.87,78.23Z"/><path class="cls-1" d="M183.25,86.49c.84-4.37,4.48-8.72,9.26-8.58,7.44-.24,13.22,5.47,17.73,10.72,4.39-5.2,10.06-10.74,17.33-10.74,4.49-.28,8.2,3.35,9.36,7.46,2.19,7.58.17,15.69-3,22.68-4,8.24-10.25,16.49-19.4,19.1a54.46,54.46,0,0,1-8.94,0c-7.54-2.48-13.17-8.71-17.08-15.39C184.15,104.19,181.47,95.2,183.25,86.49Z"/><path class="cls-1" d="M277.17,87.2c.71-4.6,4.3-9.4,9.34-9.29,7.46-.27,13.29,5.41,17.76,10.72,3.6-4.22,7.73-8.34,13.11-10.15,3.93-1.25,8.92-.73,11.51,2.82,3.87,5.36,3.44,12.55,2,18.68-2.37,9-7.29,17.58-14.7,23.34-3.06,2.35-6.73,4.19-10.68,4.05l-1.8.06c-7,.23-12.8-4.74-17.06-9.8C279.86,109.19,275.42,98.12,277.17,87.2Z"/><path class="cls-5" d="M89.78,253.94c11.32-4.45,24.31-3.39,35.38,1.3C135.6,260,143.64,268.8,150,278.15a36.36,36.36,0,0,1,4.57,8.25c-11.49,6.68-25.58,10.65-38.7,6.85a62,62,0,0,1-28.18-18.73c-3-3.75-6.25-7.92-6.38-12.91C82.21,257.55,86.35,255.52,89.78,253.94Z"/><path class="cls-5" d="M197.15,257.28c11-4.77,24-5.85,35.38-1.54,3.41,1.51,7.41,3.43,8.52,7.32.49,4.32-2.35,8.13-4.72,11.48a61.12,61.12,0,0,1-30.11,20.74c-13.11,3.41-27.21-.23-38.52-7.25C174.64,275.56,184,263.49,197.15,257.28Z"/><path class="cls-5" d="M79,316.17c5-3.63,11.57-3.44,17.44-3,13,1.8,25.51,8.68,32.89,19.68a77.08,77.08,0,0,1,11.95,29.25c-12.9,3.24-27.51,3.26-39.11-4a61,61,0,0,1-23.81-30.32C77.36,324.13,75.82,319.24,79,316.17Z"/><path class="cls-5" d="M173.86,327c9.8-7.51,22.61-11.73,34.95-9.71,3.75.71,8.47,2.9,8.19,7.43-.46,7.92-4.47,15.11-8.85,21.53-6.26,8.48-14.29,16.34-24.55,19.62-10,3.15-20.83,2.72-30.87,0C156,351.38,162,336.53,173.86,327Z"/></g></g></svg>