<svg xmlns="http://www.w3.org/2000/svg" viewBox="0 0 223.77 419.87"><defs><style>.cls-1{fill:#a75fa8;stroke:#a75fa8;}.cls-1,.cls-2,.cls-3,.cls-4{stroke-width:0.5px;}.cls-2{fill:#ef8142;stroke:#ef8142;}.cls-3{fill:#fff;stroke:#fff;}.cls-4{fill:#175971;stroke:#175971;}</style></defs><g id="Layer_2" data-name="Layer 2"><g id="Layer_1-2" data-name="Layer 1"><path class="cls-1" d="M78.08,2C86.36.23,96-.09,103.06,5.34c4.57,3.36,6.59,9,7.57,14.35C112,14,113.89,7.94,119,4.46c7.94-5.54,18.34-4.72,27.3-2.57a84.06,84.06,0,0,1,40.81,24.42c5.6,6.43,10.48,15,8.64,23.76-.94,5.07-4.58,8.88-8,12.43,4.6-1.43,9.56-2.68,14.35-1.3,7.26,1.95,12.28,8.33,15.34,14.87,5.84,12.83,7,27.36,5.61,41.26-1.19,9.34-3.55,18.94-9.35,26.57-3.41,4.57-8.67,8.09-14.5,8.26-3.54.32-7-.68-10.3-1.68,4,4,8.24,8.49,8.68,14.49.9,10.54-5.93,19.77-13.06,26.79-11.67,11-26.37,19.14-42.25,21.85-8.13,1.26-17.68.49-23.61-5.87-3.24-3.13-4.08-7.67-5.79-11.63-1.08,6.55-4.5,13.2-10.8,16-10,4.65-21.61,2.15-31.63-1.25C57.25,206,44.89,198.38,35.78,187.65c-5.33-6.39-9.69-14.83-7.6-23.35,1-4.93,4.73-8.5,8.07-12-4.63,1.56-9.65,2.88-14.49,1.45-7.78-2.08-12.91-9.13-16-16.16C1,126.52-.22,114.22.39,102.26,1,92.59,3,82.76,7.9,74.31,11,69,15.83,64.29,22,63.13c4.38-1.11,8.8.29,13.09,1.21-4.28-3.59-8.26-8.18-8.84-14-1.16-9.85,4.89-18.65,11.3-25.49A84.75,84.75,0,0,1,78.08,2m42.79,21.24c-5.39,1.64-8.39,7.07-9.67,12.22-2.28-3.75-3.53-8.45-7.51-10.85-3.81-2.16-8.38-1.88-12.6-1.91-7.09-.3-13.74,2.67-20,5.53-10.39,5.37-20.41,12.87-25.67,23.6a18,18,0,0,0-.84,14.39C45.77,68.28,47.53,70,49,72c-6.17-.85-13.1,0-17.4,5-7.81,9.56-9.42,22.56-9.06,34.5.8,5.87,1.1,12,3.66,17.41C28.4,135.65,33,142.09,40,144.68c3,.45,6.07.12,9.11.08C47.69,147.3,46,149.67,45,152.4c-1.4,4.63.11,9.58,2.18,13.78,3.75,6.6,9.83,11.43,15.49,16.33a118.9,118.9,0,0,0,24.69,10.21c5.91.48,12.53,1.27,17.71-2.33,4-2.27,5.62-6.82,7.64-10.7,1.63.78,1.58,3.58,2.67,5.1,3.35,7.3,12.51,8.79,19.68,7.89,8.16-1.52,16.36-4,23.14-9,7.7-4.71,15-10.69,19.5-18.64,2.74-4.36,2.32-9.81,1.81-14.7-.32-2.61-4-4.83-2.7-7.33,2.91-.2,5.92.38,8.78-.38,7.39-3,11.45-10.75,13.26-18.11,2.59-7.47,1.71-15.5,1.78-23.25-.08-10.29-3.25-21.43-11.52-28.11-4.14-3.68-10-2.31-15-2.31,1.31-4,5.08-7.06,4.64-11.52.72-6.44-2.74-12.27-6.71-17A72,72,0,0,0,143,23.94C135.85,21.81,128,20.54,120.87,23.23Z"/><path class="cls-2" d="M120.87,23.23c7.15-2.69,15-1.42,22.09.71A72,72,0,0,1,172,42.33c4,4.73,7.43,10.56,6.71,17,.44,4.46-3.33,7.55-4.64,11.52,5,0,10.87-1.37,15,2.31,8.27,6.68,11.44,17.82,11.52,28.11-.07,7.75.81,15.78-1.78,23.25-1.81,7.36-5.87,15.12-13.26,18.11-2.86.76-5.87.18-8.78.38-1.33,2.5,2.38,4.72,2.7,7.33.51,4.89.93,10.34-1.81,14.7-4.52,8-11.8,13.93-19.5,18.64-6.78,5-15,7.48-23.14,9-7.17.9-16.33-.59-19.68-7.89-1.09-1.52-1-4.32-2.67-5.1-2,3.88-3.61,8.43-7.64,10.7-5.18,3.6-11.8,2.81-17.71,2.33a118.9,118.9,0,0,1-24.69-10.21c-5.66-4.9-11.74-9.73-15.49-16.33C45.1,162,43.59,157,45,152.4c1-2.73,2.7-5.1,4.07-7.64-3,0-6.1.37-9.11-.08-6.94-2.59-11.55-9-13.78-15.86-2.56-5.46-2.86-11.54-3.66-17.41-.36-11.94,1.25-24.94,9.06-34.5,4.3-5,11.23-5.81,17.4-5-1.44-2-3.2-3.67-4.44-5.74a18,18,0,0,1,.84-14.39C50.63,41.09,60.65,33.59,71,28.22c6.31-2.86,13-5.83,20-5.53,4.22,0,8.79-.25,12.6,1.91,4,2.4,5.23,7.1,7.51,10.85,1.28-5.15,4.28-10.58,9.67-12.22M93.49,39.45C82.42,41,72.18,46.76,64.37,54.63c-4.31,4.36-8.06,10.21-7.1,16.62.2,3.72,3,6.46,5.54,8.85a12.94,12.94,0,0,0-16.07,4c-5.8,8.06-6.74,18.57-6.2,28.2.89,8,2.72,16.85,9.06,22.45,3.67,3.26,8.91,3.16,13.35,1.76-2.52,2.68-5,5.91-4.83,9.8-.41,5.32,2.76,10,6.18,13.76a54.51,54.51,0,0,0,20.52,13.46c6,2.22,12.78,3.41,19.09,1.68,5.1-1.59,8.2-6.69,8.78-11.79.56,2.77,1.2,5.73,3.19,7.9,2.94,3.49,7.78,4.64,12.19,4.38,9.46-.62,18.37-4.84,25.86-10.49,5-4,9.78-8.75,12-14.88,1.5-4.51.91-10.25-3.07-13.32-.89-1-2.67-1.5-2.38-3.06,1.06,2.68,4.3,1.74,6.54,2,4.38.29,8.36-2.52,10.63-6.1,4.9-7.52,6-16.87,5.68-25.64-.76-8.57-2.52-18.11-9.31-24-3.51-3.29-8.58-2.87-12.94-2.07,2.18-2.48,4.48-5.26,4.63-8.71.57-5.34-2.5-10.15-5.8-14a54,54,0,0,0-20.2-13.62c-6.33-2.35-13.46-4.08-20.08-1.93a13,13,0,0,0-8.37,11.32c-.89-2.89-1.74-6-4-8.11C103.77,39.38,98.25,39,93.49,39.45Z"/><path class="cls-3" d="M93.49,39.45c4.76-.48,10.28-.07,13.79,3.59,2.25,2.14,3.1,5.22,4,8.11a13,13,0,0,1,8.37-11.32c6.62-2.15,13.75-.42,20.08,1.93a54,54,0,0,1,20.2,13.62c3.3,3.89,6.37,8.7,5.8,14-.15,3.45-2.45,6.23-4.63,8.71,4.36-.8,9.43-1.22,12.94,2.07,6.79,5.94,8.55,15.48,9.31,24,.28,8.77-.78,18.12-5.68,25.64-2.27,3.58-6.25,6.39-10.63,6.1-2.24-.3-5.48.64-6.54-2-.29,1.56,1.49,2.08,2.38,3.06,4,3.07,4.57,8.81,3.07,13.32-2.23,6.13-7,10.89-12,14.88-7.49,5.65-16.4,9.87-25.86,10.49-4.41.26-9.25-.89-12.19-4.38-2-2.17-2.63-5.13-3.19-7.9-.58,5.1-3.68,10.2-8.78,11.79-6.31,1.73-13.06.54-19.09-1.68A54.51,54.51,0,0,1,64.3,160.07c-3.42-3.76-6.59-8.44-6.18-13.76-.19-3.89,2.31-7.12,4.83-9.8-4.44,1.4-9.68,1.5-13.35-1.76-6.34-5.6-8.17-14.42-9.06-22.45-.54-9.63.4-20.14,6.2-28.2a12.94,12.94,0,0,1,16.07-4c-2.57-2.39-5.34-5.13-5.54-8.85-1-6.41,2.79-12.26,7.1-16.62,7.81-7.87,18-13.66,29.12-15.18M103.5,85C92,88.15,84.5,100.93,87.33,112.5c2.34,12.21,15.52,20.83,27.66,17.95,12.52-2.19,21.27-15.82,18.14-28.13C130.63,89.43,116,80.84,103.5,85Z"/><path class="cls-4" d="M103.5,85c12.48-4.17,27.13,4.42,29.63,17.31,3.13,12.31-5.62,25.94-18.14,28.13-12.14,2.88-25.32-5.74-27.66-17.95C84.5,100.93,92,88.15,103.5,85Z"/><path class="cls-4" d="M107.63,217.88c4,0,7.94,0,11.92,0q.15,100.89,0,201.78c-4-.06-7.94-.05-11.89,0Q107.6,318.72,107.63,217.88Z"/><path class="cls-4" d="M157.41,243.69c4.56-2.16,9.76-3.82,14.83-2.62,4.41,1.12,6.42,6.12,5.89,10.31-.94,7.66-5.07,14.49-9.74,20.47C165,276,161.21,280,156.5,282.74c-8.27,4.84-17.94,6.88-27.44,7,.11-11.83,3.22-24.23,11.22-33.26A61,61,0,0,1,157.41,243.69Z"/></g></g></svg>