<svg xmlns="http://www.w3.org/2000/svg" viewBox="0 0 132.74 252.53"><defs><style>.cls-1{fill:#a75fa8;stroke:#a75fa8;}.cls-1,.cls-10,.cls-2,.cls-3,.cls-4,.cls-5,.cls-6,.cls-7,.cls-8,.cls-9{stroke-width:0.5px;}.cls-2{fill:#ffd183;stroke:#ffd183;}.cls-3{fill:#ffd182;stroke:#ffd182;}.cls-4{fill:#fed182;stroke:#fed182;}.cls-5{fill:#fffefe;stroke:#fffefe;}.cls-6{fill:#a76490;stroke:#a76490;}.cls-7{fill:#ffd181;stroke:#ffd181;}.cls-8{fill:#becf9e;stroke:#becf9e;}.cls-9{fill:#bed09e;stroke:#bed09e;}.cls-10{fill:#fbfff9;stroke:#fbfff9;}</style></defs><g id="Layer_2" data-name="Layer 2"><g id="Layer_1-2" data-name="Layer 1"><path class="cls-1" d="M72,1.3c7.77-2.57,16.14,0,23.3,3.3,7.87,3.87,15.7,9.48,19.22,17.81,2,4.66.2,9.89-3.28,13.29,4.29-1,9.32-1.11,12.68,2.25,6.79,6.6,8.31,16.72,8.54,25.77-.23,8-1.43,16.91-7.43,22.7-3.16,3.19-7.92,3.22-12,2.34,2.42,2.43,4.84,5.36,4.89,9,.2,6.18-3.77,11.52-8,15.67A49.7,49.7,0,0,1,87,126.2c-4.77,1.07-10.28,1.08-14.31-2-2.22-1.64-3.2-4.3-4.22-6.73-1.52,3.33-2.9,7.22-6.56,8.76-7.4,3.38-15.89,1-23-2-8.46-3.88-17-9.63-20.74-18.49-2.05-4.66-.2-9.86,3.19-13.33-4.52,1.13-9.74.92-13.11-2.7-6-6.33-7.64-15.57-8-24,0-8.28,1.09-17.61,7.17-23.8,3.29-3.51,8.49-3.43,12.82-2.33-2.71-2.14-5.23-5-5.44-8.58-.54-6,3.22-11.41,7.2-15.57A49.9,49.9,0,0,1,45.32,2C50,1,55.37.63,59.47,3.51c2.54,1.72,3.69,4.68,5.07,7.3.89-4.1,3.31-8.13,7.49-9.51M62.24,21.67C60.54,25,60.93,29,61,32.61a75.05,75.05,0,0,0,2.31,17.32l-2.45.52,0-1.54c-2.66-7.06-6.78-13.48-11.21-19.54-1.51-2.09-4.61-4.4-7-2.23-2.2,2.4-.46,5.84.82,8.29C47.36,41.9,51,48.92,57.14,53.58a10.35,10.35,0,0,0-2,2c-4-4.91-9.86-7.59-15.29-10.54-3.45-1.77-7.25-4-11.26-2.87-2.19,1.92-1.33,5.6,1.05,7a81.76,81.76,0,0,0,19.62,9.94c1.53.15,3,.26,4.6.4,0,.86-.07,2.59-.09,3.45-1.24-.38-2.47-.74-3.69-1.09C46,60.42,41.55,61,37.29,60.94c-4.8.24-10.1-.29-14.25,2.59A5.44,5.44,0,0,0,23,67.88c2.55,2.23,6.2,1.52,9.33,1.68,7.43-.26,15.48.68,22.16-3.33a38.92,38.92,0,0,0,1.62,3.64c-1.64.06-3.18.17-4.76.26-6.46,2.16-12.12,6.07-17.79,9.74-2.3,1.73-5.64,4-4.71,7.38,1.25,2.83,4.9,2.25,7.17,1.11a101,101,0,0,0,13-8l1.91.74c-.15,1.34-.32,2.66-.4,4-2.38,5-6,9.82-6.47,15.5.22,3.32,5,3.76,6.73,1.45,3.4-4,5.45-8.94,8-13.49A13.45,13.45,0,0,0,62,85.76c.31,5.68-1,11.6.83,17.1,1.06-7.45-.54-15.14,1.2-22.47a115.66,115.66,0,0,0-.1,22.25c.29,2.36,1.27,6.1,4.37,5.76,1.71.23,2.79-1.24,3.53-2.55l1.14-.57c1.22-6.42-.18-13,.61-19.51,1.22,1.7,1.72,4.66,4.28,4.78,2.63,3.87,4.73,8.37,8.59,11.2,2.58,1.78,6.32-1.07,5.27-4-1.67-5.57-5.35-10.21-8.41-15-2.31-3-4.51-6.61-8.12-8-.82-.68-1.62-1.34-2.39-2l3.06-2.18L77,71.2c3,5.58,9.23,8.2,14.49,11.24,3.74,1.79,7.59,4.56,11.87,4.25,3.84-.67,3.25-5.91.24-7.34-7.38-4.84-15.38-9.52-24.26-10.73L79,69l-1.86-.84Q78,66.52,78.94,65c8.36,4.22,18.14,2.07,27.11,2.18l-.14,0,.63.11c1.59-1.17,4.72-2,4.23-4.58.08-1.73-1.51-3.07-3.06-3.42-5.4-1.38-11-.27-16.45-.18-3.52.34-7.38.47-10.32,2.61l-2.15.62V58.58l3.49-.37C89,56.08,94.81,51.88,100.61,48c2.33-1.66,5.67-4.91,3-7.75-2.54-2.49-6.14-.17-8.68,1.11-6,3.71-12.62,7-16.93,12.68-1,1.71-2-.12-3-.82,4-3.4,6.64-8,9.14-12.59,2-4.12,5-8.18,4.77-13,0-2.75-3.8-3.73-5.6-2C80.77,27.88,79.23,31,77.65,34c-2.11,4.14-4.51,8.2-5.7,12.73-.21,1.19-.38,2.39-.52,3.61l-2.58-.51c1.56-6.24,1.18-12.71,1-19.07-.17-3-.31-6.16-1.73-8.87A3.48,3.48,0,0,0,62.24,21.67Z"/><path class="cls-2" d="M62.24,21.67a3.48,3.48,0,0,1,5.9.18c1.42,2.71,1.56,5.86,1.73,8.87.16,6.36.54,12.83-1,19.07a15.89,15.89,0,0,0-5.59.14A75.05,75.05,0,0,1,61,32.61C60.93,29,60.54,25,62.24,21.67Z"/><path class="cls-3" d="M83.39,25.68c1.8-1.73,5.56-.75,5.6,2,.26,4.78-2.79,8.84-4.77,13-2.5,4.55-5.13,9.19-9.14,12.59l-3.21-2.72c0-1.28,0-2.56.08-3.82,1.19-4.53,3.59-8.59,5.7-12.73C79.23,31,80.77,27.88,83.39,25.68Z"/><path class="cls-4" d="M42.64,27.14c2.39-2.17,5.49.14,7,2.23,4.43,6.06,8.55,12.48,11.21,19.54-.31,2.14-2.28,3.3-3.71,4.67C51,48.92,47.36,41.9,43.46,35.43,42.18,33,40.44,29.54,42.64,27.14Z"/><path class="cls-3" d="M95,41.37c2.54-1.28,6.14-3.6,8.68-1.11,2.62,2.84-.72,6.09-3,7.75-5.8,3.87-11.62,8.07-18.33,10.2-1.54,0-3.07,0-4.57,0,.06-1.4.17-2.8.34-4.18C82.36,48.34,89,45.08,95,41.37Z"/><path class="cls-2" d="M28.64,42.19c4-1.13,7.81,1.1,11.26,2.87C45.33,48,51.2,50.69,55.19,55.6c-.36,1.14-.68,2.29-1,3.46-1.66,0-3.3.08-4.92.06a81.76,81.76,0,0,1-19.62-9.94C27.31,47.79,26.45,44.11,28.64,42.19Z"/><path class="cls-5" d="M71.43,50.3c.14-1.22.31-2.42.52-3.61-.07,1.26-.09,2.54-.08,3.82l3.21,2.72c.94.7,1.94,2.53,3,.82-.17,1.38-.28,2.78-.34,4.18,1.5,0,3,0,4.57,0l-3.49.37v3.69l2.15-.62c-.94.72-1.84,1.46-2.71,2.23,8.09,5.84,18.53,2.19,27.68,3.23l.14,0c-9-.11-18.75,2-27.11-2.18q-.91,1.56-1.77,3.15L79,69c-.67.77-1.41,1.49-2.06,2.25l-1.14-.77-3.06,2.18c.77.67,1.57,1.33,2.39,2l-2.88-.36c0-.15-.08-.45-.11-.6a15.14,15.14,0,0,1-14.91-2.55c-.15.32-.47,1-.63,1.29.11-3-3.36-2.17-5.31-2.27,1.58-.09,3.12-.2,4.76-.26a38.92,38.92,0,0,1-1.62-3.64c-.24-.72-.71-2.14-1-2.85-1.14-.53-2.25-1-3.38-1.5,1.22.35,2.45.71,3.69,1.09,0-.86.07-2.59.09-3.45-1.58-.14-3.07-.25-4.6-.4,1.62,0,3.26,0,4.92-.06.28-1.17.6-2.32,1-3.46a10.35,10.35,0,0,1,2-2c1.43-1.37,3.4-2.53,3.71-4.67l0,1.54,2.45-.52a15.89,15.89,0,0,1,5.59-.14Z"/><path class="cls-3" d="M80.94,61.65c2.94-2.14,6.8-2.27,10.32-2.61,5.47-.09,11-1.2,16.45.18,1.55.35,3.14,1.69,3.06,3.42.49,2.62-2.64,3.41-4.23,4.58l-.63-.11c-9.15-1-19.59,2.61-27.68-3.23C79.1,63.11,80,62.37,80.94,61.65Z"/><path class="cls-3" d="M23,63.53c4.15-2.88,9.45-2.35,14.25-2.59,4.26.05,8.73-.52,12.84.94,1.13.46,2.24,1,3.38,1.5.24.71.71,2.13,1,2.85-6.68,4-14.73,3.07-22.16,3.33-3.13-.16-6.78.55-9.33-1.68A5.44,5.44,0,0,1,23,63.53Z"/><path class="cls-3" d="M79,69l.28-.33c8.88,1.21,16.88,5.89,24.26,10.73,3,1.43,3.6,6.67-.24,7.34-4.28.31-8.13-2.46-11.87-4.25C86.2,79.4,80,76.78,77,71.2,77.62,70.44,78.36,69.72,79,69Z"/><path class="cls-3" d="M33.53,79.87c5.67-3.67,11.33-7.58,17.79-9.74,2,.1,5.42-.77,5.31,2.27-1.59,3.42-4.72,5.74-7.62,8a101,101,0,0,1-13,8c-2.27,1.14-5.92,1.72-7.17-1.11C27.89,83.91,31.23,81.6,33.53,79.87Z"/><path class="cls-6" d="M57.26,71.11a15.14,15.14,0,0,0,14.91,2.55c0,.15.08.45.11.6-.65,6,2.76,11.27,5.55,16.29-2.56-.12-3.06-3.08-4.28-4.78-.79,6.48.61,13.09-.61,19.51l-1.14.57c.44-9.58,1.41-20-3-28.83-2.25-3.18-4.26,1.29-4.84,3.37-1.74,7.33-.14,15-1.2,22.47-1.84-5.5-.52-11.42-.83-17.1a13.45,13.45,0,0,1-3.2,2.87c2-4.52,3.82-9.38,3.08-14.43-5.74.91-8.37,6.66-11.33,11,.08-1.37.25-2.69.4-4L49,80.4c2.9-2.26,6-4.58,7.62-8C56.79,72.07,57.11,71.43,57.26,71.11Z"/><path class="cls-7" d="M50.52,85.17c3-4.31,5.59-10.06,11.33-11,.74,5-1,9.91-3.08,14.43-2.54,4.55-4.59,9.48-8,13.49-1.75,2.31-6.51,1.87-6.73-1.45C44.54,95,48.14,90.2,50.52,85.17Z"/><path class="cls-3" d="M72.28,74.26l2.88.36c3.61,1.42,5.81,5,8.12,8,3.06,4.84,6.74,9.48,8.41,15,1,3-2.69,5.83-5.27,4-3.86-2.83-6-7.33-8.59-11.2C75,85.53,71.63,80.28,72.28,74.26Z"/><path class="cls-2" d="M64,80.39c.58-2.08,2.59-6.55,4.84-3.37,4.37,8.85,3.4,19.25,3,28.83-.74,1.31-1.82,2.78-3.53,2.55-3.1.34-4.08-3.4-4.37-5.76A115.66,115.66,0,0,1,64,80.39Z"/><path class="cls-8" d="M63.89,134.63c-.73-4.18,4.62-2.2,7-2.61.1,29.57,0,59.15,0,88.72-.15,10.51.29,21-.22,31.54L64,252C63.78,212.89,64,173.76,63.89,134.63Z"/><path class="cls-9" d="M80.35,162.68c7-11.78,20.38-18.45,33.65-19.92-1,10.76-4.3,21.78-11.8,29.84-7.38,7.87-17.94,11.91-28.38,13.67-.32-8.28,2.57-16.43,6.53-23.59m22.24-8.62c-2.85,1.08-1.6,5.74,1.47,5.17C107.85,158.93,106.29,152.18,102.59,154.06Z"/><path class="cls-10" d="M102.59,154.06c3.7-1.88,5.26,4.87,1.47,5.17C101,159.8,99.74,155.14,102.59,154.06Z"/></g></g></svg>