<svg xmlns="http://www.w3.org/2000/svg" viewBox="0 0 220.71 171.05"><defs><style>.cls-1{fill:#a862aa;stroke:#a862aa;}.cls-1,.cls-2,.cls-3,.cls-4{stroke-width:0.5px;}.cls-2{fill:#fefeff;stroke:#fefeff;}.cls-3{fill:#6ddbd0;stroke:#6ddbd0;}.cls-4{fill:#6ddbcf;stroke:#6ddbcf;}</style></defs><g id="Layer_2" data-name="Layer 2"><g id="Layer_1-2" data-name="Layer 1"><path class="cls-1" d="M90.82,6.08c9.26-6,21-7,31.59-4.74,11.94,2.49,23.3,8.64,31.25,18,5.6,6.64,9.16,15.58,7.45,24.34-.77,4.79-3.3,9-5.81,13,10.61-5.72,23.12-9.39,35.11-6.24,11.69,2.77,20.68,12.29,25.06,23.19,3.93,10,6.8,21.28,3.64,31.9-2.32,8-8.7,14.1-16,17.72-11.07,5.59-23.5,7.52-35.67,9-19.08,2.08-38.23,4.55-57.45,3.54q-20.77-13.47-41.36-27.2A65.62,65.62,0,0,1,69,98c4.23-23,.32-46.76,6.28-69.48,2.26-9,7.61-17.39,15.53-22.41m16,15c-10.69,3.1-18,14.42-16.6,25.44,1,11.48,11.52,21.21,23.09,21.05,11.21.67,21.9-8,23.91-19A23.83,23.83,0,0,0,106.84,21m65.08,47.21a23.83,23.83,0,0,0,9.73,46.65c12.71-2.08,21.86-15.77,18.82-28.32C198.16,73.93,184.4,65.11,171.92,68.25Z"/><path class="cls-2" d="M106.84,21a23.83,23.83,0,0,1,30.4,27.52c-2,11-12.7,19.64-23.91,19-11.57.16-22.08-9.57-23.09-21.05-1.44-11,5.91-22.34,16.6-25.44m2.93,7c-9.64,2-15,13.94-10.68,22.67,3.32,7.4,12.65,11.35,20.26,8.46,6.76-2.33,11.6-9.48,10.75-16.67C129.89,32.7,119.06,25.34,109.77,28.07Z"/><path class="cls-3" d="M109.77,28.07c9.29-2.73,20.12,4.63,20.33,14.46.85,7.19-4,14.34-10.75,16.67-7.61,2.89-16.94-1.06-20.26-8.46C94.8,42,100.13,30.11,109.77,28.07Z"/><path class="cls-2" d="M171.92,68.25c12.48-3.14,26.24,5.68,28.55,18.33,3,12.55-6.11,26.24-18.82,28.32a23.83,23.83,0,0,1-9.73-46.65m-.14,7.84a16.49,16.49,0,0,0-10.64,18.53,16.66,16.66,0,0,0,17.3,13.29c9.84-.58,17.48-11.42,14.43-20.86C190.67,78.28,180.23,72.79,171.78,76.09Z"/><path class="cls-4" d="M2.32,78.65c-4.68-2.71-.62-10.27,4.15-9.33C10,70,13.06,72.08,16.05,74,33.52,85.66,51.13,97.1,68.67,108.65Q89.23,122.4,110,135.85q11.81,7.72,23.59,15.48c3.68,2.51,7.94,4.78,10.13,8.85,1.7,2.9.62,6.75-1.73,9a8.55,8.55,0,0,1-7.64,1.28c-5.32-1.26-9.76-4.58-14.08-7.75Q61.32,120.64,2.32,78.65Z"/><path class="cls-3" d="M171.78,76.09c8.45-3.3,18.89,2.19,21.09,11,3,9.44-4.59,20.28-14.43,20.86a16.66,16.66,0,0,1-17.3-13.29A16.49,16.49,0,0,1,171.78,76.09Z"/></g></g></svg>