<svg xmlns="http://www.w3.org/2000/svg" viewBox="0 0 348.36 997.93"><defs><style>.cls-1{fill:#e04086;stroke:#e04086;}.cls-1,.cls-2,.cls-3,.cls-4{stroke-width:0.5px;}.cls-2{fill:#fffdff;stroke:#fffdff;}.cls-3{fill:#fff;stroke:#fff;}.cls-4{fill:#54c4c6;stroke:#54c4c6;}</style></defs><g id="Layer_2" data-name="Layer 2"><g id="Layer_1-2" data-name="Layer 1"><path class="cls-1" d="M151.63,3.65A76,76,0,0,1,200,4.78c10.18,3.8,19.77,10.88,24,21.16,3.69,8.42,2.62,17.94.64,26.65,4-6.83,9-13.4,16.22-17.05,10.51-5.76,23.48-4.43,34.12.29A75.26,75.26,0,0,1,312,72c5,10.56,6.74,23.43,1.53,34.25-3.38,7.39-9.89,12.62-16.55,16.95,6.21-.67,12.48-2.28,18.71-.83,10.39,1.61,19,9,24.12,17.91,7.37,12.92,9.43,28.35,7.83,43-1.4,11.53-5.24,23.17-13.06,32a33,33,0,0,1-22,11.1c-5.76.66-11.45-.76-17.05-1.9,7.71,4.29,15,10.28,18.46,18.61,4.93,11.24,2.55,24.27-2.8,34.92a76.37,76.37,0,0,1-32.87,33c-10.27,5.22-22.72,7.79-33.78,3.52-9.35-3.48-16-11.54-20.59-20.12,4,11.25,3.8,24.77-3.61,34.61-8.93,12-24.16,17.31-38.55,18.7-5,.22-10,.25-14.95,0-11.62-1-23.34-4.71-32.48-12.15a33.06,33.06,0,0,1-12.44-26.29c-.15-4.45,1.07-8.75,1.63-13.12-4.74,8.35-11.74,16-21.16,18.88-12.73,4.15-26.5-.19-37.48-7-14.2-9-26-22.61-31.12-38.77-3.45-10.74-2.67-23.39,4.38-32.55,3.5-5.12,8.86-8.35,13.71-12-7.74,1.85-16,2.76-23.66.08-11.64-3.76-19.64-14.34-23.64-25.48a75.26,75.26,0,0,1,1.06-53c4.26-10.22,12.12-19.67,23-23,8.09-2.71,16.8-1.48,24.85.74-8.65-4.54-16.61-11.48-19.85-21-4-11.41-1.15-24.06,4.43-34.43A75.72,75.72,0,0,1,73.78,35.67c10.55-4.59,23.32-5.81,33.73-.16,7,3.56,11.95,10,16,16.51-1.76-8.33-2.8-17.29.56-25.38,4.54-11.76,15.88-19.36,27.52-23m14.24,49.13a120.9,120.9,0,0,0-49.28,15.48A121.94,121.94,0,0,0,70.8,234.15c17,30.4,47.69,52.81,81.92,59.52A121.93,121.93,0,0,0,217.48,59.16C201,53.18,183.28,51.48,165.87,52.78Z"/><path class="cls-2" d="M165.87,52.78c17.41-1.3,35.14.4,51.61,6.38a121.93,121.93,0,0,1-64.76,234.51C118.49,287,87.83,264.55,70.8,234.15A121.94,121.94,0,0,1,116.59,68.26a120.9,120.9,0,0,1,49.28-15.48m0,6.94a114.65,114.65,0,0,0-53.56,19.37c-25.71,17.4-43.9,45.56-48.8,76.25A115.11,115.11,0,0,0,82,238.93c20.8,30.86,57.34,50.56,94.65,50.17,36.6.61,72.69-18.07,93.8-47.89A115,115,0,0,0,165.9,59.72Z"/><path class="cls-1" d="M165.9,59.72A115,115,0,0,1,270.4,241.21c-21.11,29.82-57.2,48.5-93.8,47.89-37.31.39-73.85-19.31-94.65-50.17a115.11,115.11,0,0,1-18.41-83.59c4.9-30.69,23.09-58.85,48.8-76.25A114.65,114.65,0,0,1,165.9,59.72m-10.57,53.14c-2.41,3.34-2.1,7.6-2.05,11.5a13.87,13.87,0,0,0-10.7-7.13c-6.88-.48-13.33,3.33-18,8.11-4.49,4.78-8.15,11.21-7.26,18,.56,4.71,4.06,8.43,8.1,10.61-4.25-1-9.06-1.19-12.76,1.49-6,4.17-8.13,11.95-7.94,18.92-.11,6.93,2.11,14.76,8.2,18.74,3.4,2.4,7.74,2.13,11.68,1.68-3.66,2.44-6.91,6-7.33,10.61-.7,7.22,3.4,14,8.47,18.78,5,4.61,11.87,8.15,18.81,6.66,3.81-.76,6.55-3.7,8.86-6.6-.42,4.31-.25,9.09,2.77,12.54,4.95,5.68,13.08,7.4,20.31,6.93,6.61-.51,14-3.09,17.24-9.33,1.86-3.37,1.46-7.32,1.08-11,2.07,4.06,6,7.34,10.69,7.7,6.65.71,12.87-2.88,17.54-7.29,4.84-4.78,8.76-11.38,8.09-18.4-.44-4.66-3.82-8.3-7.57-10.74,4,.59,8.35.91,11.82-1.48,5.91-3.81,8.07-11.24,8.44-17.89.09-7.1-1.75-15-7.65-19.52-3.73-3.1-8.9-2.5-13.35-1.85,5.13-2.35,8.86-7.74,8.39-13.49-.63-7.48-5.43-14-11.26-18.46-4.83-3.58-11.29-6.07-17.24-4.06-3.43,1-5.78,3.82-7.9,6.52.53-3.88.65-8.16-1.72-11.5-4-6-11.59-8.28-18.48-8.3C167.52,104.53,159.48,106.63,155.33,112.86Z"/><path class="cls-3" d="M155.33,112.86c4.15-6.23,12.19-8.33,19.29-8.24,6.89,0,14.48,2.31,18.48,8.3,2.37,3.34,2.25,7.62,1.72,11.5,2.12-2.7,4.47-5.52,7.9-6.52,5.95-2,12.41.48,17.24,4.06,5.83,4.43,10.63,11,11.26,18.46.47,5.75-3.26,11.14-8.39,13.49,4.45-.65,9.62-1.25,13.35,1.85,5.9,4.52,7.74,12.42,7.65,19.52-.37,6.65-2.53,14.08-8.44,17.89-3.47,2.39-7.87,2.07-11.82,1.48,3.75,2.44,7.13,6.08,7.57,10.74.67,7-3.25,13.62-8.09,18.4-4.67,4.41-10.89,8-17.54,7.29-4.66-.36-8.62-3.64-10.69-7.7.38,3.66.78,7.61-1.08,11-3.22,6.24-10.63,8.82-17.24,9.33-7.23.47-15.36-1.25-20.31-6.93-3-3.45-3.19-8.23-2.77-12.54-2.31,2.9-5,5.84-8.86,6.6-6.94,1.49-13.83-2-18.81-6.66-5.07-4.81-9.17-11.56-8.47-18.78.42-4.57,3.67-8.17,7.33-10.61-3.94.45-8.28.72-11.68-1.68-6.09-4-8.31-11.81-8.2-18.74-.19-7,2-14.75,7.94-18.92,3.7-2.68,8.51-2.51,12.76-1.49-4-2.18-7.54-5.9-8.1-10.61-.89-6.78,2.77-13.21,7.26-18,4.66-4.78,11.11-8.59,18-8.11a13.87,13.87,0,0,1,10.7,7.13C153.23,120.46,152.92,116.2,155.33,112.86Z"/><path class="cls-4" d="M166.81,347.73c5,.23,10,.2,14.95,0,.25,94.93,0,189.85.14,284.78,11.57-14.68,25.76-27,40.76-38.1,11-8,22.33-15.65,34.67-21.45a194.25,194.25,0,0,1,72.16-18.27c-7.56,14.89-17.6,28.44-28.76,40.83a171.45,171.45,0,0,1-37.56,31.41c-17.8,11-36.52,21-56.61,27.14-7.94,2.19-16.31,4.4-24.57,2.74-.33,53.51,0,107-.14,160.55q0,90.13,0,180.26c-5,.1-10,.14-15.05,0-.77-18.75.12-37.52-.38-56.26.16-14.31.62-28.63,0-42.94.32-25.36-.25-50.71.38-76.06-.81-32,0-64-.39-96,0-5.33.61-10.65.09-16,0-11.34.21-22.68-.08-34,.74-9-.51-18,.37-27-.6-13.65-.25-27.33-.13-41-.24-40,0-80-.22-120,0-21,.25-42,0-63,.78-8.68-.36-17.37,0-26.06-.33-7.32.71-14.64.11-21.94C166.05,367.45,166.86,357.59,166.81,347.73Z"/><path class="cls-4" d="M2.54,428c18.33.71,36.44,4.83,53.79,10.71a180.87,180.87,0,0,1,46.57,24.4c16,11.3,31.47,23.71,44,38.88,4.19,5.49,8.55,11.33,9.76,18.3a8,8,0,0,1-5,9.17c-6.15,2.27-12.82,1-19-.26-14.84-3.39-28.82-9.72-42.31-16.61-16.54-8.86-32.84-18.53-46.66-31.34C27.13,466,12.85,448,2.54,428Z"/><path class="cls-4" d="M330.6,429.2c4.71-.42,9.4-1.37,14.15-1.14-7.72,15.31-18.12,29.16-29.63,41.82a172.84,172.84,0,0,1-37.2,30.72c-18.1,11.2-37.19,21.17-57.67,27.24-7.75,1.87-16.05,4.31-23.94,1.82a7.91,7.91,0,0,1-5.75-8.34c.8-7.11,5.16-13.09,9.34-18.62,9.37-11.61,20.64-21.55,32.39-30.69,13.71-10.35,27.9-20.33,43.67-27.3A201.44,201.44,0,0,1,330.6,429.2Z"/><path class="cls-4" d="M2.66,554.68c21.94,1.05,43.62,6.39,63.92,14.67,16.12,6.51,30.72,16.14,44.63,26.45,12.79,9.67,25.18,20.1,35.38,32.55,4.21,5.4,8.52,11.11,10,17.95,1.08,4-1,8.63-5,9.94-6.23,2.16-13,.9-19.26-.39-15.34-3.62-29.79-10.22-43.71-17.49-15.87-8.55-31.47-18-44.75-30.25A200.81,200.81,0,0,1,8.47,565.34,69.22,69.22,0,0,1,2.66,554.68Z"/><path class="cls-4" d="M279.45,706.2a201.22,201.22,0,0,1,65.14-15.38c-2.27,6.35-6.47,11.8-10,17.49a193.72,193.72,0,0,1-44.68,47.29,286.77,286.77,0,0,1-33.75,20.46,199,199,0,0,1-36.55,15c-6.8,1.8-13.92,3.39-21,2.29-3.58-.56-7.74-2.89-7.81-7-.71-6.48,3.14-12.16,6.56-17.28,8.65-11.88,19.68-21.78,31-31C244.21,725.71,260.82,714,279.45,706.2Z"/><path class="cls-4" d="M5.37,696.51a16.87,16.87,0,0,1-2.54-5.76c23.28,1.77,46.39,7.1,67.75,16.64,14.74,6.4,28.11,15.46,41,25,13.49,10.3,26.65,21.36,37,34.87,3.75,5.12,7.43,10.72,8.23,17.17a8.19,8.19,0,0,1-5.9,8.33c-7,2.06-14.42.44-21.33-1.21-19.61-5.31-37.87-14.6-55.28-24.91C45.46,750.13,22,725.13,5.37,696.51Z"/><path class="cls-4" d="M7.69,846.3c-1.71-3.13-4-6-4.85-9.54a200.26,200.26,0,0,1,68.56,16.9C87,860.53,101,870.32,114.49,880.49c12.79,10,25.32,20.75,35.05,33.89,3.33,4.79,6.59,10,7.29,15.91a8.15,8.15,0,0,1-6,8.39c-7.32,2.21-15,.21-22.24-1.51-20.83-5.84-40.15-16-58.53-27.23C44.34,894.4,23.3,871.83,7.69,846.3Z"/><path class="cls-4" d="M246.2,870.82c28.54-20.58,63.25-31.65,98.19-34.07a17.65,17.65,0,0,1-2.54,5.88,203.74,203.74,0,0,1-37.8,47.21c-13.91,13-30.43,22.81-47.16,31.74-14.07,7.18-28.67,13.78-44.22,17-6.22,1-13.31,2.26-19-1.3-3.7-2.33-3.29-7.35-2.35-11,2.19-6.54,6.44-12.13,10.79-17.38C214.87,894.12,230.25,881.9,246.2,870.82Z"/></g></g></svg>