<svg xmlns="http://www.w3.org/2000/svg" viewBox="0 0 263.06 342.62"><defs><style>.cls-1{fill:#54c4c6;stroke:#54c4c6;}.cls-1,.cls-2,.cls-3{stroke-width:0.5px;}.cls-2{fill:#feffff;stroke:#feffff;}.cls-3{fill:#226995;stroke:#226995;}</style></defs><g id="Layer_2" data-name="Layer 2"><g id="Layer_1-2" data-name="Layer 1"><path class="cls-1" d="M84.76,11.75c1.16-3.67,1-7.58,1.35-11.35,6,3.37,7.75,10.7,7.65,17.1.16,1.12-.47,3.83,1.66,3.25,16.56-2.17,33.86-1.61,49.68,4.19a70.33,70.33,0,0,1,34.7,27.18c10.43,15.47,15.19,34,17.27,52.35,2.82,28.82,3.76,58.26,12.64,86.06,3.17-5,6.85-9.76,11.94-12.89a31.07,31.07,0,0,1,27.76-3.18c5.54,2.09,7,8.65,7.36,13.92.35,4.11-2,7.9-2,11.9,2.64,4.29,7.14,7.71,7.71,13.08,1.69,6.09-2.94,11.3-7.55,14.53-6.77,4.86-15.6,5.77-23.56,3.9,2.09,5.12,7.18,8.07,11.23,11.53,3.85,3.11,7.95,6,11.27,9.72,1.2.93-.13,2.11-.91,2.73-6.5,5.14-14.57,7.6-22.48,9.6-28.18,6.39-57,10.8-86,10.29-6.61-.27-13.19-1-19.8-1.12-1.72,13.9-2.21,27.92-3.06,41.89.15,1.22-.62,3.34,1,3.92,4.37,2.26,9.7.54,14.05,2.78l1,1.93-3.37.75c1.26,1.92,4.56,4.62,2.21,6.88-4.38,1.17-8.78-.62-13.08-1.24,1.62,3.6,3.64,7,4.88,10.83-7.71-1.57-10.93-9.82-13.63-16.29-4.25-.42-8.54-1-12.76-.09-3,4.12-5.06,9.36-10.07,11.5-.43-2.83,1-5.41,1.72-8-3.91.91-7.5,2.75-11.12,4.41.2-.57.58-1.73.77-2.3l-1.94-.91c2.67-4.59,8.54-5.95,11.07-10.52a50.64,50.64,0,0,0-10.94.08c.3-.58.89-1.75,1.18-2.34,4.38-2.76,9.89-1.52,14.76-1.24-1.1-13.08-3-26.09-4.33-39.15-.66-4.24-.71-8.6-1.86-12.72C76.91,257.23,62.88,248.9,50.83,238,26,216.6,8.16,186.87,2.52,154.45c-4.25-21.66-2.66-44.61,5.92-65,11.63-28.09,35.34-50.29,63-62.34-1.75-6.4-4.32-12.81-3.37-19.58,4.17,2.51,7,8,12.42,7.81,2.25.41,3.54-1.79,4.26-3.55m12,27c-4.21,2.3-4.37,9.19-.31,11.72,4.07,2.37,10.43.1,10.65-5,1-5.45-5.78-9.65-10.34-6.69m-3.32,96.82a108.15,108.15,0,0,0-3.13,30.83c.52,8.72,2.57,18,8.57,24.62,10.8,11.23,27.42,17.53,42.85,13.78a31.47,31.47,0,0,0,22.75-21.32c4.67-15.61-1.71-32.84-13.21-43.82-5.17-5.23-12.44-7.73-19.6-8.59-12.89-1.44-25.89.84-38.23,4.5M98.76,267.9c1.09,11.85,2.67,23.66,3.43,35.55.83,5.19.27,10.56,1.68,15.67,3.87-1.17,8-.3,11.86-1.1.08-15.07,1.46-30.11,1.74-45.16C111,272.12,105.25,268.55,98.76,267.9Z"/><path class="cls-2" d="M96.79,38.77c4.56-3,11.33,1.24,10.34,6.69-.22,5.13-6.58,7.4-10.65,5C92.42,48,92.58,41.07,96.79,38.77Z"/><path class="cls-3" d="M93.47,135.59c12.34-3.66,25.34-5.94,38.23-4.5,7.16.86,14.43,3.36,19.6,8.59,11.5,11,17.88,28.21,13.21,43.82a31.47,31.47,0,0,1-22.75,21.32c-15.43,3.75-32-2.55-42.85-13.78-6-6.67-8-15.9-8.57-24.62A108.15,108.15,0,0,1,93.47,135.59Z"/><path class="cls-2" d="M98.76,267.9c6.49.65,12.22,4.22,18.71,5-.28,15.05-1.66,30.09-1.74,45.16-3.82.8-8-.07-11.86,1.1-1.41-5.11-.85-10.48-1.68-15.67C101.43,291.56,99.85,279.75,98.76,267.9Z"/></g></g></svg>