<svg xmlns="http://www.w3.org/2000/svg" viewBox="0 0 262.94 342.75"><defs><style>.cls-1{fill:#f27aa8;stroke:#f27aa8;}.cls-1,.cls-2,.cls-3{stroke-width:0.5px;}.cls-2{fill:#fffeff;stroke:#fffeff;}.cls-3{fill:#d82871;stroke:#d82871;}</style></defs><g id="Layer_2" data-name="Layer 2"><g id="Layer_1-2" data-name="Layer 1"><path class="cls-1" d="M169.47,13.28C170,8.2,172.21,3,176.88.4c.46,4,.05,8.13,1.6,11.89.75,2,2.79,4,5.09,3.16,4.8-.88,7.29-5.57,11.33-7.82a35.48,35.48,0,0,1-3.77,18.93C205.29,33.27,218.71,41.8,229.8,53c19.42,19,31.67,45.21,32.79,72.41,1.48,36.92-13,73.85-38.19,100.76A170.59,170.59,0,0,1,173,263.82c-1.91.67-1.82,2.86-2,4.52-1.69,16.11-4,32.16-5.36,48.31,4.59-.5,9.52-1.34,13.9.61,1.23.41,1.6,1.74,2.2,2.77-3.8-.29-7.66-.64-11.4.29,3.24,4.1,8.8,5.76,11.28,10.56l-1.91.4c.22.62.66,1.85.87,2.47a97.15,97.15,0,0,0-11.47-4.63c.87,2.67,2.42,5.29,2,8.21-5.2-2-7.11-7.45-10.21-11.54-4.22-.15-9.08-1.11-12.89.79-2.69,6.37-6,14-13.39,15.83,1.12-3.91,3.25-7.39,4.89-11.06-4.73.51-10.39,3.69-14.59.11a32.35,32.35,0,0,1,3.69-5.61,19,19,0,0,1-4-1.52c4.27-3.81,10.35-1.71,15.25-3.72,2.29-.78,1.29-3.58,1.42-5.36-1-13.6-1.27-27.26-3.07-40.78-36.24,3.53-72.73-1.31-108-9.69-6.91-1.83-13.87-4.21-19.63-8.56-1-.85-2.89-1.93-1.38-3.26,5.87-6.53,13.8-10.78,19.84-17.14a13.84,13.84,0,0,0,2.66-4.1c-8.47,2.26-18,.78-24.88-4.72-3.52-2.86-7.19-6.79-6.52-11.71,0-5.36,3.59-9.56,6.86-13.39,2.65-2.44-.06-5.76-.41-8.58C5.56,187,6.49,178.84,12.3,175a30.63,30.63,0,0,1,26.52,1.14c6.24,3.15,10.67,8.65,14.59,14.26,8.44-27.23,9.69-55.9,12.34-84.09,2-19.93,7.18-40.2,19.12-56.6A70.15,70.15,0,0,1,115.21,26c13.7-5.62,28.76-7,43.44-6.26,3.35.17,6.63,1.26,10,1,1-2.27.32-5,.8-7.39M159,38.87c-4.21,2.47-4.17,9.4.15,11.74,4.37,3,11.12-1,10.33-6.33.13-5.07-6.41-8.34-10.48-5.41m-43.88,98C100,148.39,91.68,170.7,100.5,188.44c4.29,8.95,13.28,15.24,23,16.86a44,44,0,0,0,28.18-4.93c8-4.36,15.63-10.66,18.36-19.69,4.59-14.64,2.9-30.49-.61-45.18A130.74,130.74,0,0,0,147.56,131c-11-.94-23.08-.74-32.49,5.81M145.33,273c.9,15,1.64,30,1.93,45,4,.69,8.32.15,12.44.85.81-17.07,2.89-34.05,4.55-51.05C157.7,268.64,151.84,272,145.33,273Z"/><path class="cls-2" d="M159,38.87c4.07-2.93,10.61.34,10.48,5.41.79,5.31-6,9.3-10.33,6.33C154.78,48.27,154.74,41.34,159,38.87Z"/><path class="cls-3" d="M115.07,136.84c9.41-6.55,21.49-6.75,32.49-5.81a130.74,130.74,0,0,1,21.87,4.47c3.51,14.69,5.2,30.54.61,45.18-2.73,9-10.37,15.33-18.36,19.69a44,44,0,0,1-28.18,4.93c-9.72-1.62-18.71-7.91-23-16.86C91.68,170.7,100,148.39,115.07,136.84Z"/><path class="cls-2" d="M145.33,273c6.51-1,12.37-4.38,18.92-5.18-1.66,17-3.74,34-4.55,51.05-4.12-.7-8.43-.16-12.44-.85C147,303,146.23,288,145.33,273Z"/></g></g></svg>