<svg xmlns="http://www.w3.org/2000/svg" viewBox="0 0 283.49 748.69"><defs><style>.cls-1{fill:#d82871;stroke:#d82871;}.cls-1,.cls-2,.cls-3,.cls-4,.cls-5,.cls-6,.cls-7,.cls-8{stroke-width:0.5px;}.cls-2{fill:#f27aa8;stroke:#f27aa8;}.cls-3{fill:#d52970;stroke:#d52970;}.cls-4{fill:#fff;stroke:#fff;}.cls-5{fill:#dd447f;stroke:#dd447f;}.cls-6{fill:#d0457d;stroke:#d0457d;}.cls-7{fill:#fd91c6;stroke:#fd91c6;}.cls-8{fill:#57c4c9;stroke:#57c4c9;}</style></defs><g id="Layer_2" data-name="Layer 2"><g id="Layer_1-2" data-name="Layer 1"><path class="cls-1" d="M155.47,14.65A39.41,39.41,0,0,1,182.64.4c19.68-1.57,39.81,9.69,48.72,27.33a39.66,39.66,0,0,1,2.49,29c-4.78,15.84-17.49,27.47-30.47,36.9,9.66-4.22,19.51-8.52,30.12-9.58,10.42-1.37,21.56.3,30.44,6.18,8,5.17,13.71,13.39,16.66,22.37,5.1,15.53,2.89,33.78-7.29,46.81-7.26,9.35-19,14.74-30.72,15-13.69.69-26.94-3.9-39.18-9.6,14.1,9.62,28.24,21.8,32.82,38.94,4.18,14.7-1.65,30.84-12.72,41-14.18,13.73-37.51,19.52-55.2,9.16-15.39-9-22.15-27.11-24.65-43.94.85-.91,1.71-1.8,2.57-2.68,3.11,10.13,9.6,19.71,19.37,24.39,12.31,5.69,27.2,2.87,37.93-5,9.49-6.78,16.43-18.09,15.74-30-.24-9.82-5.54-18.74-12.11-25.72-3.84-4.24-8.65-7.38-12.82-11.24,8.17,2.89,16.41,6.17,25.2,6.35,9.94.56,20.42-2.76,27.18-10.31,12.64-14.08,12.94-37.54.68-51.95a32.12,32.12,0,0,0-21.89-11.12c-11.23-1.24-22,3-32.2,7,4.94-4.45,10.37-8.43,14.57-13.64,7-8.26,11.44-19.43,9.29-30.33-4.33-22.14-31-36.82-52-28.28-9,3.76-15.72,11.81-19.12,20.84C142.81,56.33,141.68,65,141,73.67c-.8-11-3-22.18-8.88-31.64a33.46,33.46,0,0,0-18.33-14.74C93.25,21.15,68.9,35.55,64.74,56.73c-2.28,11.18,2.5,22.61,9.88,30.89C79.14,93.09,85,97.2,90.53,101.54c-7.74-3.11-15.64-6.19-24-6.9C56,93.46,44.61,96.45,37.24,104.36,25,117.34,24,138.81,33.68,153.53a31.92,31.92,0,0,0,21.85,14c7.92,1.29,16,0,23.58-2.52-.5,1-1,2-1.55,3-8.91,4-18.24,7.44-28,8.53-12,1.58-25.07-1.34-34.29-9.54-18.77-16.9-20-49.18-3.28-67.91,7.15-8.07,17.8-12.56,28.5-13,13.64-.73,27,3.7,39.15,9.45C74.43,91.38,68.79,87.77,64,83.08,57.2,76.53,51.27,68.74,48.19,59.7a39.56,39.56,0,0,1,2.57-31.82A51.65,51.65,0,0,1,95.5,1.34a39.41,39.41,0,0,1,27.32,11.07C135.7,25,139.39,43.5,141.09,60.71,141.6,44.55,145,27.46,155.47,14.65Z"/><path class="cls-2" d="M165.21,27.42c20.95-8.54,47.63,6.14,52,28.28,2.15,10.9-2.29,22.07-9.29,30.33-4.2,5.21-9.63,9.19-14.57,13.64,10.24-4,21-8.23,32.2-7A32.12,32.12,0,0,1,247.4,103.8c12.26,14.41,12,37.87-.68,52-6.76,7.55-17.24,10.87-27.18,10.31-8.79-.18-17-3.46-25.2-6.35,4.17,3.86,9,7,12.82,11.24,6.57,7,11.87,15.9,12.11,25.72.69,11.93-6.25,23.24-15.74,30-10.73,7.83-25.62,10.65-37.93,5-9.77-4.68-16.26-14.26-19.37-24.39-2.18-6.37-2.36-13.16-4-19.64A165.86,165.86,0,0,1,139.68,206c-3.05,10.69-9.23,21.26-19.57,26.26-21.56,10.38-50.33-5.28-54-28.75C64.11,189.77,72,176.74,82,168a87.29,87.29,0,0,0,8.83-7.44c-4,1.24-7.84,2.91-11.7,4.5-7.55,2.48-15.66,3.81-23.58,2.52a31.92,31.92,0,0,1-21.85-14C24,138.81,25,117.34,37.24,104.36,44.61,96.45,56,93.46,66.5,94.64c8.39.71,16.29,3.79,24,6.9C85,97.2,79.14,93.09,74.62,87.62c-7.38-8.28-12.16-19.71-9.88-30.89,4.16-21.18,28.51-35.58,49.09-29.44A33.46,33.46,0,0,1,132.16,42c5.88,9.46,8.08,20.66,8.88,31.64.64-8.63,1.77-17.34,5.05-25.41,3.4-9,10.09-17.08,19.12-20.84M137.85,77.14a50.63,50.63,0,0,0-37.36,27.57c-8.3,16.53-6.47,37.58,4.72,52.33a50.48,50.48,0,0,0,83.11-57.23C177.94,83.13,157.21,73.89,137.85,77.14Z"/><path class="cls-3" d="M137.85,77.14c19.36-3.25,40.09,6,50.47,22.67A50.48,50.48,0,0,1,105.21,157c-11.19-14.75-13-35.8-4.72-52.33a50.63,50.63,0,0,1,37.36-27.57m3.7,4.66c-20.45,1.53-38.33,18.59-40.72,39a45.52,45.52,0,0,0,20.82,44.75c15.24,9.8,36.32,9.07,50.85-1.74,16.12-11.32,23-33.74,16-52.16C182,92.51,161.6,79.55,141.55,81.8Z"/><path class="cls-4" d="M141.55,81.8c20-2.25,40.48,10.71,47,29.81,7,18.42.1,40.84-16,52.16-14.53,10.81-35.61,11.54-50.85,1.74a45.52,45.52,0,0,1-20.82-44.75C103.22,100.39,121.1,83.33,141.55,81.8Z"/><path class="cls-5" d="M79.11,165c3.86-1.59,7.71-3.26,11.7-4.5A87.29,87.29,0,0,1,82,168l-3,.26L77.56,168C78.1,167,78.61,166,79.11,165Z"/><path class="cls-1" d="M79,168.21l3-.26c-10,8.79-17.87,21.82-15.89,35.6,3.69,23.47,32.46,39.13,54,28.75,10.34-5,16.52-15.57,19.57-26.26.46,2.45,1,4.88,1.46,7.37-2.1,15.93-9.06,32.78-23.42,41.35-14.85,9-34.32,6.29-48.36-3-8.67-5.66-15.84-13.95-19.21-23.82a39.22,39.22,0,0,1,.25-26.27c3.38-9.66,9.88-17.89,17.35-24.76C71.32,173.81,74.75,170.4,79,168.21Z"/><path class="cls-6" d="M142.26,187.62c1.61,6.48,1.79,13.27,4,19.64-.86.88-1.72,1.77-2.57,2.68,0-.67-.1-2-.13-2.69-.08-2-.27-3.93-.47-5.86a27.76,27.76,0,0,0-1.58,9.41c-.08.65-.25,2-.34,2.61-.41-2.49-1-4.92-1.46-7.37A165.86,165.86,0,0,0,142.26,187.62Z"/><path class="cls-7" d="M141.48,210.8a27.76,27.76,0,0,1,1.58-9.41c.2,1.93.39,3.88.47,5.86A35.06,35.06,0,0,1,141.48,210.8Z"/><path class="cls-8" d="M133.92,254c5.49.05,11-.22,16.49.08,1.11,2.23.24,5.14.5,7.65q0,213,0,426c-.13,20.25.27,40.52-.2,60.77-5.61-.11-11.22,0-16.82-.08Q133.94,501.16,133.92,254Z"/><path class="cls-8" d="M211.83,350a134,134,0,0,1,41.75-13,122.62,122.62,0,0,1-14.89,53.82c-8.53,15.86-22.26,28.56-38.2,36.78A128,128,0,0,1,157,441.24c1.51-21.15,7.41-42.31,19.06-60.16C184.83,367.66,197.55,357.12,211.83,350Z"/></g></g></svg>