<svg xmlns="http://www.w3.org/2000/svg" viewBox="0 0 272.93 523.94"><defs><style>.cls-1{fill:#a052a1;stroke:#a052a1;}.cls-1,.cls-2,.cls-3,.cls-4,.cls-5,.cls-6,.cls-7{stroke-width:0.5px;}.cls-2{fill:#fffeff;stroke:#fffeff;}.cls-3{fill:#ee8142;stroke:#ee8142;}.cls-4{fill:#fffffe;stroke:#fffffe;}.cls-5{fill:#2d7295;stroke:#2d7295;}.cls-6{fill:#2d7294;stroke:#2d7294;}.cls-7{fill:#2d7395;stroke:#2d7395;}</style></defs><g id="Layer_2" data-name="Layer 2"><g id="Layer_1-2" data-name="Layer 1"><path class="cls-1" d="M110.64,36.14c9.1-11.86,18.18-23.74,27.12-35.73,9.17,11.86,17.77,24.16,26.71,36.2C178.3,30.87,192.06,25,205.92,19.28q2.51,22.3,4.85,44.62c14.86,2,29.76,3.74,44.63,5.7-5.93,13.78-12.3,27.38-18,41.26,9.24,6.9,18.38,14,27.58,20.91,2.46,2.16,5.7,3.62,7.58,6.33-11.71,9-23.83,17.57-35.75,26.34,5.67,13.91,11.75,27.65,17.31,41.6-14.91,1.47-29.8,3.15-44.68,4.83-1.72,14.76-3.79,29.48-5.5,44.24-14-5.3-27.43-11.93-41.19-17.78-9.16,11.86-18.15,23.87-27.25,35.78-9.78-12.25-19.62-24.44-29.34-36.73-12.94,5.82-25.7,12-38.68,17.75-1.73-14.89-3.12-29.82-5-44.68-14.82-1.75-29.61-3.67-44.41-5.58Q27,183.29,36.14,162.81C24.28,153.71,12.4,144.63.41,135.7,12.23,126.49,24.58,118,36.57,109,30.93,95.1,24.77,81.44,19.39,67.48,34.24,65.86,49.11,64.35,64,62.55c1.82-14.82,3.76-29.63,5.58-44.46,13.75,5.91,27.41,12,41.11,18.05m9,34.9C110.8,67,101.84,63.22,93,59.2c-1.6,9.69-2.43,19.48-3.88,29.19-9.71,1-19.44,2-29.13,3.21,3.81,8.93,7.44,18,11.38,26.83-7.8,5.95-15.73,11.7-23.7,17.4,7.62,6.22,15.72,11.84,23.36,18-3.89,8.92-8.22,17.68-11.59,26.81,9.66,1.1,19.29,2.41,28.92,3.67,1,9.64,2.17,19.27,3.11,28.92,8.57-3.39,16.77-7.66,25.19-11.4,6.81,7.63,12.35,16.42,19.62,23.59,5.71-7.7,11.64-15.22,17.3-23,9.1,3.64,17.91,8,27,11.67,1.23-9.6,2.6-19.18,3.63-28.8,9.71-1.63,19.58-2.18,29.35-3.45C209.65,173,206,164,202.14,155c7.69-6,15.66-11.6,23.53-17.32-7.45-6.31-15.5-11.89-23.19-17.9,3.73-9.05,8-17.88,11.67-27-9.66-1.17-19.3-2.48-29-3.6C184,79.54,183,69.84,182,60.13c-9.25,3.32-18.06,7.75-27.3,11.08-5.68-7.84-11.33-15.7-17.18-23.42C131.38,55.39,125.7,63.35,119.68,71Z"/><path class="cls-2" d="M119.68,71c6-7.69,11.7-15.65,17.84-23.25,5.85,7.72,11.5,15.58,17.18,23.42,9.24-3.33,18.05-7.76,27.3-11.08,1,9.71,2,19.41,3.19,29.1,9.66,1.12,19.3,2.43,29,3.6-3.67,9.08-7.94,17.91-11.67,27,7.69,6,15.74,11.59,23.19,17.9C217.8,143.41,209.83,149,202.14,155c3.83,9,7.51,18,11.38,26.92-9.77,1.27-19.64,1.82-29.35,3.45-1,9.62-2.4,19.2-3.63,28.8-9.07-3.7-17.88-8-27-11.67-5.66,7.73-11.59,15.25-17.3,23-7.27-7.17-12.81-16-19.62-23.59-8.42,3.74-16.62,8-25.19,11.4-.94-9.65-2.13-19.28-3.11-28.92-9.63-1.26-19.26-2.57-28.92-3.67,3.37-9.13,7.7-17.89,11.59-26.81-7.64-6.2-15.74-11.82-23.36-18,8-5.7,15.9-11.45,23.7-17.4-3.94-8.88-7.57-17.9-11.38-26.83,9.69-1.24,19.42-2.18,29.13-3.21,1.45-9.71,2.28-19.5,3.88-29.19,8.86,4,17.82,7.84,26.7,11.84m6.5,24.75c-5.87-1.44-10.87-5.45-16.89-6.52-.37,5.86-1.19,11.67-2,17.48-5.88.74-11.78,1.44-17.68,2,1.6,5.78,4.46,11.11,6.68,16.67-4.74,3.8-9.86,7.09-14.54,11,4.71,3.64,9.56,7.13,14.2,10.87-1.94,5.58-4.78,10.86-7.09,16.31,5.56,1.54,11.4,1.51,17.09,2.41.21.24.63.7.83.94.8,5.69,1.24,11.44,2.16,17.12,5.3-1.94,10.09-5.2,15.52-6.72,3.51,3.81,6.47,8.11,9.8,12.09.62.65,1.82,2.48,2.75,1.18,3.56-4.24,6.81-8.76,10.11-13.21,5.68,2.05,10.84,5.55,16.82,6.72.59-5.8,1.5-11.55,2.23-17.33,6-.87,12.07-1.22,18.06-2.19-2.29-5.44-5.15-10.73-6.6-16.46,4-4.28,9.6-6.93,13.94-11-3.9-3.21-8-6.13-12-9.16-.76-.72-2.4-1.5-1.63-2.79,1.88-5.3,4.72-10.22,6.52-15.57-5.79-.72-11.55-1.7-17.37-2.1-1.47-5.89-1.54-12-2.37-18.06-5.82,1.77-11.1,5-17,6.61-3.46-4.72-6.83-9.5-10.43-14.11C133.18,86.24,130.24,91.48,126.18,95.79Z"/><path class="cls-3" d="M126.18,95.79c4.06-4.31,7-9.55,11.12-13.83,3.6,4.61,7,9.39,10.43,14.11,5.87-1.62,11.15-4.84,17-6.61.83,6,.9,12.17,2.37,18.06,5.82.4,11.58,1.38,17.37,2.1-1.8,5.35-4.64,10.27-6.52,15.57-.77,1.29.87,2.07,1.63,2.79,4,3,8.12,6,12,9.16-4.34,4-9.91,6.67-13.94,11,1.45,5.73,4.31,11,6.6,16.46-6,1-12.06,1.32-18.06,2.19-.73,5.78-1.64,11.53-2.23,17.33-6-1.17-11.14-4.67-16.82-6.72-3.3,4.45-6.55,9-10.11,13.21-.93,1.3-2.13-.53-2.75-1.18-3.33-4-6.29-8.28-9.8-12.09-5.43,1.52-10.22,4.78-15.52,6.72-.92-5.68-1.36-11.43-2.16-17.12-.2-.24-.62-.7-.83-.94-5.69-.9-11.53-.87-17.09-2.41,2.31-5.45,5.15-10.73,7.09-16.31-4.64-3.74-9.49-7.23-14.2-10.87,4.68-3.87,9.8-7.16,14.54-11-2.22-5.56-5.08-10.89-6.68-16.67,5.9-.54,11.8-1.24,17.68-2,.81-5.81,1.63-11.62,2-17.48,6,1.07,11,5.08,16.89,6.52m5.44,20.32c-11,2.55-17.83,15.53-13.49,26,3.24,9.74,14.83,15.22,24.49,11.95,8.37-2.53,14.46-11.17,13.67-19.94C156.18,122.07,143.1,112.61,131.62,116.11Z"/><path class="cls-4" d="M131.62,116.11c11.48-3.5,24.56,6,24.67,18,.79,8.77-5.3,17.41-13.67,19.94-9.66,3.27-21.25-2.21-24.49-11.95C113.79,131.64,120.67,118.66,131.62,116.11Z"/><path class="cls-5" d="M128.85,283.5c4.72,0,9.44-.05,14.17.07q0,120,0,240.07c-4.74.07-9.47,0-14.19,0Q128.83,403.59,128.85,283.5Z"/><path class="cls-6" d="M162.21,329.73c3.74-3.82,9-5.6,14.24-6.21,8.47-.93,17,.24,25.25,2.39,2.53,9.76,4,20.22,1.6,30.16-1.73,7.55-8.08,12.89-14.77,16.12-7.73,3.76-17.46,4.42-25.07,0a22,22,0,0,1-10.86-18C152,345.11,155.93,336.13,162.21,329.73Z"/><path class="cls-7" d="M94.88,385.55c5.17-.07,10.56,1.06,14.71,4.32,7.7,5.91,13.25,15.31,12.86,25.21a21.35,21.35,0,0,1-9.32,17.64c-7.44,5.09-17.39,5.24-25.63,2.1-5.76-2.24-11.5-5.75-14.24-11.53-4.51-9.32-4.75-20.1-3.77-30.22-.11-1.59,1.5-1.91,2.63-2.4C79.39,387.87,87,385.71,94.88,385.55Z"/></g></g></svg>