<svg xmlns="http://www.w3.org/2000/svg" viewBox="0 0 321.58 628.44"><defs><style>.cls-1{fill:#a152a1;stroke:#a152a1;}.cls-1,.cls-10,.cls-11,.cls-2,.cls-3,.cls-4,.cls-5,.cls-6,.cls-7,.cls-8,.cls-9{stroke-width:0.5px;}.cls-2{fill:#a052a1;stroke:#a052a1;}.cls-3{fill:#06bab9;stroke:#06bab9;}.cls-4{fill:#feffff;stroke:#feffff;}.cls-5{fill:#fefeff;stroke:#fefeff;}.cls-6{fill:#548eaf;stroke:#548eaf;}.cls-7{fill:#fefffe;stroke:#fefffe;}.cls-8{fill:#33abac;stroke:#33abac;}.cls-9{fill:#38afb0;stroke:#38afb0;}.cls-10{fill:#2d7294;stroke:#2d7294;}.cls-11{fill:#2d7395;stroke:#2d7395;}</style></defs><g id="Layer_2" data-name="Layer 2"><g id="Layer_1-2" data-name="Layer 1"><path class="cls-1" d="M117.65.65c2.74-1.41,5.3,1.26,7,3.12,6,7.1,9.88,15.66,13.89,24a493.27,493.27,0,0,1,18.2,46.62c-7.38,1-14.91,1.41-22,3.82-4.47,1.46-8.84,3.21-13.15,5.1-2.72-13.41-4.72-27-6.32-40.57-1.12-11-2.25-22.16-1.15-33.23C114.68,6.4,115,2.71,117.65.65Z"/><path class="cls-1" d="M197,5.22c1.8-2,3.8-4.52,6.71-4.72,3.42.6,3.91,4.67,4.57,7.46,1.46,10.93.23,22-.87,32.93-1.8,14.42-3.88,28.85-6.94,43.07-8.88-4.06-18.19-7.75-28-8.63-2.34-.31-4.66-.71-7-.9a468,468,0,0,1,19-47.64C188.13,19.32,191.8,11.75,197,5.22Z"/><path class="cls-2" d="M45,42.33c4-.9,7.9,1.17,11.45,2.79C68.76,51.51,79.82,60,90.8,68.5c7.78,6.24,15.55,12.49,23,19.15a95.12,95.12,0,0,0-26.26,24.91A465.14,465.14,0,0,1,56.88,73.65c-5.06-7.52-10.35-15.1-13.28-23.76C42.83,47.45,42,43.58,45,42.33Z"/><path class="cls-1" d="M272.37,43.32c2.3-.56,6-1.18,6.95,1.71.81,4.85-2,9.32-4,13.53C266.82,73.8,255.8,87.44,244.84,101c-3.54,4.49-7.63,8.55-10.85,13.29a90.32,90.32,0,0,0-26.06-25.9,479.71,479.71,0,0,1,41.7-32.69C256.82,50.9,264.09,46,272.37,43.32Z"/><path class="cls-3" d="M156.77,74.36c2.89-.09,5.8,0,8.7.07,2.34.19,4.66.59,7,.9,9.8.88,19.11,4.57,28,8.63,2.53,1.38,5,2.8,7.47,4.39A90.32,90.32,0,0,1,234,114.25c1.57,2.39,3.09,4.82,4.46,7.35a71.39,71.39,0,0,1,4.64,10.51l.78.55c.31,1.83.65,3.68,1,5.53l1,.38c.46,7.47,3,14.69,2.46,22.25.45,7.86-.81,15.6-2.32,23.28l-.7.49c-.72,5.68-3.24,10.87-5,16.27l-1,.79a54.89,54.89,0,0,1-4.35,7.64,89,89,0,0,1-25.33,26.32c-2.86,2.26-6.33,3.59-9.16,5.9-9.66,3.87-19.45,8.06-30,8.67-11.66.61-23.7.87-34.9-2.92a130,130,0,0,1-15.25-5.69c-3.15-2.14-6.6-3.77-9.75-5.89a94.94,94.94,0,0,1-24.88-25.82,45.68,45.68,0,0,1-4.76-9c-4.38-12.56-8.55-25.59-8-39-.4-7.82,1.64-15.44,3.36-23,1.47-6.42,4.9-12.13,6.69-18.43a56.5,56.5,0,0,1,4.44-7.83,95.12,95.12,0,0,1,26.26-24.91c2.6-1.48,5.16-3.05,7.84-4.37,4.31-1.89,8.68-3.64,13.15-5.1,7.1-2.41,14.63-2.87,22-3.82M143.38,96.2a15.64,15.64,0,0,0-1.34,5.6c-.38,9.74,1.69,19.32,3.1,28.91a20.42,20.42,0,0,0-3.3,1.75l.84-.57c-7.46-6-14.65-12.54-23.1-17.17a12.66,12.66,0,0,0-5.66-1.55,10.22,10.22,0,0,0,1.17,6.09c4.08,7.54,9.6,14.17,15.08,20.72.15,1.55.46,3.22-.39,4.66-10.85-1.45-21.93-4.62-32.87-2.28-.64,3.26,2.68,4.76,5,6.2a148.61,148.61,0,0,0,23.31,10,24.84,24.84,0,0,0-.24,4.24c-8,2.8-16,5.81-23.4,9.93-2.23,1.34-5.15,2.83-4.83,5.91,10.35,2.49,20.93-.64,31.28-1.65a13.33,13.33,0,0,1,1.25,5.51c-2.77,2.6-4.92,5.76-7.27,8.73-3.5,5-8,10-8.88,16.27,1.86,0,3.87.34,5.57-.66,7.78-4.08,14.52-9.81,21.33-15.28,1.78,1.11,3.62,2.16,5.5,3.11l-1.17-.51c-1.49,10.1-3.9,20.5-1.72,30.67,1.47-.32,3.14-.54,3.94-2,5.28-7.51,8.2-16.35,11.57-24.81a23,23,0,0,0,5.18,0c2.9,7.82,5.79,15.71,10,22.94a15.18,15.18,0,0,0,4.43,4.6c.36-.72,1.1-2.14,1.46-2.85,1-9.67-.76-19.29-2.14-28.83l-1.28.56a36.69,36.69,0,0,0,3.59-2.51l1.54-.76A173.1,173.1,0,0,0,197.39,204c2.84,1.7,5.68,4,9.09,4.27,2.47.11,1.51-3.09.81-4.37-4.16-8.64-10.55-15.94-16.55-23.32,1.06-1.93,1.77-4,2.76-6-.14.57-.42,1.71-.57,2.29a138,138,0,0,0,25.68,3.2c2.23-.28,5.33.14,6.52-2.26a10.47,10.47,0,0,0-4.47-4.32c-7.79-4.61-16.4-7.52-24.74-10.91a11,11,0,0,0-.13-3.4c8.75-3.44,17.83-6.33,25.85-11.34,1.33-1.13,3.71-2.17,3.37-4.25a5.58,5.58,0,0,0-4.26-1.53c-10-.45-19.91,1.27-29.7,3.07.13.44.41,1.3.54,1.73-1.13-1.51-1.69-3.31-2.61-4.91l.66.85c4.23-5.41,8.81-10.55,12.74-16.18,2.65-3.87,5.71-7.83,6.08-12.68-2.16,0-4.45-.1-6.32,1.16-8.43,4.8-15.95,11-23.3,17.32a15.21,15.21,0,0,0-2.17-1.23c1.26-11.32,5.27-22.92,2.4-34.26-3.28-.48-4.68,2.7-6.09,5-4.54,8-7.65,16.71-10.78,25.34l-2.6,0a173.1,173.1,0,0,0-10-24.45c-1.48-2.66-3.09-5.75-6.25-6.61m-2.29,127.71c.9-5,.5-10.19.07-15.25-1.13,5-1.5,10.29-.07,15.25m39.07-15.21c-.41,4.71-1.19,9.63.23,14.25A33.4,33.4,0,0,0,180.16,208.7Z"/><path class="cls-4" d="M143.38,96.2c3.16.86,4.77,4,6.25,6.61a173.1,173.1,0,0,1,10,24.45,37.86,37.86,0,0,0-14.46,3.45c-1.41-9.59-3.48-19.17-3.1-28.91A15.64,15.64,0,0,1,143.38,96.2Z"/><path class="cls-5" d="M173,102c1.41-2.34,2.81-5.52,6.09-5,2.87,11.34-1.14,22.94-2.4,34.26a40.15,40.15,0,0,0-14.47-3.88C165.33,118.68,168.44,110,173,102Z"/><path class="cls-2" d="M8.93,113.21c11.22-1.39,22.52.07,33.7,1.18,13,1.66,26.08,3.52,38.92,6.32-4.28,7.8-6.78,16.45-8.73,25.1a35.74,35.74,0,0,0-.74,9.41,430.87,430.87,0,0,1-48.45-19.66c-7.24-3.75-14.8-7.35-20.7-13.09-1.54-1.55-3.36-4.17-1.74-6.26C3.13,114.05,6.22,113.66,8.93,113.21Z"/><path class="cls-4" d="M113.92,113.17a12.66,12.66,0,0,1,5.66,1.55c8.45,4.63,15.64,11.14,23.1,17.17l-.84.57a43.74,43.74,0,0,0-10.21,9.32l-1.46-1.8c-5.48-6.55-11-13.18-15.08-20.72A10.22,10.22,0,0,1,113.92,113.17Z"/><path class="cls-1" d="M264.53,117.1c14.28-2,28.68-3.86,43.12-3.41,4.51.52,10,.27,13.35,3.83,1.27,2.93-1.39,5.43-3.33,7.25-5.21,4.41-11.32,7.57-17.36,10.66-16.79,8.29-34.41,14.68-52,21.09.11,3.09.16,6.19.21,9.3,17.11,6.09,34.11,12.62,50.42,20.65,6.7,3.42,13.54,6.9,19.16,12,1.57,1.63,3.59,3.79,2.74,6.26-1.62,2.56-4.93,3-7.65,3.53-11.17,1.45-22.44.06-33.57-1-13.16-1.64-26.32-3.5-39.26-6.35,1.72-5.4,4.24-10.59,5-16.27l.7-.49c1.51-7.68,2.77-15.42,2.32-23.28.57-7.56-2-14.78-2.46-22.25l-1-.38c-.35-1.85-.69-3.7-1-5.53l-.78-.55a71.39,71.39,0,0,0-4.64-10.51C247,119.55,255.82,118.49,264.53,117.1Z"/><path class="cls-5" d="M202.14,115.1c1.87-1.26,4.16-1.15,6.32-1.16-.37,4.85-3.43,8.81-6.08,12.68-3.93,5.63-8.51,10.77-12.74,16.18L189,142a38.17,38.17,0,0,0-10.14-9.53C186.19,126.13,193.71,119.9,202.14,115.1Z"/><path class="cls-6" d="M81.55,120.71l1.52-.32c-1.79,6.3-5.22,12-6.69,18.43-1.72,7.54-3.76,15.16-3.36,23-.51,13.46,3.66,26.49,8,39l-1.38-.27a135,135,0,0,1-6.06-17.68c-1.52-5.46-1.55-11.17-2.38-16.73,1.38-3.49.8-7.3.84-10.95a35.74,35.74,0,0,1,.74-9.41C74.77,137.16,77.27,128.51,81.55,120.71Z"/><path class="cls-1" d="M145.14,130.71a37.86,37.86,0,0,1,14.46-3.45l2.6,0a40.15,40.15,0,0,1,14.47,3.88,15.21,15.21,0,0,1,2.17,1.23A38.17,38.17,0,0,1,189,142c.92,1.6,1.48,3.4,2.61,4.91,2.39,3.7,3.28,8.07,4.2,12.32a11,11,0,0,1,.13,3.4,47.37,47.37,0,0,1-2.42,12c-1,1.95-1.7,4-2.76,6a31.11,31.11,0,0,1-9.83,10.6l-1.54.76a36.69,36.69,0,0,1-3.59,2.51A46.45,46.45,0,0,1,163.3,198a23,23,0,0,1-5.18,0,42,42,0,0,1-12.62-3.35c-1.88-.95-3.72-2-5.5-3.11a39.9,39.9,0,0,1-9.69-10.09l-1.06,1A13.33,13.33,0,0,0,128,177a39,39,0,0,1-3-14.19,24.84,24.84,0,0,1,.24-4.24,41.5,41.5,0,0,1,4.59-13.92c.85-1.44.54-3.11.39-4.66l1.46,1.8a43.74,43.74,0,0,1,10.21-9.32A20.42,20.42,0,0,1,145.14,130.71Z"/><path class="cls-4" d="M96.91,142.36c10.94-2.34,22,.83,32.87,2.28a41.5,41.5,0,0,0-4.59,13.92,148.61,148.61,0,0,1-23.31-10C99.59,147.12,96.27,145.62,96.91,142.36Z"/><path class="cls-4" d="M191.05,145.13c9.79-1.8,19.7-3.52,29.7-3.07a5.58,5.58,0,0,1,4.26,1.53c.34,2.08-2,3.12-3.37,4.25-8,5-17.1,7.9-25.85,11.34-.92-4.25-1.81-8.62-4.2-12.32C191.46,146.43,191.18,145.57,191.05,145.13Z"/><path class="cls-5" d="M101.55,172.73c7.42-4.12,15.4-7.13,23.4-9.93A39,39,0,0,0,128,177c-10.35,1-20.93,4.14-31.28,1.65C96.4,175.56,99.32,174.07,101.55,172.73Z"/><path class="cls-4" d="M195.92,162.58c8.34,3.39,17,6.3,24.74,10.91a10.47,10.47,0,0,1,4.47,4.32c-1.19,2.4-4.29,2-6.52,2.26a138,138,0,0,1-25.68-3.2c.15-.58.43-1.72.57-2.29A47.37,47.37,0,0,0,195.92,162.58Z"/><path class="cls-2" d="M48.91,174.11c7.42-2.69,14.66-6,22.33-7.94.83,5.56.86,11.27,2.38,16.73a135,135,0,0,0,6.06,17.68A426.08,426.08,0,0,1,35.55,207c-10.21.71-20.67,1.88-30.74-.51-2.5-.54-5.68-2.76-4.16-5.68,2.77-4.85,8-7.54,12.59-10.41C24.64,184,36.76,178.93,48.91,174.11Z"/><path class="cls-7" d="M190.74,180.56c6,7.38,12.39,14.68,16.55,23.32.7,1.28,1.66,4.48-.81,4.37-3.41-.32-6.25-2.57-9.09-4.27a173.1,173.1,0,0,1-16.48-12.82A31.11,31.11,0,0,0,190.74,180.56Z"/><path class="cls-4" d="M129.25,182.5l1.06-1A39.9,39.9,0,0,0,140,191.56c-6.81,5.47-13.55,11.2-21.33,15.28-1.7,1-3.71.68-5.57.66.84-6.32,5.38-11.23,8.88-16.27C124.33,188.26,126.48,185.1,129.25,182.5Z"/><path class="cls-5" d="M144.33,194.16l1.17.51A42,42,0,0,0,158.12,198c-3.37,8.46-6.29,17.3-11.57,24.81-.8,1.46-2.47,1.68-3.94,2C140.43,214.66,142.84,204.26,144.33,194.16Z"/><path class="cls-7" d="M163.3,198a46.45,46.45,0,0,0,12.48-3.58l1.28-.56c1.38,9.54,3.18,19.16,2.14,28.83-.36.71-1.1,2.13-1.46,2.85a15.18,15.18,0,0,1-4.43-4.6C169.09,213.72,166.2,205.83,163.3,198Z"/><path class="cls-8" d="M141.09,223.91c-1.43-5-1.06-10.28.07-15.25C141.59,213.72,142,218.86,141.09,223.91Z"/><path class="cls-9" d="M180.16,208.7a33.4,33.4,0,0,1,.23,14.25C179,218.33,179.75,213.41,180.16,208.7Z"/><path class="cls-1" d="M209.73,235.61a89,89,0,0,0,25.33-26.32c3.75,5.77,8.72,10.64,12.84,16.15a343,343,0,0,1,22.34,30.74c3.35,5.53,6.88,11.16,8.35,17.53.59,2.06.15,5.15-2.37,5.63-4.72.54-9.07-2.06-13.17-4C243.72,264.32,226.7,249.85,209.73,235.61Z"/><path class="cls-1" d="M85.82,209.86a94.94,94.94,0,0,0,24.88,25.82A443.8,443.8,0,0,1,74.77,264c-7.23,4.95-14.56,9.92-22.68,13.29-2.69,1-5.86,2.06-8.62.83-2.21-1.82-1.19-5-.61-7.35,2-6.05,5.48-11.5,8.9-16.86C62,238.38,73.81,224,85.82,209.86Z"/><path class="cls-1" d="M112.83,298.76a389.31,389.31,0,0,1,7.62-57.19,130,130,0,0,0,15.25,5.69c11.2,3.79,23.24,3.53,34.9,2.92,10.52-.61,20.31-4.8,30-8.67,2,8.91,3.15,18,4.5,27,1.73,13.67,3.49,27.45,2.66,41.25-.41,3.74-.67,8-3.33,10.91-2.57,1.73-5.34-.65-7.05-2.49-5.35-6.06-8.88-13.43-12.48-20.6A441.59,441.59,0,0,1,166.21,251c-3.78-.1-7.55-.09-11.32,0-6.36,17.78-13.22,35.46-21.93,52.25-3.13,5.65-6.21,11.54-11,16-1.77,1.83-5.32,2.8-6.74.07C112.11,313,112.85,305.58,112.83,298.76Z"/><path class="cls-10" d="M151,454.79c.09-53.74-.18-107.49.13-161.22,5.6.12,11.2.06,16.8.05q.06,167.27,0,334.53c-5.63,0-11.26,0-16.88,0C150.94,570.39,151.07,512.59,151,454.79Z"/><path class="cls-11" d="M216.29,391.46c6.2-2.48,13.19-4,19.76-2.12a14.4,14.4,0,0,1,9.76,9.41c1.92,5.89.86,12.29-1,18.06-3.37,9.68-9.38,18.3-16.58,25.54-12.84,12.55-32.09,15.47-49.33,14.45-.85-16.44,1.38-34.41,12.33-47.43A70.56,70.56,0,0,1,216.29,391.46Z"/><path class="cls-11" d="M84.41,464.57c6.13-1.18,12.45,0,18.23,2.2,8.83,3.34,16.63,9,23.25,15.7,5.45,5.53,8.78,12.8,10.64,20.28,2.55,10,2.69,20.5,1.61,30.75a77.09,77.09,0,0,1-23.39-.42c-10.12-1.61-20.31-5.39-27.61-12.83-7.41-7.73-13.46-17-16.21-27.46-1.6-6.57-1.93-14,1.58-20A17.23,17.23,0,0,1,84.41,464.57Z"/></g></g></svg>