<svg xmlns="http://www.w3.org/2000/svg" viewBox="0 0 649.86 89.66"><defs><style>.cls-1{fill:#f27aa8;stroke:#f27aa8;}.cls-1,.cls-2{stroke-width:0.5px;}.cls-2{fill:#d82871;stroke:#d82871;}</style></defs><g id="Layer_2" data-name="Layer 2"><g id="Layer_1-2" data-name="Layer 1"><path class="cls-1" d="M83.26.27q242.93,0,485.88,0c.3,7.05.13,14.11.11,21.18-.25,14.74.35,29.51-.32,44.25-9,0-18.08-.15-27.12.08-.41,7.85.11,15.71-.32,23.56-.55-7.84.07-15.7-.37-23.54-74.68-.28-149.37,0-224-.12q-104.34,0-208.68,0c-8.37,0-16.73,0-25.1,0-.24-15.23-.07-30.47-.07-45.7C83.24,13.46,83.19,6.86,83.26.27Z"/><path class="cls-2" d="M1,20.31c27.4-.56,54.83-.08,82.25-.25,0,15.23-.17,30.47.07,45.7,8.37-.06,16.73,0,25.1,0,0,7.39.2,14.8-.11,22.2C72.44,87.8,36.61,88,.77,87.83,14,78.31,28,69.76,41.55,60.61c3.26-2.4,7.09-4.09,9.87-7.11C34.58,42.47,17.82,31.31,1,20.31Z"/><path class="cls-2" d="M569.25,21.5c26.36.05,52.71-.09,79.07.06-14,10.08-28.76,19.09-43.05,28.77-2.27,1.74-5.27,2.77-6.95,5.11,16.88,11.31,34.13,22.12,50.76,33.79-35.86.36-71.73,0-107.59.16.43-7.85-.09-15.71.32-23.56,9-.23,18.08-.08,27.12-.08C569.6,51,569,36.24,569.25,21.5Z"/></g></g></svg>