<svg xmlns="http://www.w3.org/2000/svg" viewBox="0 0 273.06 524.1"><defs><style>.cls-1{fill:#eb2c8c;stroke:#eb2c8c;}.cls-1,.cls-2,.cls-3,.cls-4,.cls-5,.cls-6{stroke-width:0.5px;}.cls-2{fill:#fffeff;stroke:#fffeff;}.cls-3{fill:#f190bd;stroke:#f190bd;}.cls-4{fill:#fff;stroke:#fff;}.cls-5{fill:#49bec8;stroke:#49bec8;}.cls-6{fill:#63b4b9;stroke:#63b4b9;}</style></defs><g id="Layer_2" data-name="Layer 2"><g id="Layer_1-2" data-name="Layer 1"><path class="cls-1" d="M110.53,36.09c8.9-12,18-23.8,27.05-35.67q13.26,18,26.37,36c14.07-5.2,27.68-11.61,41.64-17.13,1.58,13.9,3,27.81,4.54,41.72.23,1.1-.12,3.11,1.61,3,14.32,1.93,28.68,3.67,43,5.49-5.3,14-11.89,27.41-17.79,41.13,11.83,9.12,23.78,18.1,35.68,27.15-11.78,9.19-24.08,17.69-36,26.64C242,178.42,248.4,192,253.7,206c-14.81,1.7-29.64,3.22-44.45,4.91-2,14.82-3.67,29.7-5.75,44.51-13.7-5.8-27.19-12.15-40.93-17.83-9.45,11.47-18.15,23.68-27.25,35.48-10.12-12-19.59-24.52-29.55-36.65-12.84,6-25.66,12-38.56,17.82-1.75-14.84-3.19-29.7-4.95-44.54-14.81-2.13-29.68-3.77-44.5-5.79,5.83-13.8,12.25-27.35,17.92-41.22C23.87,153.8,12.2,144.75.36,135.92c2.23-2.81,5.48-4.49,8.28-6.67,9.18-6.86,18.61-13.42,27.67-20.43-6-13.6-11.47-27.45-17.42-41.08,14.85-2.09,29.82-3.3,44.72-5.1,1.85-14.76,3.68-29.53,5.6-44.29,14,5.34,27.4,12.17,41.32,17.74M136.91,48c-5.93,7.65-11.57,15.53-17.66,23-8.86-4-17.71-7.93-26.63-11.7C91.16,69,90.16,78.76,88.83,88.46c-9.72.92-19.43,2-29.1,3.22,3.44,8.63,7.32,17.1,10.65,25.77.83,1.35-.89,2.16-1.68,2.88-7.09,5.1-14,10.36-21.16,15.41,7.25,6.51,15.46,11.88,23.07,18C67,162.8,62.54,171.55,59,180.67c9.63,1.1,19.23,2.5,28.87,3.59,1.32,9.68,2.14,19.41,3.28,29.11,8.63-3.32,16.72-8.31,25.43-11.15,5.79,6.92,11.35,14.06,17,21.14.66.6,1.53,2.62,2.63,1.53,6.09-7.14,11.11-15.26,17.37-22.22,9,3.65,17.73,7.78,26.63,11.61,1.48-9.72,2.3-19.52,3.89-29.22,9.58-.84,19.12-2.07,28.69-3.08-3-9.28-7.52-18-10.95-27.14,7.92-5.72,15.78-11.52,23.65-17.31-7.84-5.9-15.61-11.87-23.41-17.81,3.9-8.93,8.15-17.74,11.62-26.85-9.63-1.18-19.25-2.44-28.87-3.67-1.21-9.65-2-19.35-3.21-29-9.25,3.29-18,7.79-27.3,11C151,66.37,147.4,61.72,144,57,141.66,53.94,139.73,50.6,136.91,48Z"/><path class="cls-2" d="M136.91,48c2.82,2.59,4.75,5.93,7.06,9,3.43,4.76,7,9.41,10.34,14.26,9.26-3.23,18.05-7.73,27.3-11,1.19,9.65,2,19.35,3.21,29,9.62,1.23,19.24,2.49,28.87,3.67-3.47,9.11-7.72,17.92-11.62,26.85,7.8,5.94,15.57,11.91,23.41,17.81-7.87,5.79-15.73,11.59-23.65,17.31,3.43,9.13,7.94,17.86,10.95,27.14-9.57,1-19.11,2.24-28.69,3.08-1.59,9.7-2.41,19.5-3.89,29.22-8.9-3.83-17.67-8-26.63-11.61-6.26,7-11.28,15.08-17.37,22.22-1.1,1.09-2-.93-2.63-1.53-5.62-7.08-11.18-14.22-17-21.14-8.71,2.84-16.8,7.83-25.43,11.15-1.14-9.7-2-19.43-3.28-29.11-9.64-1.09-19.24-2.49-28.87-3.59,3.52-9.12,7.94-17.87,11.59-26.95-7.61-6.1-15.82-11.47-23.07-18,7.12-5.05,14.07-10.31,21.16-15.41.79-.72,2.51-1.53,1.68-2.88-3.33-8.67-7.21-17.14-10.65-25.77,9.67-1.27,19.38-2.3,29.1-3.22,1.33-9.7,2.33-19.44,3.79-29.11,8.92,3.77,17.77,7.75,26.63,11.7,6.09-7.51,11.73-15.39,17.66-23m-2.19,36.44c-3,3.87-5.81,7.83-8.85,11.64C120.25,94,115,90.73,109.16,89.34c-.74,5.79-1.43,11.59-2.13,17.38-6,1.07-12.06,1.14-18,2.31,2,5.51,4.9,10.72,6.62,16.34-4,4.08-9.33,6.74-13.65,10.52,0,.24.11.72.15,1,3.66,3.07,7.64,5.73,11.42,8.66.7.72,2.33,1.41,1.71,2.71-1.86,5.37-4.9,10.25-6.59,15.69,5.81.72,11.61,1.6,17.45,2.08,1.45,5.89,1.42,12,2.27,18,5.52-1.72,10.35-5.13,15.94-6.7,3.93,4.75,7.3,10.08,11.93,14.21,3.42-4.76,7-9.38,10.64-14,5.58,2.23,11,5,16.59,7.08.82-6,1.55-11.93,2.34-17.89,5.91-.59,11.82-1.32,17.74-1.87-1.66-5.77-4.58-11.08-6.71-16.67,4.63-3.83,9.7-7.08,14.39-10.83-4.49-3.93-9.47-7.23-14.15-10.92,2.1-5.57,4.71-10.93,7.08-16.38-5.89-1.69-12.11-1.41-18-2.9-.44-5.91-1.1-11.8-1.84-17.67-5.64,1.95-10.94,4.8-16.59,6.69-3.91-4.15-6.55-9.31-10.37-13.53C136.06,81.85,135.52,83.84,134.72,84.45Z"/><path class="cls-3" d="M134.72,84.45c.8-.61,1.34-2.6,2.63-1.86,3.82,4.22,6.46,9.38,10.37,13.53,5.65-1.89,10.95-4.74,16.59-6.69.74,5.87,1.4,11.76,1.84,17.67,5.93,1.49,12.15,1.21,18,2.9-2.37,5.45-5,10.81-7.08,16.38,4.68,3.69,9.66,7,14.15,10.92-4.69,3.75-9.76,7-14.39,10.83,2.13,5.59,5,10.9,6.71,16.67-5.92.55-11.83,1.28-17.74,1.87-.79,6-1.52,11.93-2.34,17.89-5.63-2.13-11-4.85-16.59-7.08-3.6,4.63-7.22,9.25-10.64,14-4.63-4.13-8-9.46-11.93-14.21-5.59,1.57-10.42,5-15.94,6.7-.85-6-.82-12.1-2.27-18-5.84-.48-11.64-1.36-17.45-2.08,1.69-5.44,4.73-10.32,6.59-15.69.62-1.3-1-2-1.71-2.71-3.78-2.93-7.76-5.59-11.42-8.66,0-.24-.11-.72-.15-1,4.32-3.78,9.61-6.44,13.65-10.52C93.92,119.75,91.06,114.54,89,109c6-1.17,12-1.24,18-2.31.7-5.79,1.39-11.59,2.13-17.38,5.87,1.39,11.09,4.61,16.71,6.75,3-3.81,5.89-7.77,8.85-11.64M132.09,116c-9.58,1.88-16.77,11.71-15.29,21.45.63,11.39,12.92,19.84,23.83,17.08,10.55-2,17.73-13.74,14.81-24.07C153.15,120.33,142.16,113.56,132.09,116Z"/><path class="cls-4" d="M132.09,116c10.07-2.4,21.06,4.37,23.35,14.46,2.92,10.33-4.26,22.06-14.81,24.07-10.91,2.76-23.2-5.69-23.83-17.08C115.32,127.67,122.51,117.84,132.09,116Z"/><path class="cls-5" d="M128.63,283.51c4.6.16,9.21.07,13.82.07a176.5,176.5,0,0,1,.15,23.79c.5,25.64.18,51.31.16,77,.17,46.33.05,92.7.11,139.05l-.29-.24L141.27,522a59.71,59.71,0,0,1-11.34.2c-.22-55.3-.06-110.6-.12-165.9.22-23.9-.36-47.81.23-71.7-.32-.25-1-.75-1.27-1Z"/><path class="cls-6" d="M128.77,283.61c.31.26.95.76,1.27,1-.59,23.89,0,47.8-.23,71.7.06,55.3-.1,110.6.12,165.9a59.71,59.71,0,0,0,11.34-.2l1.31,1.12c-4.62,1.26-9.44.43-14.14.61q-.09-105.24,0-210.47C128.62,303.39,128,293.47,128.77,283.61Z"/><path class="cls-5" d="M165.3,327.06c11-6.17,24.28-4,36-1.19,2.71,9.62,4.06,20,1.86,29.82-1.77,8.17-8.82,13.82-16.1,17.08-5.08,2.4-10.85,2.77-16.35,2.15A21.8,21.8,0,0,1,153,359.07C150,347.24,155.49,334.05,165.3,327.06Z"/><path class="cls-5" d="M69.21,391.94c9.46-4.28,20-7.21,30.41-6,5.41.61,10.17,3.75,13.8,7.68,6.2,6.48,9.91,15.72,8.46,24.73a21.72,21.72,0,0,1-14.25,17.05c-9.22,3.25-19.74,1.12-27.71-4.29a20.27,20.27,0,0,1-7.7-9.36C68.11,412.4,68.6,401.91,69.21,391.94Z"/></g></g></svg>