<svg xmlns="http://www.w3.org/2000/svg" xmlns:xlink="http://www.w3.org/1999/xlink" viewBox="0 0 363.46 391.92"><defs><style>.cls-1{fill:url(#linear-gradient);}.cls-2{fill:url(#linear-gradient-2);}.cls-3{fill:#ff45c2;}.cls-4{fill:#e823b1;}.cls-5{fill:#ff83e2;}</style><linearGradient id="linear-gradient" x1="-111.72" y1="225.03" x2="197.51" y2="225.03" gradientTransform="translate(133.88 -2.45)" gradientUnits="userSpaceOnUse"><stop offset="0" stop-color="#e9a300"/><stop offset="1" stop-color="#5b230b"/></linearGradient><linearGradient id="linear-gradient-2" x1="7.36" y1="78.83" x2="228.56" y2="148.22" gradientTransform="translate(56.31 -20.1) scale(1.31 1)" xlink:href="#linear-gradient"/></defs><g id="Layer_2" data-name="Layer 2"><g id="Layer_1-2" data-name="Layer 1"><rect class="cls-1" x="22.17" y="78.3" width="309.23" height="288.56" rx="40.93" transform="translate(61 -37.01) rotate(14.42)"/><rect class="cls-2" x="55.41" y="50.02" width="310.75" height="86.81" rx="42.87" transform="translate(26.15 -44.66) rotate(12.89)"/><path class="cls-3" d="M80.15,345a241.79,241.79,0,0,0,109.15,27.1,919.74,919.74,0,0,1,22.37-163.89A933.88,933.88,0,0,1,258.52,60.89a259.29,259.29,0,0,0-81.61-21.23A733.29,733.29,0,0,1,147,192.88,714.27,714.27,0,0,1,80.15,345Z"/><path class="cls-4" d="M44.77,120.6A124.54,124.54,0,0,0,17.25,232.66a875,875,0,0,1,160.59,16.05A886.81,886.81,0,0,1,322.9,289.84a81.79,81.79,0,0,0,18.52-82.28,628.5,628.5,0,0,1-150.39-24A628.6,628.6,0,0,1,44.77,120.6Z"/><path class="cls-3" d="M337.58,123.53c-17.23,9.17-39.6-3.13-63.74-16.4-29.09-16-30.93-26.88-51.78-31.36-17.42-3.74-21,2.81-50.25,4.68s-61.52,3.93-74-14.5c-11.72-17.3-4.27-50.21,14.79-61.58,19.49-11.63,45.81,2.43,66.29,13.37,29.5,15.75,27.91,26.93,49.48,33.35s27.82-3.45,67.59-2.69c28.95.55,47.18.9,56.42,13.55C364.94,79.15,356.69,113.35,337.58,123.53Z"/><path class="cls-5" d="M335.72,100c-13,4.28-32.31-3.59-60.56-15.08-29.06-11.81-31.81-17.24-51.07-21.58-15.88-3.58-18.1-.81-45.91-2.78-33.48-2.38-59.26-4.21-69.86-15.16C98.89,35.6,102.66,19.86,115.6,15c14.49-5.42,37.68,3.83,62.6,13.78,29.45,11.75,29,16.92,49.15,22.37,19.88,5.39,24,1.34,62.15,5.61C319.9,60.16,335.26,62,343,69.62A18.1,18.1,0,0,1,335.72,100Z"/></g></g></svg>