<svg xmlns="http://www.w3.org/2000/svg" xmlns:xlink="http://www.w3.org/1999/xlink" viewBox="0 0 885.72 155.41"><defs><style>.cls-1{fill:url(#linear-gradient);}.cls-2{fill:#d85a24;}</style><linearGradient id="linear-gradient" x1="-1.03" y1="18.48" x2="890.17" y2="18.48" gradientTransform="translate(884.58 133.41) rotate(-175.47)" gradientUnits="userSpaceOnUse"><stop offset="0" stop-color="#f7931e"/><stop offset="1" stop-color="#f15a24"/></linearGradient></defs><g id="Layer_2" data-name="Layer 2"><g id="Layer_1-2" data-name="Layer 1"><path class="cls-1" d="M556.38,107.65C641.56,94.2,710.06,82.92,772,71.63c27.75-5,68.87-12.77,94,12.68,14.14,14.3,18.31,34.1,19.66,47.81a132.35,132.35,0,0,0-35.39-22c-93-38.52-170.11,64-289.63,42.14-32.33-5.91-74.48-22.74-77.26-43.25-4-29.66,84-54.53,84.86-53.89.47.34-22.4,10.76-99.18,44.27-18,7.68-65.84,25.79-132.06,23.49-8-.28-94.72-3.29-110.35-27.72-12.86-20.1,24.15-52,98.29-71.43L235.6,62.4a401.17,401.17,0,0,1-87.23,11.3c-26.74.58-114.21,2.46-140.85-26.47C-8.32,30,4.56,9.75,12.46,0c66,26.09,118.1,31.06,153.56,30.75C250.14,30,294.28-1,365.29,10.33A193.61,193.61,0,0,1,445,41.92c-91.42,27-114.48,33.19-115,32.71-1-1,90.37-38.41,213.24-43.51,33.29-1.38,105.42-4.34,125.6,16.82,13.88,14.54-3.62,34-12.08,42.15Z"/><path class="cls-2" d="M656.56,91.39c3.92-3.52,10.49-10.14,14.65-18.91,2.4-5,2.85-8.37,2.89-10.81a23,23,0,0,0-1.38-8.13A167.89,167.89,0,0,1,627,82c-12.52,5.16-20.29,6.46-45.66,14.45-16.57,5.23-29.91,9.92-38.47,13l17.33-1.64Z"/><path class="cls-2" d="M403.51,29.32c-4.74.58-13,4.31-29.26,11.74-18.09,8.26-27.33,12.52-36.93,19.16a145.2,145.2,0,0,0-21.7,18.35L446,42.7C426.06,28.41,410.8,28.44,403.51,29.32Z"/><path class="cls-2" d="M468.74,99.66a8.87,8.87,0,0,1-1.62-5.14c.51-18.25,68.6-30.28,100.93-35.18Q543.74,68,518,78.46T468.74,99.66Z"/><path class="cls-2" d="M244.34,58.91a59.61,59.61,0,0,1-9.44,4.27,61.47,61.47,0,0,1-19.5,3.48c8.76-5,18.25-10,28.49-14.8a371.89,371.89,0,0,1,78.58-26.32,406.91,406.91,0,0,0-50.08,19.13C262.32,49.3,253,54.1,244.34,58.91Z"/></g></g></svg>