<svg xmlns="http://www.w3.org/2000/svg" xmlns:xlink="http://www.w3.org/1999/xlink" viewBox="0 0 643.5 781.16"><defs><style>.cls-1{fill:#f0a861;}.cls-2{fill:url(#linear-gradient);}.cls-3{fill:url(#linear-gradient-2);}.cls-4{fill:url(#linear-gradient-3);}</style><linearGradient id="linear-gradient" x1="-6302.56" y1="218.4" x2="-5681.93" y2="218.4" gradientTransform="matrix(-0.81, -0.1, -0.19, 0.98, -4420.36, -398.59)" gradientUnits="userSpaceOnUse"><stop offset="0" stop-color="#7b0e00"/><stop offset="1" stop-color="#ff3515"/></linearGradient><linearGradient id="linear-gradient-2" x1="-6329.66" y1="434.22" x2="-6261.46" y2="419.41" gradientTransform="matrix(-0.81, -0.1, -0.19, 0.98, -4420.36, -398.59)" gradientUnits="userSpaceOnUse"><stop offset="0" stop-color="#6a2600"/><stop offset="1" stop-color="#f60e00"/></linearGradient><linearGradient id="linear-gradient-3" x1="-5821.79" y1="141.39" x2="-5739.6" y2="114.76" gradientTransform="matrix(-0.81, -0.1, -0.19, 0.98, -4420.36, -398.59)" gradientUnits="userSpaceOnUse"><stop offset="0" stop-color="#bf8c00"/><stop offset="1" stop-color="#ffd915"/></linearGradient></defs><g id="Layer_2" data-name="Layer 2"><g id="Layer_1-2" data-name="Layer 1"><path class="cls-1" d="M0,487.39l537,261q31.08-105.69,62.17-211.36L265,0A752.47,752.47,0,0,0,0,487.39Z"/><path class="cls-2" d="M92.84,531.33,538.49,760.85q32.64-110.73,65.29-221.45L325.05,96.64Z"/><path class="cls-3" d="M519.38,775.82l11.17,4.2c9.76,3.67,21.16-1.77,25.46-12.15l85.84-207.2c4.3-10.37-.12-21.76-9.88-25.42l-11.17-4.2c-9.76-3.66-21.16,1.78-25.46,12.15L509.49,750.4C505.2,760.78,509.62,772.16,519.38,775.82Z"/><path class="cls-4" d="M85.91,546.73l10.63,5.36c9.28,4.68,21.06.4,26.31-9.56L354.79,102.37c5.24-10,2-21.83-7.31-26.5l-10.63-5.36c-9.28-4.68-21.06-.4-26.31,9.56L78.6,520.23C73.36,530.19,76.63,542.05,85.91,546.73Z"/></g></g></svg>