<svg id="Layer_1" data-name="Layer 1" xmlns="http://www.w3.org/2000/svg" xmlns:xlink="http://www.w3.org/1999/xlink" viewBox="0 0 768 768"><defs><style>.cls-1{fill:url(#linear-gradient);}.cls-2{fill:url(#linear-gradient-2);}.cls-3{fill:url(#linear-gradient-3);}.cls-4{fill:url(#linear-gradient-4);}.cls-5{fill:url(#linear-gradient-5);}</style><linearGradient id="linear-gradient" x1="194.96" y1="370.69" x2="360" y2="370.69" gradientUnits="userSpaceOnUse"><stop offset="0" stop-color="#d0ffff"/><stop offset="0.12" stop-color="#c7fbfd"/><stop offset="0.31" stop-color="#adf1f9"/><stop offset="0.56" stop-color="#84dff2"/><stop offset="0.84" stop-color="#4bc8e8"/><stop offset="1" stop-color="#29bae2"/></linearGradient><linearGradient id="linear-gradient-2" x1="85" y1="550.89" x2="414.53" y2="550.89" gradientUnits="userSpaceOnUse"><stop offset="0" stop-color="#d0ffff"/><stop offset="0.11" stop-color="#c7f9fd"/><stop offset="0.29" stop-color="#adeaf7"/><stop offset="0.53" stop-color="#84d2ee"/><stop offset="0.8" stop-color="#4bb0e1"/><stop offset="1" stop-color="#1c94d6"/><stop offset="1" stop-color="#0075be"/></linearGradient><linearGradient id="linear-gradient-3" x1="219" y1="366.58" x2="657.27" y2="366.58" xlink:href="#linear-gradient-2"/><linearGradient id="linear-gradient-4" x1="73.31" y1="488.89" x2="715.36" y2="488.89" xlink:href="#linear-gradient-2"/><linearGradient id="linear-gradient-5" x1="148.79" y1="191" x2="278" y2="191" xlink:href="#linear-gradient-2"/></defs><path class="cls-1" d="M289.3,709.38H265.69a70.56,70.56,0,0,1-70.56-70.56c1.64-294.37,1.37-421.56,0-445.32,0-.31,0-.81-.08-1.48,0,0-.26-5.61.08-11.46C197.5,139.8,221,94,221,94a288.26,288.26,0,0,1,43-62c-8.28,24.63-24,82.65-7,153,22,90.91,83.92,141.56,103,156q-.08,148.9-.14,297.82A70.56,70.56,0,0,1,289.3,709.38Z"/><path class="cls-2" d="M154,709c-5.41,3.79-19.43,13.62-34,10-19.51-4.86-35.06-32.63-35-58,0,0,.12-56.85,111-123,5.87-3.5,10.21-6.14,18.89-11.5,6.38-3.94,14.37-9,24.11-15.5,0,0,39-22,96-69,4.82-4,13.15-11,19-23,7-14.4,6.86-28.55,6-37,3.76,2.75,60.57,45.68,54,109-2.61,25.11-14.17,43.7-22,54C277.33,624.3,191.18,683,154,709Z"/><path class="cls-3" d="M277.4,714.11l-.48-.72c-3.51-5.33-19.55-31-16.26-58.81,3.59-30.28,29.37-56.35,49.88-66.6l1.74-.84C357,565.78,549.41,515.07,542.13,466.59a27.19,27.19,0,0,0-.67-3.18c-14.94-57-111.63-75.1-198.36-132.57a438.32,438.32,0,0,1-78.21-66.53c-10.73-11.77-41.79-48.92-45.52-105.06C214,78.23,270,25.12,277.73,18c-4.27,31.13-4.77,74.38,18.68,112.06,51.16,82.22,161.43,49.7,260.31,130.74C563.07,266,662.45,349.73,657.06,457,650,598.45,464.45,708.7,316.25,714.9A315.53,315.53,0,0,1,277.4,714.11Z"/><path class="cls-4" d="M101.1,734.72l-.78-.73c-5.67-5.32-31.62-31-26.3-58.8,5.81-30.29,47.51-56.35,80.7-66.6l2.82-.85c102.76-29.83,453.84-62.5,490.24-161.33,11.76-32-.35-95.31-164.6-227.63C518.81,236.86,715.69,340,715.36,477.63,714.82,699,204.74,761.9,167,758.9,123.75,755.46,101.1,734.72,101.1,734.72Z"/><path class="cls-5" d="M199,292v70a157.07,157.07,0,0,1-37-51s-15.14-33.7-13-79c2.78-58.74,47.92-139.57,129-212-25.26,33.23-64.63,95.19-77,181A378.61,378.61,0,0,0,199,292Z"/></svg>