<svg xmlns="http://www.w3.org/2000/svg" viewBox="0 0 109.24 101.74"><defs><style>.cls-1{fill:#ee245b;}.cls-2{fill:#fff;}</style></defs><g id="Layer_2" data-name="Layer 2"><g id="Layer_1-2" data-name="Layer 1"><path class="cls-1" d="M55.08,23.77C59.32-3.35,0-.8,0,28.86,0,44.11,11.86,55.13,21.19,65.3c17,17.79,36.44,26.27,57.62,36.44"/><path class="cls-1" d="M52.82,25.18C46.89,13.32,71.19.89,79.66,0c17.8-.85,26.27,11,28.81,26.27,5.94,32.21-24.57,45.77-29.66,75.43"/><path class="cls-2" d="M78.81,98.35C72.88,77.16,92.37,56.82,91.53,35.64c0-11-3.39-19.5-15.26-21.19C59.74,11.91,55.42,34,56.08,31.1l-1,2.84C51.7,17,5.93,17.84,25.42,47.5c12.72,18.64,30.51,42.37,51.7,51.69"/></g></g></svg>