<svg xmlns="http://www.w3.org/2000/svg" viewBox="0 0 123.67 101.33"><defs><style>.cls-1{fill:#721515;}</style></defs><g id="Layer_2" data-name="Layer 2"><g id="Layer_1-2" data-name="Layer 1"><path d="M7.61,20.63c4.51-.69,8.54-2.51,12.65-4.41,5.1-2.36,10.46-4.06,15.58-6.37l-.75-1c-5.75,5-12.43,8.62-18.86,12.6-4.92,3.05-11.16,5.73-15,10.09a.63.63,0,0,0,.61,1.05c3.42-.79,6.31-3,9.28-4.78,3.63-2.22,7.39-4.19,11.14-6.18A244.84,244.84,0,0,1,46.32,10.33l-.48-1.14C37.12,14.9,28.31,20.47,19.5,26,13.22,30,4.91,33.46.17,39.34a.63.63,0,0,0,.6,1c3.65-.63,7.07-3.24,10.3-5,4.25-2.29,8.64-4.24,13-6.29,9.77-4.61,19.14-10.4,29.08-14.57l-.48-1.15c-8.58,5.49-17,11.29-25.28,17.14C19.72,35.91,10.94,40.67,4,46.9A.63.63,0,0,0,4.57,48c4.41-1.3,8.2-4.35,12-6.78,4.63-2.92,9.48-5.51,14.24-8.21,8.75-5,18.64-8.73,26.75-14.7.64-.47,0-1.55-.63-1.08-9.1,6.3-18.3,12.46-27.48,18.65Q22.2,40.75,15,45.75c-3.57,2.48-7.21,4.46-10,7.88-.25.31-.24,1,.28,1,4.21.6,9.73-3.77,13.07-5.76,6.49-3.86,13-7.59,19.66-11.14,21.19-11.3,41.56-24.32,63.15-34.85l-.64-1.08C92.76,7.28,85.58,13.59,77.57,18.62,69.91,23.43,62.24,28,54.71,33,47.77,37.67,40,40.86,33.26,45.78,26.16,50.92,19.17,56,12.19,61.3c-.53.4-.25,1.37.48,1.14,8.71-2.68,16.56-8.77,24.5-13.17,9.34-5.18,18.54-10.64,28.06-15.49s19-9.25,28.31-14.24C102.1,15,111.49,12.38,119.6,6.91A.63.63,0,0,0,119,5.83C101.49,15,85.42,27.06,68.61,37.35,52.27,47.35,35,55.92,19.27,67c-.65.45-.06,1.51.63,1.08,16.8-10.64,34.36-20,51.48-30C79.22,33.4,87,28.78,95.17,24.82c4.37-2.11,8.68-4.31,13.06-6.39,4.22-2,8.72-3.48,12.63-6.06l-.63-1.08C104.29,22.06,87.4,31.32,71.37,42Q58.8,50.32,46.22,58.63c-3.86,2.54-7.71,5-11.49,7.68-2.89,2-6.19,3.57-8.76,6-.43.41,0,1.26.61,1,7.48-2.74,13.75-7.61,20.8-11.21,8.94-4.57,17.56-9.8,26.41-14.55C82,43.2,90,38.19,98.09,33.59c4.42-2.5,8.74-5.18,13.06-7.84,4-2.43,7.77-5.43,12.09-7.22l-.48-1.15Q97.26,34.25,72.2,51.76c-6.58,4.6-13,9-18.89,14.43-5.05,4.68-10,10.34-15.82,14l.63,1.08C51.4,71.45,65.88,63.5,80,55c13.91-8.37,27.3-17.48,41.36-25.61l-.63-1.08C107.26,37.47,93.79,46.62,80.9,56.59,75,61.15,69.53,66.22,63.75,70.94c-2.92,2.38-6,4.25-8.78,6.84s-5.12,5.39-8,7.78c-.48.4,0,1.24.61,1,4.65-1.57,8.46-4.76,13.08-6.34C66.85,78.16,72.59,72.51,78,68.88c6.2-4.18,12.08-8.76,18.25-13S109.31,48,115.8,44.1c-.25-.33-.5-.66-.76-1A319,319,0,0,1,87.93,68c-5.5,4.48-11.22,8.68-17.07,12.69-4.52,3.1-9.4,5.62-13.51,9.3-.53.47.16,1.35.76,1C66.9,85.54,75.63,80,84.35,74.47q6.56-4.17,13.11-8.32c4.37-2.77,9.09-4.93,13.28-8a.63.63,0,0,0-.63-1.08,38.45,38.45,0,0,0-10.5,7.53,99.05,99.05,0,0,1-13,10.94c-3.78,2.84-7.42,5.85-11,8.93-2.95,2.52-7.4,5.87-9,9.46-.17.39,0,1,.54.94a8.83,8.83,0,0,0,5.33-2.22A94,94,0,0,1,83,85.51c3.51-2.16,7.24-3.91,10.74-6.1,3.13-2,5.79-4.57,8.93-6.52l-.76-1C98,76.58,93.43,80.44,88.8,84.32c-2.56,2.14-5.09,4.31-7.52,6.61-2.63,2.49-4.6,5.45-7.61,7.56-.54.39-.23,1.4.48,1.15,5.52-2,10.33-6.5,15.33-9.52l-.75-1a131.72,131.72,0,0,1-10.12,11.13c-.6.55.29,1.43.88.89A128.69,128.69,0,0,0,89.61,90c.45-.52-.12-1.37-.76-1-4.87,2.94-9.66,7.47-15,9.39l.48,1.14c4.77-3.34,8.37-8.37,12.81-12.2,5.42-4.67,11.08-9,15.66-14.58.43-.52-.12-1.38-.76-1-3.15,2-5.89,4.41-8.93,6.53-3.37,2.34-7.23,4-10.74,6.09a68.48,68.48,0,0,0-8.44,5.43l-1.24,1A4.63,4.63,0,0,1,69,92.53c1.2-1.43,2.86-2.58,4.13-4,5.68-6.29,13.23-11.19,20-16.24,6.19-4.64,10.66-10.47,17.66-14.12l-.63-1.08c-7.77,5.63-16.64,10.09-24.76,15.25-9.26,5.88-18.53,11.77-27.87,17.53l.75,1c4.44-4,9.84-6.76,14.74-10.12s9.75-7,14.45-10.75a301.09,301.09,0,0,0,28.51-26,.63.63,0,0,0-.76-1c-6.09,3.62-12,7.54-18.22,10.93-6.47,3.51-11.91,9-18.16,12.89-6,3.77-11.46,8.34-17.63,11.84-1.72,1-3.7,1.37-5.46,2.37-2.79,1.59-5.37,3.32-8.45,4.35.2.35.4.7.61,1a90.92,90.92,0,0,0,6.83-6.63c2.63-2.71,5.68-4.67,8.64-7C70,67.61,76.19,61.78,82.92,56.58c12.43-9.6,25.46-18.37,38.44-27.19a.63.63,0,0,0-.63-1.08c-14,8.13-27.48,17.19-41.35,25.61-14.12,8.56-28.61,16.45-41.9,26.29-.63.47-.06,1.52.63,1.08,5.33-3.35,9.82-8.36,14.38-12.63,6.36-6,13.17-10.82,20.34-15.82Q97.9,35.34,123.39,18.46c.56-.37.2-1.43-.48-1.14-7.24,3-13.87,8.31-20.58,12.34C93.77,34.81,85.1,39.82,76.41,44.74c-8.18,4.63-16.47,9.11-24.7,13.68S35.17,68.89,26.25,72.16c.2.35.4.7.61,1,2.84-2.72,6.67-4.53,9.88-6.79,3.82-2.69,7.77-5.17,11.67-7.74Q60.23,50.88,72,43c16-10.67,32.92-19.9,48.86-30.67.66-.45,0-1.53-.63-1.08C113,16.07,104,19.08,96.17,22.94c-8.72,4.3-17.06,9-25.42,14C53.66,47.08,36.07,56.34,19.27,67l.63,1.08C35.56,57,52.81,48.24,69.24,38.42,86.18,28.3,102.09,16,119.59,6.9L119,5.82c-7.58,5.13-16.3,7.94-24.51,11.86C85,22.2,75.68,27.18,66.28,31.85c-9,4.46-17.67,9.58-26.44,14.49C35.6,48.71,31.27,51,27.09,53.45c-4.85,2.87-9.3,6.11-14.76,7.78l.48,1.15c6.55-5,13.16-9.69,19.76-14.57S46.77,39.39,53.88,35c3.58-2.2,6.83-4.86,10.33-7.18,4-2.63,8.29-4.8,12.42-7.21,8.69-5,16.28-11.93,24.49-17.72a.63.63,0,0,0-.63-1.08C86,8.93,71.78,17.24,57.71,25.22c-11.48,6.52-23.65,12.3-34.79,19.36C19.35,46.85,15.75,49.05,12,51a27.65,27.65,0,0,1-5.39,2.34c.08,0,4.34-3.58,3.56-3,1.71-1.31,3.6-2.41,5.4-3.57,14.21-9.16,28.12-18.95,42-28.58L57,17.17C49.33,22.8,40.08,26.31,31.82,31c-4.27,2.41-8.57,4.8-12.81,7.27C14.23,41,9.6,45.16,4.23,46.74l.61,1c3.28-2.93,7.14-5,10.75-7.47,4.18-2.85,8.29-5.8,12.42-8.71C36.34,25.75,44.71,20,53.3,14.47c.56-.37.19-1.43-.49-1.15-8.3,3.49-16.22,8.21-24.3,12.23-4.43,2.21-9,4.19-13.43,6.34S5.46,38.3.44,39.17l.6,1c5-6.13,14.15-10,20.73-14.14C30,20.84,38.29,15.62,46.46,10.26c.57-.37.21-1.41-.48-1.14C38.76,12,31.68,15.57,24.71,19c-3.78,1.84-7.49,3.86-11.14,5.92C9.7,27.08,5.85,30.38,1.45,31.4l.61,1c4.06-4.57,11-7.56,16.2-10.77C24.32,17.91,30.54,14.42,36,9.74c.58-.5-.16-1.25-.76-1-4.12,1.86-8.46,3.19-12.59,5-5,2.23-9.86,4.8-15.34,5.64-.79.13-.45,1.33.34,1.21Z"/><path class="cls-1" d="M80.76.42C76.19,2.7,71.84,5.34,67.48,8l.63,1.08c6.06-3.83,13.65-3.88,19.73-7.88.57-.37.22-1.38-.48-1.14C82.75,1.63,78.9,4.46,74.93,7.25c-4.3,3-9.07,5.22-13.53,8a.63.63,0,0,0,.48,1.14c7.07-2.05,13.8-5,20.65-7.62,6-2.32,12.28-5.18,18.59-6.51.79-.16.45-1.37-.33-1.2C94.45,2.37,88.26,5.28,82.2,7.54c-6.89,2.57-13.57,5.57-20.65,7.63L62,16.31c4-2.49,8.29-4.54,12.26-7.11,4.42-2.86,8.35-6.21,13.4-8L87.21.1c-6.09,4-13.66,4-19.73,7.88a.63.63,0,0,0,.63,1.08c4.36-2.64,8.71-5.29,13.28-7.56.72-.36.09-1.44-.63-1.08Z"/></g></g></svg>