<svg xmlns="http://www.w3.org/2000/svg" viewBox="0 0 107.35 87.62"><defs><style>.cls-1{fill:#f3757c;}.cls-2{fill:#ee3347;}.cls-3{fill:#ee3346;}</style></defs><g id="Layer_2" data-name="Layer 2"><g id="Layer_1-2" data-name="Layer 1"><path class="cls-1" d="M95.36,4.68c1.93,3.93,6.31,7.27,7.19,11.64L99,15.49a49.42,49.42,0,0,0-7.09-1.4c-6.55-.78-14-1.55-20.58,0C61,16,54.91,25.34,46,29.22l-.29-.4C48.07,17.18,63.51,5.54,76.6,1.27c8.24-2.37,16.76.48,20.71,6.13"/><path class="cls-2" d="M71.77,87.34c.94-7.37,5.62-14,8.89-21C84.87,56.31,92.83,48.62,99.84,39.7c4.68-5.43,7.88-8.61,6.48-15.59-.81-3.38-.44-5.32-2.56-6.74-1.4-3.2-1.4-6-4.74-8.44l-1-.48a13,13,0,0,0-.71-1.11L98,8.45a12.4,12.4,0,0,1,1.51,4.79c1.4,8.92-9.83,15.9-14.5,23.66-4.68,8.14-8,17.84-10.3,26.76-1.4,7-4.21,13.58-3.27,20.56"/><path class="cls-1" d="M72.57,85.84C68.36,85.06,64.15,82,60.41,80,52,75,43.57,69.93,35.61,64.12A136.4,136.4,0,0,1,12.69,42.39C7.42,36.28,4,28.63,5,21.26h.18c-2.89,3.65-4,8.66-4.83,13.15C-.58,43,5,51.87,11.11,58.47c8,8.92,15,12.2,27.6,17.2C49,79.75,61.17,86.4,72.39,86Z"/><path class="cls-3" d="M45.26,29.18c-4.68-5-7.95-9.31-15.9-11.25A36.35,36.35,0,0,0,14.85,16,13.49,13.49,0,0,0,4.53,22l.47-.7a18.67,18.67,0,0,1,2.54-7.19c3.75-5.81,8.89-5.81,16.38-5.43,4.68.39,9.91.74,14.5,2.33,5,1.75,10.76,12.8,8.89,16.68Z"/><path d="M47.74,27.82c1.52-4.49-2-9.6-4.54-13C39.79,10.37,35,9.13,29.63,8.43s-12.9-1.69-18,1S4.57,17.28,4.05,22.76C2.68,37.37,18.16,50.4,27.9,58.89a165.81,165.81,0,0,0,21,15c7.17,4.49,15,10.49,23.33,12.56a.62.62,0,0,0,.33-1.2c-6-1.5-11.5-5.44-16.75-8.6C50,73.15,44.31,69.57,38.76,65.72,28.1,58.35,17.59,48.93,10.14,38.24A24.61,24.61,0,0,1,5.68,20c1.41-8.07,7.76-10.76,15.1-10.86,6.11-.08,14.2.07,19.15,4,3.45,2.78,8.16,9.72,6.6,14.33-.26.77.95,1.1,1.21.34Z"/><path d="M46.33,29C49.17,17.12,61,8.91,71.41,4c6.52-3.09,13.34-4,20-.81A12.59,12.59,0,0,1,97.11,21c-2.55,4.66-6.94,8.32-10.3,12.38s-5.49,9.22-7.49,14.11A107.82,107.82,0,0,0,73.75,65.3c-1.39,6.41-3.53,12.34-2.92,19,.08.79,1.33.8,1.25,0-.76-8.34,2.29-17.22,4.58-25.18s5.13-16,9.58-22.89c5-7.8,18.26-15.85,12.9-26.84-5-10.21-17.56-11.25-27-7.09C61,7.23,48.15,16,45.13,28.65c-.19.78,1,1.12,1.2.33Z"/><path d="M103.2,17.38c5.66,7.65,1.92,14.81-3.51,21-4.32,4.93-8.6,10-12.72,15-3.84,4.74-6.37,9.9-9.11,15.29-3,5.92-6.39,11.48-7.47,18.13-.13.78,1.07,1.12,1.2.33,1.24-7.59,5.53-14,8.83-20.8C84,59,88.8,53,94.13,46.91c7.29-8.36,18.75-18.53,10.14-30.16-.47-.64-1.55,0-1.07.63Z"/><path d="M45.58,29.36c7.27-3.43,12.65-9.66,19.79-13.31,9.3-4.76,23.84-3.07,33.46-.1.77.24,1.1-1,.33-1.21a60.85,60.85,0,0,0-30.25-1.33c-9.32,2.11-15.55,10.9-24,14.87-.73.34-.1,1.42.63,1.08Z"/><path d="M94.53,5.69c5.83,4.37,8.22,10.6,10.94,17.08.31.74,1.52.42,1.21-.33-2.87-6.81-5.41-13.25-11.52-17.83-.64-.48-1.26.6-.63,1.08Z"/><path d="M45.7,28.76c-4.38-4.76-8.39-8.88-14.65-11-6.81-2.3-14.74-3.81-21.59-.91C-2,21.7-1.56,39,2.93,48c3.46,7,9.33,13.07,15.44,17.75s13.46,7.12,20,11c4.93,2.88,10.87,4.53,16.29,6.21,5.65,1.75,11.73,3.55,17.7,3.5a.63.63,0,0,0,0-1.25c-9.65.08-20-3.94-28.83-7.47-4.69-1.88-9.07-4.53-13.63-6.71a59.44,59.44,0,0,1-17.1-11.79C2.86,49.15-4.37,32.7,6.54,20.49c5.49-6.14,15.81-4.07,22.65-1.93s10.92,6,15.63,11.09c.55.59,1.43-.3.88-.89Z"/></g></g></svg>