<svg xmlns="http://www.w3.org/2000/svg" viewBox="0 0 110.35 99.93"><defs><style>.cls-1{fill:#ed1f24;}</style></defs><g id="Layer_2" data-name="Layer 2"><g id="Layer_1-2" data-name="Layer 1"><path class="cls-1" d="M50.39,25.4C62.11,10.54,67.82-4.34,87.8,1.17,105,5.93,113.11,20,109.51,37c-5.44,25.62-24.22,43.16-41,63L66.24,98C45.91,89.83,9.09,70.64,1.86,49.33c-10.64-32.56,26.66-53.15,52-25.56Z"/><path d="M52.63,31.78C63.11,18.51,68.21,5.22,86.1,10.15c15.43,4.26,22.66,16.86,19.45,32C100.69,65,83.9,80.68,68.86,98.38l-2-1.7c-18.2-7.34-51.16-24.5-57.64-43.54C-.33,24,33,5.66,55.71,30.33Z"/><path class="cls-1" d="M55.46,39.18C64.21,27.8,68.53,16.46,83.23,20.5,95.9,24,101.75,34.63,99,47.52c-4.21,19.5-18.18,33-30.73,48.15l-1.65-1.43C51.66,88.16,24.65,73.86,19.48,57.72,11.88,33.07,39.54,17.14,58,37.92Z"/><path d="M56.28,46.75c7.45-9.45,11.09-18.91,23.83-15.39,11,3,16.14,12,13.85,22.77-3.46,16.29-15.42,27.43-26.13,40L66.4,93C53.44,87.73,30,75.51,25.35,62c-6.79-20.71,17-33.8,33.12-16.23Z"/><path class="cls-1" d="M56.86,55.37c6-6.9,8.74-13.91,19.5-10.9C85.65,47.06,90.21,54,88.61,62,86.18,74.15,76.49,82.2,67.88,91.37l-1.23-1c-11-4.3-31-14.17-35.24-24.5C25.13,50.14,44.65,41,58.66,54.65Z"/><path d="M57.63,59.34c5.19-5.84,7.57-11.81,17.05-9.15,8.17,2.29,12.24,8.22,10.89,15.07-2,10.37-10.48,17.17-18,24.93l-1.09-.82C56.83,85.61,39.18,77,35.36,68.15,29.72,54.62,46.79,47,59.21,58.75Z"/><path class="cls-1" d="M60.29,64.15c3.94-4.66,5.79-9.37,12.81-7.42,6.05,1.69,9,6.28,7.9,11.68C79.34,76.57,73,82,67.29,88.22l-.8-.63c-7.16-2.82-20.18-9.32-22.89-16.22-4-10.54,8.79-16.8,17.87-7.71Z"/><path d="M60.37,66.09c3.52-3.87,5.11-7.83,11.62-6,5.62,1.58,8.44,5.55,7.56,10.12-1.33,6.9-7.07,11.38-12.15,16.51l-.76-.55C60,83.6,47.83,77.76,45.16,71.83c-3.95-9.06,7.7-14.07,16.28-6.13Z"/><path class="cls-1" d="M61.41,68.14c2.89-3.16,4.2-6.41,9.56-4.9,4.63,1.3,7,4.56,6.24,8.3-1.08,5.65-5.81,9.31-10,13.51l-.62-.46c-5.49-2.12-15.5-6.91-17.71-11.78-3.26-7.42,6.32-11.51,13.4-5Z"/><path d="M61.6,69c2.46-2.64,3.56-5.36,8.17-4.06,4,1.12,6,3.87,5.39,7-.9,4.74-4.93,7.79-8.48,11.29l-.53-.39c-4.72-1.8-13.33-5.89-15.25-10-2.84-6.26,5.35-9.64,11.45-4.12Z"/><path class="cls-1" d="M62.46,70.85c1.57-1.61,2.26-3.28,5.25-2.44,2.59.73,3.92,2.46,3.56,4.39-.54,2.93-3.11,4.78-5.38,6.92l-.35-.24c-3.07-1.17-8.68-3.78-10-6.34C53.68,69.24,59,67.22,63,70.7Z"/></g></g></svg>