<svg id="Layer_1" data-name="Layer 1" xmlns="http://www.w3.org/2000/svg" viewBox="0 0 2000 500"><defs><style>.cls-1{fill:#3fc1c9;}</style></defs><path class="cls-1" d="M2013,509-40.33,499.64l6-381.5c8.32,17.13,21.17,37.19,38,38.27,27.89,1.77,34.39-50.63,68-63,54.53-20.1,102.23,94,166,79.91,48.45-10.69,55.89-84.25,95-82.16,39.56,2.13,45.48,78.14,89,84.41,46.66,6.72,71.79-76,118-67.53,35.23,6.51,33.38,57,71,68.65,50.93,15.79,80.44-68.64,147-65.27,56.49,2.86,62.85,65.08,121,68.65,61.4,3.77,74.3-64.39,138-65.27,64.76-.9,76.26,69.19,148,73.15,62.66,3.45,69.24-49.18,135-50.65,84.12-1.88,118.85,83.22,175,60.77,38.59-15.42,34.35-60.48,72-69.77,47.54-11.73,69,56.45,124,54,60.56-2.68,72.94-87.09,127-84.4,51.7,2.56,68.61,72.58,121,74.27,40.26,1.3,74.46-40.1,97.33-76Z"/></svg>