<svg id="Layer_1" data-name="Layer 1" xmlns="http://www.w3.org/2000/svg" viewBox="0 0 2000 500"><defs><style>.cls-1{fill:#189e9e;}</style></defs><path class="cls-1" d="M2011,500H-6L0,161c8.32,15.22,21.17,33.05,38,34,27.89,1.58,34.39-45,68-56,54.53-17.87,102.23,83.5,166,71,48.45-9.49,55.89-74.87,95-73,39.56,1.89,45.48,69.43,89,75,46.66,6,71.79-67.58,118-60,35.23,5.78,33.38,50.64,71,61,50.93,14,80.44-61,147-58,56.49,2.54,62.85,57.83,121,61,61.4,3.35,74.3-57.21,138-58,64.76-.8,76.26,61.49,148,65,62.66,3.07,69.24-43.69,135-45,84.12-1.67,118.85,73.94,175,54,38.59-13.71,34.35-53.74,72-62,47.54-10.42,69,50.16,124,48,60.56-2.38,72.94-77.38,127-75,51.17,2.26,71,70.81,121,66,22.44-2.16,39.38-17.95,50-30.52Z"/></svg>