<svg id="Layer_1" data-name="Layer 1" xmlns="http://www.w3.org/2000/svg" viewBox="0 0 1366 200"><defs><style>.cls-1{fill:#c0fffd;}.cls-2{fill:#189e9e;}</style></defs><path class="cls-1" d="M1366,200H0L-66,5.27c20,24.66,47.89,50.5,78,47.09,30.29-3.43,35-33.31,68-42.9C126.2-4,145.26,46.52,205,49.22,267.42,52,279.24-1.7,344,0c52,1.4,51.87,36.31,111,48.13C531.86,63.55,553.37,8.8,644,16.78c61.85,5.45,60.22,31.71,121,34.53,76,3.53,86.4-37.11,161-38.71,82.3-1.77,88.28,47.31,167,42.9,63.7-3.57,76.36-36.62,155-49.18,52.38-8.36,97.17-1.75,127,5.23Z"/><rect class="cls-2" y="133" width="1366" height="67"/></svg>