<svg id="Layer_1" data-name="Layer 1" xmlns="http://www.w3.org/2000/svg" viewBox="0 0 2000 500"><defs><style>.cls-1{fill:#c0fffd;}</style></defs><path class="cls-1" d="M2013.34,538-40,527-34,77c8.31,20.2,21.16,43.86,38,45.13,27.88,2.1,34.39-59.71,68-74.33,54.53-23.71,102.22,110.83,166,94.24,48.45-12.6,55.89-99.37,95-96.89,39.56,2.5,45.47,92.15,89,99.54C468.67,152.63,493.8,55,540,65.07c35.23,7.67,33.37,67.21,71,81,50.93,18.62,80.44-81,147-77,56.48,3.37,62.85,76.75,121,81,61.4,4.45,74.29-75.94,138-77,64.76-1.06,76.26,81.61,148,86.27,62.65,4.08,69.24-58,135-59.72,84.11-2.22,118.84,98.14,175,71.67,38.59-18.19,34.34-71.33,72-82.29,47.53-13.84,69,66.58,124,63.71C1731.56,149.5,1744,50,1798,53.12c51.69,3,68.61,85.61,121,87.6,40.26,1.53,74.46-47.3,97.33-89.59Z"/></svg>