<svg id="Layer_1" data-name="Layer 1" xmlns="http://www.w3.org/2000/svg" viewBox="0 0 1366 200"><defs><style>.cls-1{fill:#189e9e;}</style></defs><path class="cls-1" d="M1366,200H0Q-14.5,110.17-29,20.32C-9,41.49,18.89,63.69,49,60.76c30.29-2.94,35-28.61,68-36.85,46.23-11.55,65.28,31.84,125,34.16,62.44,2.42,74.27-43.75,139-42.25C433,17,432.88,47,492,57.17c76.88,13.21,98.39-33.83,189-27,61.85,4.69,60.22,27.24,121,29.67,76,3,86.4-31.89,161-33.26,82.3-1.52,88.28,40.64,167,36.85,63.7-3.06,76.36-31.46,155-42.25,52.38-7.18,97.18-1.5,127,4.5Q1389,112.86,1366,200Z"/></svg>