<svg id="Layer_1" data-name="Layer 1" xmlns="http://www.w3.org/2000/svg" viewBox="0 0 1366 200"><defs><style>.cls-1{fill:#3fc1c9;opacity:0.86;}.cls-2{fill:#189e9e;}</style></defs><path class="cls-1" d="M1366,200H0Q-18.51,105.14-37,10.29c20,23.49,47.89,48.12,78,44.87,30.29-3.27,35-31.75,68-40.88C155.2,1.47,174.25,49.6,234,52.17,296.41,54.86,308.23,3.64,373,5.3c52,1.34,51.87,34.6,111,45.87,76.87,14.66,98.39-37.53,189-29.91,61.85,5.19,60.22,30.21,121,32.9,76,3.37,86.4-35.37,161-36.89,82.3-1.68,88.27,45.08,167,40.88,63.69-3.4,76.36-34.9,155-46.87,52.38-8,97.17-1.66,127,5Q1385,108.13,1366,200Z"/><rect class="cls-2" y="133" width="1366" height="67"/></svg>