<svg id="Layer_1" data-name="Layer 1" xmlns="http://www.w3.org/2000/svg" xmlns:xlink="http://www.w3.org/1999/xlink" viewBox="0 0 688 768"><defs><style>.cls-1{fill:url(#linear-gradient);}.cls-2{fill:url(#linear-gradient-2);}</style><linearGradient id="linear-gradient" x1="192.42" y1="420.29" x2="692.03" y2="420.29" gradientUnits="userSpaceOnUse"><stop offset="0" stop-color="#2d6599"/><stop offset="0.03" stop-color="#2a6f9f"/><stop offset="0.14" stop-color="#1f8fb2"/><stop offset="0.26" stop-color="#17aac1"/><stop offset="0.39" stop-color="#10becd"/><stop offset="0.54" stop-color="#0ccdd6"/><stop offset="0.71" stop-color="#09d5da"/><stop offset="1" stop-color="#08d8dc"/></linearGradient><linearGradient id="linear-gradient-2" x1="235" y1="399.09" x2="693" y2="399.09" gradientUnits="userSpaceOnUse"><stop offset="0" stop-color="#93f1ff"/><stop offset="0.02" stop-color="#96f1ff"/><stop offset="0.18" stop-color="#a1f1ff"/><stop offset="0.4" stop-color="#a8f1ff"/><stop offset="1" stop-color="#aaf1ff"/></linearGradient></defs><path class="cls-1" d="M692,729c-36.16,5-90.48,6.66-140-22-61.11-35.37-52.37-80.65-108-115-83.48-51.55-159,16-216-36-38.26-34.88-42.26-99.93-28-146,2.84-9.17,23.13-71.54,78-92,48.46-18.07,73.11,17.21,108,0,58.67-28.94,27.74-138,85-187,27.83-23.82,85.1-40,218,13q1.65,145.64,2.41,291.29Q692.16,582.16,692,729Z"/><path class="cls-2" d="M693,630c-27.21,9.57-66.35,18-102.78,2-42.84-18.88-41.14-53.71-91.8-86-41.14-26.22-85.46-30.78-116.74-34-67.89-7-96.3,10.49-122.73-13-23.49-20.88-24-55.08-23.95-62,.33-37.55,24.83-63.06,30.93-69,58.11-56.57,145.27,8.92,203.56-37,57.61-45.38,16.9-144.32,62.86-169,21.17-11.37,63.85-8.67,160.65,77q-1,36-2,72Q692,470.5,693,630Z"/></svg>