<svg id="Layer_1" data-name="Layer 1" xmlns="http://www.w3.org/2000/svg" xmlns:xlink="http://www.w3.org/1999/xlink" viewBox="0 0 688 768"><defs><style>.cls-1{fill:url(#linear-gradient);}.cls-2{fill:url(#linear-gradient-2);}</style><linearGradient id="linear-gradient" x1="-14.36" y1="387.88" x2="484.86" y2="387.88" gradientUnits="userSpaceOnUse"><stop offset="0" stop-color="#2159bd"/><stop offset="0.03" stop-color="#1f64c0"/><stop offset="0.13" stop-color="#1882c9"/><stop offset="0.24" stop-color="#129bd0"/><stop offset="0.36" stop-color="#0dafd5"/><stop offset="0.5" stop-color="#0abdd9"/><stop offset="0.68" stop-color="#09c5db"/><stop offset="1" stop-color="#08c7dc"/></linearGradient><linearGradient id="linear-gradient-2" x1="573.35" y1="473.56" x2="901.68" y2="473.56" gradientTransform="matrix(-1.15, 0.01, -0.01, -1, 1027.05, 834.63)" gradientUnits="userSpaceOnUse"><stop offset="0" stop-color="#93f1ff"/><stop offset="0.02" stop-color="#96f1ff"/><stop offset="0.18" stop-color="#a1f1ff"/><stop offset="0.4" stop-color="#a8f1ff"/><stop offset="1" stop-color="#aaf1ff"/></linearGradient></defs><path class="cls-1" d="M-11.73,52.74C9.5,46.62,84.43,27.88,158.73,67.23c14.71,7.79,91.14,48.26,89.87,102.05-1.34,56.72-87.95,79-82.91,139.73.3,3.62,2.62,31.67,21.45,42.33C223,371.61,269.3,301,355.28,294.51c11.26-.84,70.69-5.31,102.05,26.1,70.2,70.31-1.58,319.22-128.14,357.74-104.94,31.93-204.54-93.87-284.1-45.23C10.84,654.06-2.3,696.69-7.79,732.86q-4.94-156.27-6.16-312.58Q-15.4,236.53-11.73,52.74Z"/><path class="cls-2" d="M-16.37,152.46C25,109.09,87,99.73,130.32,126.37c31.44,19.33,57.13,60.15,49.86,94.51-6.8,32.14-38.39,39.54-45.22,80.59-1,5.69-4.77,28.66,4.63,47.55,27.52,55.25,135.65,10.22,191.92,68.41,37.79,39.09,43,115.25,9.86,161.19-34.75,48.15-102,49.77-111.33,49.86C137.31,629.37,93.9,547.21,38.13,567c-17,6-35.44,21.66-49.86,59.14q-2.55-98.35-3.78-196.73Q-17.25,291-16.37,152.46Z"/></svg>