<svg id="Layer_1" data-name="Layer 1" xmlns="http://www.w3.org/2000/svg" xmlns:xlink="http://www.w3.org/1999/xlink" viewBox="0 0 688 768"><defs><style>.cls-1{fill:url(#linear-gradient);}.cls-2{fill:url(#linear-gradient-2);}</style><linearGradient id="linear-gradient" x1="-712.91" y1="-7415.87" x2="-186.27" y2="-7415.87" gradientTransform="matrix(1.15, -0.01, 0.01, 1, 1016.59, 7814.11)" gradientUnits="userSpaceOnUse"><stop offset="0" stop-color="#2d6599"/><stop offset="0.03" stop-color="#2a6f9f"/><stop offset="0.14" stop-color="#1f8fb2"/><stop offset="0.26" stop-color="#17aac1"/><stop offset="0.39" stop-color="#10becd"/><stop offset="0.54" stop-color="#0ccdd6"/><stop offset="0.71" stop-color="#09d5da"/><stop offset="1" stop-color="#08d8dc"/></linearGradient><linearGradient id="linear-gradient-2" x1="-674.28" y1="-7421.31" x2="-189.88" y2="-7421.31" gradientTransform="matrix(1.15, -0.01, 0.01, 1, 1016.59, 7814.11)" gradientUnits="userSpaceOnUse"><stop offset="0" stop-color="#93f1ff"/><stop offset="0.02" stop-color="#96f1ff"/><stop offset="0.18" stop-color="#a1f1ff"/><stop offset="0.4" stop-color="#a8f1ff"/><stop offset="1" stop-color="#aaf1ff"/></linearGradient></defs><path class="cls-1" d="M715.58,736.2c-62.32,12.45-135.13,16-175.3-25.44-46.87-48.34-8.95-116.28-49.65-151.47-67.89-58.73-220,90.09-318.08,28.7-56.77-35.52-71.45-126.4-64.77-186.14,3.37-30.18,8.64-77.29,43.09-107.93,83.21-74,244.83,29.69,290-28.71,32.06-41.46-35.76-111.46-6.57-162.41,32.19-56.2,157.85-46.45,274.28-24.45q-4,171.54-1.95,343Q708.51,578.82,715.58,736.2Z"/><path class="cls-2" d="M711,627.25c-32.26,24.26-74.73,47.56-112.61,35.14-61-20-43.73-110.81-107.79-143.52-63.56-32.46-127.7,32.86-243.69,9.37-17-3.44-44-10.55-66.23-33.14-5.56-5.66-29.89-30.2-30-65.22-.08-39.71,29.44-67.05,36.79-73.42,70-60.68,177,7.29,247.44-42.13,69.59-48.84,18.74-152.87,74.41-179.65C535,122.35,587,124.57,706,213.75q-.75,38.08-1.51,76.17Z"/></svg>