<svg id="Layer_1" data-name="Layer 1" xmlns="http://www.w3.org/2000/svg" xmlns:xlink="http://www.w3.org/1999/xlink" viewBox="0 0 1366 768"><defs><style>.cls-1{fill:url(#linear-gradient);}.cls-2{fill:url(#linear-gradient-2);}</style><linearGradient id="linear-gradient" x1="-4314.31" y1="-6097.06" x2="-4085.39" y2="-6097.06" gradientTransform="matrix(0.02, 1.15, -1, 0.01, -5360.78, 5581.81)" gradientUnits="userSpaceOnUse"><stop offset="0" stop-color="#2d6599"/><stop offset="0.03" stop-color="#2a6f9f"/><stop offset="0.14" stop-color="#1f8fb2"/><stop offset="0.26" stop-color="#17aac1"/><stop offset="0.39" stop-color="#10becd"/><stop offset="0.54" stop-color="#0ccdd6"/><stop offset="0.71" stop-color="#09d5da"/><stop offset="1" stop-color="#08d8dc"/></linearGradient><linearGradient id="linear-gradient-2" x1="-4235.16" y1="-6091.02" x2="-4082.95" y2="-6091.02" gradientTransform="matrix(0.02, 1.15, -1, 0.01, -5360.78, 5581.81)" gradientUnits="userSpaceOnUse"><stop offset="0" stop-color="#93f1ff"/><stop offset="0.02" stop-color="#96f1ff"/><stop offset="0.18" stop-color="#a1f1ff"/><stop offset="0.4" stop-color="#a8f1ff"/><stop offset="1" stop-color="#aaf1ff"/></linearGradient></defs><path class="cls-1" d="M20.38,786.6c24.45-41.59,64-92,125.15-111.25,85.58-27,128,33.84,222.5,28.44,152.69-8.72,177.32-175.31,300.24-171.92C781.33,535,799.17,677,943.23,688.62c78.12,6.32,101.55-33.12,182-23.38,90.07,10.89,156.92,71.92,199.11,121.36q-319.17,2.48-638.41,2.52Q353.14,789.18,20.38,786.6Z"/><path class="cls-2" d="M127.84,787.23c6.78-14.21,19.64-36.45,43-54.36,74.38-57.09,157.22,5,284.44-17.07,122.12-21.16,115.81-90.5,216.8-92.91,104.48-2.5,107.78,71.79,242.09,85.33,91.21,9.19,140-20,213,17.06,37.22,18.9,62.2,45.6,77.74,65.74Z"/></svg>