<svg id="Layer_1" data-name="Layer 1" xmlns="http://www.w3.org/2000/svg" viewBox="0 0 1920 500"><defs><style>.cls-1{fill:#c0fffd;}.cls-2{fill:#3fc1c9;}.cls-3{fill:#189e9e;}</style></defs><path class="cls-1" d="M1922.17,763.94H7.38Q2.27,438.85-2.83,113.76C71.55,178,188.36,259.32,344.38,289.07c267.74,51.06,351.42-107,658.69-102.12,328.11,5.18,440,188.66,646.77,112.33,142.21-52.49,224.48-189.13,272.33-299.56Z"/><path class="cls-2" d="M1922,775.85H3.38V20.15c79.9,125.35,206,274.29,387.13,308.07,222.74,41.53,295.68-134.54,585-160,377-33.18,576.54,237.44,781.09,122.54,100-56.15,144-172.27,165.43-270.62Z"/><path class="cls-3" d="M1920.17,796.28H5.38V113.76c93.27,215.9,200.25,286.85,284.24,309.77,258.87,70.64,457.18-261.8,788-190.63,134.53,28.94,129.33,90.15,304.66,122.55,58.24,10.76,340,62.83,474.87-100.42,40.63-49.17,56.22-103.72,63-141.27Z"/></svg>