<svg id="Layer_1" data-name="Layer 1" xmlns="http://www.w3.org/2000/svg" viewBox="0 0 1920 500"><defs><style>.cls-1{fill:#14f2e2;}.cls-2{fill:#95fcf7;}.cls-3{fill:#fff;}</style></defs><path class="cls-1" d="M1918,500c-229.25-8.42-413.35-18.76-531-26-474.73-29.21-656.09-56.41-947-36A3209.4,3209.4,0,0,0-2,500L0,0H1918Z"/><path class="cls-2" d="M1922,385c-7.9,3.72-20.44,9.49-36,16-218.25,91.81-418.69,78.69-507,71.94-517-39.54-658.81-109.07-942-84.77C243.22,404.85,90.19,456.23-2,493Q-1,246.51,0,0H1918Q1920,192.51,1922,385Z"/><path class="cls-3" d="M1919,154.81c-203.75,132.57-375.08,172.08-490.26,184.64-412.15,45-623.1-198.53-1014.52-127.74C236.65,243.82,96,327.3-2,401L0,0H1918Q1918.5,77.4,1919,154.81Z"/></svg>